<?xml version="1.0" standalone="no"?>
<!DOCTYPE svg PUBLIC "-//W3C//DTD SVG 1.1//EN" "http://www.w3.org/Graphics/SVG/1.1/DTD/svg11.dtd" >
<svg xmlns="http://www.w3.org/2000/svg" xmlns:xlink="http://www.w3.org/1999/xlink" version="1.1">
<metadata>
Created by FontForge 20170731 at Tue Feb 21 01:21:08 2017
 By ,,,
</metadata>
<defs>
<font id="Vision-Black" horiz-adv-x="581" >
  <font-face 
    font-family="Vision ExtBlk"
    font-weight="950"
    font-stretch="normal"
    units-per-em="1000"
    panose-1="0 0 0 0 0 0 0 0 0 0"
    ascent="800"
    descent="-200"
    x-height="526"
    cap-height="612"
    bbox="-120 -329 1194 923"
    underline-thickness="50"
    underline-position="-200"
    unicode-range="U+000D-FB05"
  />
<missing-glyph horiz-adv-x="303" 
 />
    <glyph glyph-name="f_j" unicode="fj" horiz-adv-x="661" 
d="M370 611q-57 -1 -67 -84h143h2h160v-421q0 -143 -52 -220t-140 -77q-46 0 -83 9.5t-51 19.5l-14 10l56 115q18 -19 63 -19q59 0 59 162v284h-144v-390h-154v390h-81v137h81q3 84 53 140t136 56q45 0 80.5 -10.5t48.5 -20.5l14 -11l-44 -92q-31 22 -66 22z" />
    <glyph glyph-name="f_i" unicode="fi" horiz-adv-x="721" 
d="M607 527v-527h-158v390h-145v-390h-154v390h-81v137h81q0 84 56.5 140t138.5 56q41 0 75 -10t48 -20l14 -10l-48 -101q-37 20 -83 4.5t-46 -59.5h302z" />
    <glyph glyph-name="f_f" unicode="ff" horiz-adv-x="879" 
d="M711 723q41 0 75 -10t48 -20l14 -10l-48 -101q-37 20 -83 4.5t-46 -59.5h145v-137h-146v-390h-154v390h-80h-1h-145v-390h-154v390h-81v137h81q0 84 56.5 140t138.5 56q41 0 75 -10t48 -20l14 -10l-48 -101q-37 20 -83 4.5t-46 -59.5h144h1h80q0 84 56.5 140t138.5 56z
" />
    <glyph glyph-name="f_l" unicode="fl" horiz-adv-x="773" 
d="M426 595l-6 -13q-37 20 -83 4.5t-46 -59.5h135v68zM426 222v168h-136v-390h-154v390h-81v137h81q0 55 26 100.5t70.5 70.5t98.5 25q62 0 109 -23h149v-474q0 -52 7.5 -71.5t27.5 -19.5q10 0 20 3.5t16 7.5l5 4l56 -121q-56 -39 -137 -39q-83 0 -120.5 56t-37.5 176z" />
    <glyph glyph-name="f_t" unicode="ft" horiz-adv-x="896" 
d="M517 169v221h-81h-146v-390h-154v390h-81v137h81q0 84 56.5 140t138.5 56q41 0 75 -10t48 -20l14 -10l-48 -101q-37 20 -83 4.5t-46 -59.5h145h81v128h154v-128h146v-137h-146v-164q0 -55 6 -72.5t30 -17.5q7 0 17 4.5t16 9.5l6 4l52 -119q-33 -23 -60.5 -34t-66.5 -11
q-154 0 -154 179z" />
    <glyph glyph-name="f_f_t" unicode="fft" horiz-adv-x="1279" 
d="M894 169v221h-79h-2h-144v-390h-154v390h-79h-2h-144v-390h-154v390h-81v137h81q0 84 56.5 140t138.5 56q41 0 75 -10t48 -20l14 -10l-48 -101q-37 20 -83 4.5t-46 -59.5h143h2h79q0 84 56.5 140t138.5 56q41 0 75 -10t48 -20l14 -10l-48 -101q-37 20 -83 4.5t-46 -59.5
h143h2h79v128h154v-128h146v-137h-146v-164q0 -55 6 -72.5t30 -17.5q7 0 17 4.5t16 9.5l6 4l52 -119q-33 -23 -60.5 -34t-66.5 -11q-154 0 -154 179z" />
    <glyph glyph-name="f_f_l" unicode="ffl" horiz-adv-x="1220" 
d="M799 582q-27 10 -55 10t-50.5 -17.5t-22.5 -47.5h128v55zM799 222v168h-129v-390h-154v390h-80h-1h-145v-390h-154v390h-81v137h81q0 55 26 100.5t70.5 70.5t98.5 25q19 0 36.5 -2t31 -5.5t25 -8t19.5 -9t14 -8t8 -5.5l3 -2l-48 -101q-27 10 -55.5 10t-51 -17.5
t-22.5 -47.5h144h1h80q0 55 26 100.5t70.5 70.5t98.5 25q62 0 109 -23h142v-474q0 -52 7.5 -71.5t27.5 -19.5q10 0 20 3.5t15 7.5l6 4l56 -121q-56 -39 -137 -39q-83 0 -120.5 56t-37.5 176z" />
    <glyph glyph-name="f_f_j" unicode="ffj" horiz-adv-x="1327" 
d="M801 582q-37 20 -83 4.5t-46 -59.5h145h162v-421q0 -143 -52 -220t-140 -77q-46 0 -83 9.5t-51 19.5l-14 10l56 115q18 -19 63 -19q59 0 59 162v284h-146v-390h-154v390h-81h-146v-390h-154v390h-81v137h81q0 84 56.5 140t138.5 56q41 0 75 -10t48 -20l14 -10l-48 -101
q-37 20 -83 4.5t-46 -59.5h145h81q0 84 56.5 140t138.5 56q41 0 75 -10t48 -20l14 -10z" />
    <glyph glyph-name="t_f" unicode="tf" horiz-adv-x="920" 
d="M136 169v221h-81v137h81v128h154v-128h146v-137h-146v-164q0 -55 6 -72.5t30 -17.5q7 0 17 4.5t16 9.5l6 4l52 -119q-33 -23 -60.5 -34t-66.5 -11q-154 0 -154 179zM713 723q41 0 75 -10t48 -20l14 -10l-48 -101q-37 20 -83 4.5t-46 -59.5h145v-137h-146v-390h-154v390
h-81v137h81q0 84 56.5 140t138.5 56z" />
    <glyph glyph-name=".notdef" horiz-adv-x="303" 
 />
    <glyph glyph-name=".null" horiz-adv-x="0" 
 />
    <glyph glyph-name="nonmarkingreturn" horiz-adv-x="333" 
 />
    <glyph glyph-name="NULL" horiz-adv-x="0" 
 />
    <glyph glyph-name="NULL" horiz-adv-x="0" 
 />
    <glyph glyph-name="CR" unicode="&#xd;" horiz-adv-x="250" 
 />
    <glyph glyph-name="space" unicode=" " horiz-adv-x="260" 
 />
    <glyph glyph-name="exclam" unicode="!" horiz-adv-x="362" 
d="M181 163q37 0 63.5 -25.5t26.5 -61.5t-26 -61t-64 -25t-64.5 25t-26.5 61t26.5 61.5t64.5 25.5zM115 222l-56 503h244l-56 -503h-132z" />
    <glyph glyph-name="quotedbl" unicode="&#x22;" horiz-adv-x="332" 
d="M52 457l-29 211h125l-28 -211h-68zM212 457l-28 211h125l-29 -211h-68z" />
    <glyph glyph-name="numbersign" unicode="#" horiz-adv-x="750" 
d="M560 126l-21 -127h-172l21 127h-79l-21 -127h-172l21 127h-83l33 136h73l14 83h-82l33 136h72l21 131h172l-22 -131h79l22 131h171l-21 -131h77l-32 -136h-68l-14 -83h76l-33 -136h-65zM419 252l17 103h-98l-18 -103h99z" />
    <glyph glyph-name="dollar" unicode="$" horiz-adv-x="571" 
d="M526 207q0 -82 -52 -139t-129 -75v-82h-95v76q-59 3 -110 18.5t-73 29.5l-22 14l65 149q109 -55 155 -55q38 0 59.5 12.5t21.5 35.5q0 18 -26.5 31.5t-64 25.5t-75 29.5t-64 55.5t-26.5 92q0 72 40 121.5t120 64.5v78h95v-73q56 -3 100.5 -18.5t60.5 -29.5l16 -13
l-53 -123q0 1 -17 10t-49.5 19t-63.5 10q-33 0 -54.5 -12t-21.5 -33t27 -34t65.5 -23.5t77.5 -26t66 -50t27 -85.5z" />
    <glyph glyph-name="ampersand" unicode="&#x26;" horiz-adv-x="726" 
d="M45 190q0 71 35.5 122t93.5 76q-19 44 -19 76q0 38 14.5 67.5t36 46t50.5 27t54.5 14t51.5 3.5q36 0 66.5 -7t43.5 -15l13 -7l-50 -106q-14 15 -57 15q-22 0 -37 -14.5t-15 -41.5q0 -45 128 -197q18 47 18 116h134q0 -133 -58 -224l133 -141h-205q-15 14 -38 38
q-69 -38 -159 -38q-57 0 -108.5 19t-88.5 64t-37 107zM188 206q0 -30 27.5 -53t63.5 -23q37 0 67 11q-63 72 -107 136q-51 -19 -51 -71z" />
    <glyph glyph-name="quotesingle" unicode="'" horiz-adv-x="208" 
d="M60 456l-37 211h162l-37 -211h-88z" />
    <glyph glyph-name="parenleft" unicode="(" horiz-adv-x="410" 
d="M387 661q-96 -70 -146.5 -172t-50.5 -214q0 -113 50.5 -215t146.5 -172q-32 -45 -98 -135q-130 94 -198 232t-68 290q0 151 68 289.5t198 232.5q43 -58 98 -136z" />
    <glyph glyph-name="parenright" unicode=")" horiz-adv-x="410" 
d="M122 -249l-99 135q96 70 146.5 172t50.5 215q0 112 -50.5 214t-146.5 172l99 136q129 -94 197 -232.5t68 -289.5q0 -152 -68 -290t-197 -232z" />
    <glyph glyph-name="asterisk" unicode="*" horiz-adv-x="394" 
d="M371 480l-75 -53l75 -53l-56 -79l-69 48v-96h-98v96l-69 -48l-56 79l75 53l-75 53l56 79l69 -48v95h98v-95l69 48z" />
    <glyph glyph-name="plus" unicode="+" horiz-adv-x="469" 
d="M446 362v-149h-128v-137h-167v137h-128v149h128v137h167v-137h128z" />
    <glyph glyph-name="comma" unicode="," horiz-adv-x="340" 
d="M170 214q51 0 83.5 -38.5t32.5 -102.5q0 -72 -45 -129.5t-78 -73.5l-55 76q43 30 49 54q-46 0 -74.5 29.5t-28.5 78.5q0 46 36.5 76t79.5 30z" />
    <glyph glyph-name="hyphen" unicode="-" horiz-adv-x="469" 
d="M446 200h-423v149h423v-149z" />
    <glyph glyph-name="period" unicode="." horiz-adv-x="262" 
d="M239 98q0 -44 -31.5 -76t-76.5 -32t-76.5 32t-31.5 76q0 45 31.5 77t76.5 32t76.5 -32t31.5 -77z" />
    <glyph glyph-name="slash" unicode="/" horiz-adv-x="422" 
d="M417 713l-271 -779h-141l271 779h141z" />
    <glyph glyph-name="zero" unicode="0" horiz-adv-x="551" 
d="M277 622q32 0 64.5 -9t66 -32t59 -57.5t42 -91t16.5 -126.5q0 -87 -23.5 -151.5t-62 -98.5t-79 -50t-83.5 -16q-34 0 -67 9t-67 32t-59.5 58t-41.5 91t-16 126q0 86 24.5 151t64 99t80.5 50t82 16zM277 474q-92 0 -92 -168q0 -171 92 -171q49 0 69.5 43.5t20.5 127.5
q0 168 -90 168z" />
    <glyph glyph-name="one" unicode="1" horiz-adv-x="469" 
d="M226 612h148v-612h-167v451l-94 -33l-36 133z" />
    <glyph glyph-name="two" unicode="2" horiz-adv-x="527" 
d="M472 451q0 -47 -26.5 -94.5t-59.5 -79t-68.5 -68t-47.5 -58.5h216v-151h-443v70q0 42 26.5 85t64 78t75 67.5t64 63.5t26.5 56q0 24 -21.5 40t-54.5 16q-51 0 -118 -43l-55 116q9 8 25 19t69.5 30t111.5 19q95 0 155.5 -44.5t60.5 -121.5z" />
    <glyph glyph-name="three" unicode="3" horiz-adv-x="546" 
d="M305 194q0 26 -30.5 40t-77.5 14h-82v120l130 104h-183v140h370v-140l-100 -86q6 -1 15.5 -4t34 -16.5t43.5 -32.5t34.5 -56t15.5 -83q0 -92 -68 -148t-179 -56q-47 0 -95.5 14t-72.5 28l-25 15l45 120q69 -29 117 -29q50 0 79 14.5t29 41.5z" />
    <glyph glyph-name="four" unicode="4" horiz-adv-x="602" 
d="M470 278h89v-139h-89v-139h-167v139h-248v116l204 357h211v-334zM303 278v169l-83 -169h83z" />
    <glyph glyph-name="five" unicode="5" horiz-adv-x="525" 
d="M300 209q0 22 -13 36.5t-38.5 20.5t-46.5 7.5t-52 1.5h-74l12 337h336v-140h-210l-1 -62q12 1 34 1q223 0 223 -208q0 -88 -69 -150.5t-167 -62.5q-47 0 -98 14t-78 28l-28 15l51 138q75 -43 138 -43q32 0 56.5 16.5t24.5 50.5z" />
    <glyph glyph-name="six" unicode="6" horiz-adv-x="549" 
d="M474 191q0 -55 -20 -96t-52 -63t-66.5 -32t-70.5 -10q-37 0 -71.5 10t-68 31.5t-53.5 62.5t-20 97q0 48 18 103t37 91.5t62 111.5l63 115h163l-112 -230h2q83 0 136 -47t53 -144zM328 191q0 33 -16 57t-48 24t-48 -24.5t-16 -56.5q0 -35 18 -56t46 -21t46 21t18 56z" />
    <glyph glyph-name="seven" unicode="7" horiz-adv-x="498" 
d="M453 612v-135l-209 -477h-173l213 469h-229v143h398z" />
    <glyph glyph-name="eight" unicode="8" horiz-adv-x="503" 
d="M236 625q72 0 127.5 -41t55.5 -121q0 -76 -57 -121q91 -52 91 -161q0 -49 -20 -87.5t-53 -60.5t-69.5 -33t-74.5 -11t-74.5 11t-69 33t-52.5 60.5t-20 87.5q0 107 94 161q-60 47 -60 121q0 80 55.5 121t126.5 41zM237 501q-20 0 -34.5 -16.5t-14.5 -35.5q0 -21 14 -36
t35 -15q22 0 36.5 15t14.5 36q0 20 -13.5 36t-37.5 16zM237 257q-26 0 -44 -20.5t-18 -46.5q0 -28 17 -46t45 -18q29 0 46.5 18t17.5 46q0 26 -17 46.5t-47 20.5z" />
    <glyph glyph-name="nine" unicode="9" horiz-adv-x="555" 
d="M64 421q0 55 20 96t52.5 63t67 32t70.5 10t70.5 -10t68 -31.5t53.5 -62.5t20 -97q0 -48 -18 -103t-37 -91.5t-62 -111.5l-62 -115h-171l112 230h-4q-70 0 -125 48.5t-55 142.5zM211 421q0 -33 15.5 -57t47.5 -24t48 24.5t16 56.5q0 35 -18 56t-46 21t-45.5 -21t-17.5 -56
z" />
    <glyph glyph-name="colon" unicode=":" horiz-adv-x="346" 
d="M281 419q0 -45 -31.5 -76.5t-76.5 -31.5t-76.5 31.5t-31.5 76.5t31.5 76.5t76.5 31.5t76.5 -31.5t31.5 -76.5zM65 98q0 45 31.5 77t76.5 32t76.5 -32t31.5 -77q0 -44 -31.5 -76t-76.5 -32t-76.5 32t-31.5 76z" />
    <glyph glyph-name="semicolon" unicode=";" horiz-adv-x="362" 
d="M181 181q51 0 83.5 -39t32.5 -103q0 -71 -45 -129t-78 -74l-55 76q43 30 49 54q-46 0 -74.5 29.5t-28.5 78.5q0 46 36.5 76.5t79.5 30.5zM173 527q45 0 76.5 -31.5t31.5 -76.5t-31.5 -76.5t-76.5 -31.5t-76.5 31.5t-31.5 76.5t31.5 76.5t76.5 31.5z" />
    <glyph glyph-name="less" unicode="&#x3c;" horiz-adv-x="413" 
d="M390 579v-161l-204 -100l204 -100v-161l-367 195v132z" />
    <glyph glyph-name="equal" unicode="=" horiz-adv-x="469" 
d="M446 147h-423v148h423v-148zM446 359h-423v148h423v-148z" />
    <glyph glyph-name="greater" unicode="&#x3e;" horiz-adv-x="419" 
d="M23 435v161l373 -210v-132l-373 -210v161l204 115z" />
    <glyph glyph-name="question" unicode="?" horiz-adv-x="488" 
d="M99 554l-44 122q8 5 24 13t65 21t100 13q91 0 145 -48t54 -125q0 -47 -17.5 -85t-42 -59t-49 -35.5t-42.5 -18.5l-17 -5v-123h-139v223h55q27 0 53.5 23t26.5 50q0 26 -24 44.5t-56 18.5q-18 0 -41 -7.5t-37 -14.5zM204 163q37 0 63.5 -25.5t26.5 -61.5t-26 -61t-64 -25
t-64.5 25t-26.5 61t26.5 61.5t64.5 25.5z" />
    <glyph glyph-name="at" unicode="@" horiz-adv-x="817" 
d="M346 477q33 0 60 -11.5t37 -23.5l10 -12v37h138v-155q0 -36 0.5 -56t2 -42.5t4.5 -33.5t8 -21t13 -13.5t19 -3.5q27 0 53.5 51.5t26.5 127.5q0 125 -89 202.5t-221 77.5q-128 0 -218.5 -90.5t-90.5 -218.5t90.5 -218.5t218.5 -90.5q29 0 65 9t58 18l22 9l22 -46
q-75 -41 -167 -41q-152 0 -255.5 104.5t-103.5 255.5q0 156 105.5 257.5t253.5 101.5q156 0 258 -93t102 -237q0 -108 -49.5 -173.5t-127.5 -65.5q-28 0 -65.5 16.5t-52.5 40.5q-42 -57 -124 -57q-62 0 -110.5 60t-48.5 138q0 86 42 141.5t114 55.5zM391 362
q-33 0 -51 -20.5t-18 -55.5q0 -39 18 -61.5t51 -22.5q17 0 30 6t19 14t9 16.5t3 14.5l1 6v47q0 6 -2.5 15.5t-18 25t-41.5 15.5z" />
    <glyph glyph-name="A" unicode="A" horiz-adv-x="688" 
d="M224 612h239l174 -612h-167l-39 124h-174l-39 -124h-167zM344 461l-49 -186h98z" />
    <glyph glyph-name="B" unicode="B" horiz-adv-x="616" 
d="M513 435q0 -57 -41 -106q91 -34 91 -140q0 -96 -63.5 -142.5t-174.5 -46.5h-258v612h245q89 0 145 -47t56 -130zM356 435q0 49 -61 49h-61v-98h61q61 0 61 49zM390 190q0 27 -16.5 43t-44.5 16h-95v-118h95q28 0 44.5 18t16.5 41z" />
    <glyph glyph-name="C" unicode="C" horiz-adv-x="624" 
d="M361 624q56 0 106.5 -17t73.5 -33l23 -17l-66 -140q-6 5 -16.5 12.5t-42.5 20t-63 12.5q-66 0 -103.5 -41.5t-37.5 -112.5q0 -73 37 -113.5t104 -40.5q31 0 61.5 11t45.5 23l15 11l66 -141q-9 -7 -25.5 -18t-69 -29.5t-108.5 -18.5q-38 0 -77 9t-79.5 32.5t-71 58
t-50.5 90.5t-20 126t20 126t50.5 90.5t71 58t79.5 32.5t77 9z" />
    <glyph glyph-name="D" unicode="D" horiz-adv-x="658" 
d="M596 312q0 -79 -27 -140.5t-73 -98t-101.5 -55t-116.5 -18.5h-211v612h211q318 0 318 -300zM414 312q0 140 -136 140h-44v-292h44q67 0 101.5 43t34.5 109z" />
    <glyph glyph-name="E" unicode="E" horiz-adv-x="608" 
d="M234 381h230v-141h-230v-80h294v-160h-461v612h461v-160h-294v-71z" />
    <glyph glyph-name="F" unicode="F" horiz-adv-x="585" 
d="M234 384h202v-160h-202v-224h-167v612h461v-160h-294v-68z" />
    <glyph glyph-name="G" unicode="G" horiz-adv-x="657" 
d="M417 152h19v179h166v-275q-11 -7 -30.5 -18t-77.5 -29.5t-114 -18.5q-60 0 -115 18.5t-101 55t-73.5 99t-27.5 143.5q0 148 94 232t222 84q69 0 125 -17t77 -33l21 -17l-65 -140q-6 5 -16.5 12.5t-42.5 20t-63 12.5q-69 0 -119 -43t-50 -111q0 -77 41 -115.5t130 -38.5z
" />
    <glyph glyph-name="H" unicode="H" horiz-adv-x="653" 
d="M234 406h185v206h167v-612h-167v246h-185v-246h-167v612h167v-206z" />
    <glyph glyph-name="I" unicode="I" horiz-adv-x="327" 
d="M247 612v-612h-167v612h167z" />
    <glyph glyph-name="J" unicode="J" horiz-adv-x="489" 
d="M197 160q34 0 46 24.5t12 67.5v360h167v-306q0 -59 -4.5 -103.5t-17 -86t-34 -68t-57 -42.5t-84.5 -16q-35 0 -67 7t-53.5 16.5t-37.5 19.5t-23 17l-7 7l69 140q45 -37 91 -37z" />
    <glyph glyph-name="K" unicode="K" horiz-adv-x="615" 
d="M578 612l-197 -269l221 -343h-199l-175 278v-278h-167v612h167v-199l159 199h191z" />
    <glyph glyph-name="L" unicode="L" horiz-adv-x="491" 
d="M247 160h174v-160h-341v612h167v-452z" />
    <glyph glyph-name="M" unicode="M" horiz-adv-x="790" 
d="M395 410l177 202h151v-612h-167v376l-161 -195l-161 191v-372h-167v612h151z" />
    <glyph glyph-name="N" unicode="N" horiz-adv-x="653" 
d="M234 612l185 -313v313h167v-612h-167l-185 302v-302h-167v612h167z" />
    <glyph glyph-name="O" unicode="O" horiz-adv-x="720" 
d="M361 622q49 0 97 -15.5t94.5 -49.5t75.5 -99t29 -152t-28 -151.5t-74 -98.5t-94.5 -50t-99.5 -16q-40 0 -79 9t-79.5 32t-70.5 58t-49.5 91t-19.5 126t20 126t50.5 90.5t71 58t79.5 32.5t77 9zM361 474q-61 0 -88 -49t-27 -119q0 -81 29 -126t86 -45q113 0 113 171
q0 70 -26 119t-87 49z" />
    <glyph glyph-name="P" unicode="P" horiz-adv-x="612" 
d="M550 392q0 -89 -60 -154t-141 -65h-115v-173h-167v612h282q86 0 143.5 -64.5t57.5 -155.5zM390 392q0 26 -18 43t-43 17h-95v-119h95q29 0 45 16t16 43z" />
    <glyph glyph-name="Q" unicode="Q" horiz-adv-x="720" 
d="M361 620q49 0 97 -15.5t94.5 -49.5t75.5 -99t29 -152q0 -200 -144 -278l135 -147h-210l-99 110q-49 3 -94.5 21t-88 53t-68 97t-25.5 144q0 70 20 126t50.5 90.5t71 58t79.5 32.5t77 9zM361 472q-61 0 -88 -49t-27 -119q0 -81 29 -126t86 -45q113 0 113 171q0 70 -26 119
t-87 49z" />
    <glyph glyph-name="R" unicode="R" horiz-adv-x="625" 
d="M550 413q0 -111 -91 -167l136 -246h-194l-106 216h-61v-216h-167v612h282q88 0 144.5 -55t56.5 -144zM387 413q0 26 -18 42.5t-43 16.5h-92v-119h92q29 0 45 16.5t16 43.5z" />
    <glyph glyph-name="S" unicode="S" horiz-adv-x="623" 
d="M559 211q0 -99 -74 -160t-170 -61q-68 0 -127 15.5t-84 31.5l-26 16l65 149q109 -55 155 -55q38 0 59.5 12.5t21.5 35.5q0 18 -26.5 31.5t-64 25.5t-75 29.5t-64 55.5t-26.5 92q0 87 57.5 139.5t171.5 52.5q65 0 115.5 -15.5t68.5 -31.5l19 -15l-53 -123q0 1 -17 10
t-49.5 19t-63.5 10q-33 0 -54.5 -12t-21.5 -33t27 -34t66 -23.5t77.5 -26t65.5 -50t27 -85.5z" />
    <glyph glyph-name="T" unicode="T" horiz-adv-x="655" 
d="M244 457h-174v155h515v-155h-174v-457h-167v457z" />
    <glyph glyph-name="U" unicode="U" horiz-adv-x="643" 
d="M322 -10q-129 0 -190 72.5t-61 189.5v360h163v-360q0 -50 24 -77t64 -27t63.5 27t23.5 77v360h163v-360q0 -116 -62.5 -189t-187.5 -73z" />
    <glyph glyph-name="V" unicode="V" horiz-adv-x="690" 
d="M452 612h187l-196 -612h-195l-197 612h187l108 -360z" />
    <glyph glyph-name="W" unicode="W" horiz-adv-x="1111" 
d="M876 612h184l-196 -612h-195l-114 324l-112 -324h-195l-197 612h184l111 -352l120 345h179l122 -345z" />
    <glyph glyph-name="X" unicode="X" horiz-adv-x="690" 
d="M458 612h167l-164 -296l178 -316h-167l-127 192l-127 -192h-167l177 316l-163 296h167l113 -192z" />
    <glyph glyph-name="Y" unicode="Y" horiz-adv-x="690" 
d="M472 612h167l-211 -363v-249h-167v249l-210 363h167l127 -216z" />
    <glyph glyph-name="Z" unicode="Z" horiz-adv-x="637" 
d="M570 612v-155l-277 -303h277v-154h-503v154l284 303h-269v155h488z" />
    <glyph glyph-name="bracketleft" unicode="[" horiz-adv-x="368" 
d="M54 828h260v-149h-93v-699h93v-149h-260v997z" />
    <glyph glyph-name="backslash" unicode="\" horiz-adv-x="454" 
d="M275 -66l-263 758h167l263 -758h-167z" />
    <glyph glyph-name="bracketright" unicode="]" horiz-adv-x="368" 
d="M54 784h260v-997h-260v149h93v699h-93v149z" />
    <glyph glyph-name="asciicircum" unicode="^" horiz-adv-x="418" 
d="M23 334l100 331h172l100 -331h-138l-48 208l-49 -208h-137z" />
    <glyph glyph-name="underscore" unicode="_" horiz-adv-x="665" 
d="M642 -29v-149h-619v149h619z" />
    <glyph glyph-name="grave" unicode="`" horiz-adv-x="268" 
d="M114 620l-74 126h154l47 -126h-127z" />
    <glyph glyph-name="a" unicode="a" 
d="M232 346q50 0 104 -26q-11 75 -89 75q-62 0 -125 -47l-51 111q37 37 88.5 58t103.5 21q94 0 160 -66t66 -195q0 -103 12 -135.5t50 -32.5l-55 -119q-98 0 -137 54q-48 -54 -132 -54q-80 0 -129 48.5t-49 132.5q0 79 57 127t126 48zM265 231q-20 0 -41.5 -17.5
t-21.5 -43.5q0 -25 18.5 -38.5t44.5 -13.5q51 0 73 27v63q-20 23 -73 23z" />
    <glyph glyph-name="b" unicode="b" horiz-adv-x="596" 
d="M547 261q0 -119 -68.5 -195t-154.5 -76q-41 0 -69.5 13.5t-36.5 26.5l-9 14v-44h-154v700h154v-207q11 19 50 32t69 13q95 0 157 -80t62 -197zM381 263q0 57 -32 92t-76 35q-42 0 -64 -36v-172q26 -36 64 -36q41 0 74.5 28.5t33.5 88.5z" />
    <glyph glyph-name="c" unicode="c" horiz-adv-x="564" 
d="M49 265q0 70 24.5 124.5t64.5 85.5t85.5 46.5t93.5 15.5q35 0 67.5 -8.5t53.5 -21t37 -24.5t23 -21l7 -8l-53 -109q-4 5 -11.5 12t-34.5 19t-59 12q-40 0 -71 -17.5t-47 -45.5t-16 -60q0 -48 34.5 -83t90.5 -35q31 0 59.5 11.5t41.5 23.5l13 11l53 -111q-3 -4 -9 -10
t-26 -22t-41.5 -28t-54.5 -22t-66 -10q-43 0 -86.5 15.5t-83 47t-64.5 86.5t-25 126z" />
    <glyph glyph-name="d" unicode="d" horiz-adv-x="596" 
d="M49 261q0 129 62 203.5t176 74.5q26 0 57 -12t43 -32v205h154v-700h-154v44q-1 -2 -3 -5.5t-11 -13t-20.5 -16.5t-33 -13t-47.5 -6q-86 0 -154.5 76t-68.5 195zM229 263q0 -59 25.5 -92.5t69.5 -33.5q17 0 32.5 9t23.5 18l7 9v171q-19 36 -63 36q-42 0 -68.5 -34
t-26.5 -83z" />
    <glyph glyph-name="e" unicode="e" 
d="M299 537q96 0 160 -63t64 -166l-1 -82h-303q0 -48 32 -72t77 -24q37 0 70.5 16t48.5 32l15 17l58 -119q-2 -3 -7 -9t-22.5 -21t-38 -26t-55 -20.5t-72.5 -9.5q-120 0 -194.5 79.5t-74.5 194.5q0 125 70 199t173 74zM300 407q-30 0 -52 -20.5t-22 -44.5h151
q0 30 -24.5 47.5t-52.5 17.5z" />
    <glyph glyph-name="f" unicode="f" horiz-adv-x="521" 
d="M331 723q41 0 75 -10t48 -20l14 -10l-48 -101q-37 20 -83 4.5t-46 -59.5h145v-137h-146v-390h-154v390h-81v137h81q0 84 56.5 140t138.5 56z" />
    <glyph glyph-name="g" unicode="g" horiz-adv-x="589" 
d="M49 291q0 105 60 176t168 71q33 0 58 -12t34.5 -24.5t10.5 -19.5v45h154v-389q0 -59 -13 -114.5t-40.5 -105t-77.5 -79.5t-116 -30q-57 0 -106.5 13.5t-70.5 26.5l-21 13l63 132q56 -29 119 -29q41 0 75 24t34 80q-34 -34 -103 -34q-58 0 -103.5 23t-72 61t-39.5 81.5
t-13 90.5zM220 291q0 -41 23 -70t55 -29q29 0 49.5 9t26.5 19l6 9v113q0 2 -1 5t-5.5 11.5t-12 15t-23 11.5t-35.5 5q-36 0 -59.5 -29.5t-23.5 -69.5z" />
    <glyph glyph-name="h" unicode="h" horiz-adv-x="571" 
d="M346 538q82 0 119.5 -56t37.5 -140v-342h-158v279q0 73 -59 73q-62 0 -62 -73v-279h-159v700h159v-241q12 34 49 56.5t73 22.5z" />
    <glyph glyph-name="i" unicode="i" horiz-adv-x="291" 
d="M224 527v-527h-158v527h158zM236 677q0 -36 -26.5 -61.5t-64.5 -25.5q-37 0 -63.5 25.5t-26.5 61.5t26 61t64 25t64.5 -25t26.5 -61z" />
    <glyph glyph-name="j" unicode="j" horiz-adv-x="378" 
d="M330 678q0 -36 -26.5 -61.5t-64.5 -25.5q-37 0 -63.5 25.5t-26.5 61.5t26 61t64 25t64.5 -25t26.5 -61zM317 106q0 -146 -56 -221.5t-162 -75.5q-34 0 -66 7.5t-47 15.5l-14 7l58 120q22 -12 47 -12q78 0 78 159v421h162v-421z" />
    <glyph glyph-name="k" unicode="k" horiz-adv-x="590" 
d="M514 527l-185 -224l225 -303h-190l-154 206v-206h-155v700h155v-318l113 145h191z" />
    <glyph glyph-name="l" unicode="l" horiz-adv-x="381" 
d="M55 222v478h163v-474q0 -52 7.5 -71.5t27.5 -19.5q10 0 20 3.5t15 7.5l6 4l56 -121q-56 -39 -137 -39q-83 0 -120.5 56t-37.5 176z" />
    <glyph glyph-name="m" unicode="m" horiz-adv-x="836" 
d="M336 538q105 0 139 -90q29 90 141 90q81 0 119 -58.5t38 -137.5v-342h-158v279q0 73 -58 73q-63 0 -63 -73v-279h-159v279q0 73 -59 73q-62 0 -62 -73v-279h-159v527h159v-68q12 34 49 56.5t73 22.5z" />
    <glyph glyph-name="n" unicode="n" horiz-adv-x="556" 
d="M336 538q83 0 120 -53.5t37 -142.5v-342h-158v279q0 73 -59 73q-62 0 -62 -73v-279h-159v527h159v-68q12 34 49 56.5t73 22.5z" />
    <glyph glyph-name="o" unicode="o" horiz-adv-x="616" 
d="M309 530q43 0 86.5 -15.5t83 -47t64 -86.5t24.5 -125t-24 -125t-63 -86.5t-83 -47t-88 -15.5t-88 15.5t-83.5 47t-64 86.5t-24.5 125t25 125t65 86.5t83.5 47t86.5 15.5zM309 390q-45 0 -66 -39.5t-21 -94.5q0 -64 22 -100.5t65 -36.5q85 0 85 137q0 134 -85 134z" />
    <glyph glyph-name="p" unicode="p" horiz-adv-x="596" 
d="M324 538q86 0 154.5 -76.5t68.5 -195.5t-59.5 -197.5t-159.5 -78.5q-39 0 -72 13.5t-47 40.5v-225h-154v708h154v-44q3 6 9 15t35.5 24.5t70.5 15.5zM273 385q-17 0 -33 -9.5t-24 -18.5l-7 -9v-176q21 -37 64 -37q44 0 74.5 35.5t30.5 93.5q0 61 -32.5 91t-72.5 30z" />
    <glyph glyph-name="q" unicode="q" horiz-adv-x="596" 
d="M264 537q41 0 71.5 -13.5t40.5 -27.5l11 -13v44h154v-708h-154v225q-14 -27 -47 -40.5t-72 -13.5q-100 0 -159.5 78.5t-59.5 197.5q0 123 61.5 197t153.5 74zM324 380q-41 0 -70.5 -26.5t-29.5 -89.5q0 -49 28.5 -81.5t71.5 -32.5q44 0 63 37v156q-25 37 -63 37z" />
    <glyph glyph-name="r" unicode="r" horiz-adv-x="449" 
d="M294 359q-80 0 -80 -97v-262h-159v527h159v-68q12 34 49 56t73 22q32 0 55 -5.5t30 -11.5l7 -5l-80 -170q-18 14 -54 14z" />
    <glyph glyph-name="s" unicode="s" horiz-adv-x="517" 
d="M468 170q0 -85 -63 -132.5t-148 -47.5q-58 0 -110 13t-75 26l-23 13l61 138q60 -44 117 -44q22 0 37 9.5t15 26.5q0 12 -14 21t-35 14.5t-45 17t-45 26t-35 43.5t-14 69q0 77 50.5 126t147.5 49q56 0 99.5 -14.5t59.5 -29.5l15 -14l-47 -110q0 1 -10 7.5t-33 13.5t-50 7
q-52 0 -52 -28q0 -18 20.5 -30.5t49.5 -23t57.5 -25.5t49 -46t20.5 -75z" />
    <glyph glyph-name="t" unicode="t" horiz-adv-x="532" 
d="M153 169v221h-81v137h81v128h154v-128h146v-137h-146v-164q0 -55 6 -72.5t30 -17.5q7 0 17 4.5t16 9.5l6 4l52 -119q-33 -23 -60.5 -34t-66.5 -11q-154 0 -154 179z" />
    <glyph glyph-name="u" unicode="u" horiz-adv-x="557" 
d="M221 -11q-83 0 -120.5 59.5t-37.5 156.5v322h159v-292q0 -73 59 -73q63 0 63 73v292h158v-527h-158v68q-12 -34 -49.5 -56.5t-73.5 -22.5z" />
    <glyph glyph-name="v" unicode="v" horiz-adv-x="584" 
d="M361 527h166l-159 -527h-158l-153 527h159l73 -299z" />
    <glyph glyph-name="w" unicode="w" horiz-adv-x="908" 
d="M677 527h170l-159 -527h-158l-78 304l-80 -304h-158l-153 527h164l68 -299l72 299h171l73 -299z" />
    <glyph glyph-name="x" unicode="x" horiz-adv-x="562" 
d="M351 527h161l-137 -248l151 -279h-164l-78 139l-77 -139h-171l158 279l-132 248h154l68 -125z" />
    <glyph glyph-name="y" unicode="y" 
d="M170 -191q-26 0 -55 8.5t-45 16.5l-17 9l53 124q23 -13 53 -13q37 0 53 90l-163 483h170l74 -279l72 279h165q-114 -359 -151 -477q-76 -241 -209 -241z" />
    <glyph glyph-name="z" unicode="z" horiz-adv-x="512" 
d="M452 526v-132l-209 -257h214v-137h-402v137l211 256h-193v133h379z" />
    <glyph glyph-name="braceleft" unicode="{" horiz-adv-x="474" 
d="M330 826h99v-149h-23q-32 0 -51 -19.5t-19 -50.5v-215l-82 -64l82 -65v-215q0 -32 19 -51t51 -19h23v-149h-99q-73 0 -117 44t-44 117v235l-124 103l124 104v233q0 73 44 117t117 44z" />
    <glyph glyph-name="bar" unicode="|" horiz-adv-x="209" 
d="M188 839v-1008h-167v1008h167z" />
    <glyph glyph-name="braceright" unicode="}" horiz-adv-x="474" 
d="M144 827q73 0 117 -44t44 -117v-233l124 -104l-124 -103v-235q0 -73 -44 -117t-117 -44h-99v149h23q32 0 51 19.5t19 50.5v215l82 65l-82 64v215q0 32 -19 51t-51 19h-23v149h99z" />
    <glyph glyph-name="asciitilde" unicode="~" horiz-adv-x="577" 
d="M218 293q22 0 55 -13.5t47 -13.5q16 0 31 8.5t21 21.5l106 -58q-23 -41 -58 -69t-73 -28q-22 0 -57 15t-50 15q-17 0 -33.5 -10.5t-23.5 -24.5l-97 54q52 103 132 103z" />
    <glyph glyph-name="exclamdown" unicode="&#xa1;" horiz-adv-x="360" 
d="M180 449q-37 0 -63.5 25.5t-26.5 61.5t26 61t64 25t64.5 -25t26.5 -61t-26.5 -61.5t-64.5 -25.5zM246 389l56 -502h-244l56 502h132z" />
    <glyph glyph-name="cent" unicode="&#xa2;" horiz-adv-x="574" 
d="M39 300q0 75 22 134t59 94.5t78 55.5t87 28v77h95v-75q44 -6 84 -22t58 -30l18 -13l-66 -140q-6 5 -16.5 12.5t-42.5 20t-63 12.5q-66 0 -103.5 -41.5t-37.5 -112.5q0 -73 37 -113.5t104 -40.5q31 0 61.5 11t45.5 23l15 11l66 -141q-7 -6 -19.5 -14.5t-54.5 -26
t-86 -22.5v-86h-95v88q-46 8 -87 28t-78 55.5t-59 94t-22 133.5z" />
    <glyph glyph-name="sterling" unicode="&#xa3;" horiz-adv-x="595" 
d="M355 501q-22 0 -38 -9.5t-23.5 -21.5t-11.5 -34t-4.5 -35t-0.5 -37h92v-92h-92q0 -37 -16.5 -82.5t-32.5 -58.5h196v-127h-373v127h14q33 0 54.5 44t21.5 97h-73v92h74q-6 109 40.5 184t151.5 75q29 0 55 -6t43 -14.5t30 -17.5t19 -15l6 -6l-43 -91q-43 28 -89 28z" />
    <glyph glyph-name="currency" unicode="&#xa4;" horiz-adv-x="644" 
d="M499 242q0 -46 -11 -73l81 -81l-108 -106l-71 71q-42 -19 -85 -19q-37 0 -82 17l-70 -69l-108 106l76 74q-12 32 -12 80q0 43 12 79l-76 75l108 109l73 -74q42 17 79 17q42 0 81 -19l75 76l108 -109l-81 -80q11 -30 11 -74zM305 151q33 0 59 22.5t26 68.5q0 44 -27 67
t-58 23q-32 0 -60 -23t-28 -67q0 -46 27 -68.5t61 -22.5z" />
    <glyph glyph-name="yen" unicode="&#xa5;" horiz-adv-x="697" 
d="M654 612l-188 -323h109v-90h-132v-33h132v-90h-132v-76h-167v76h-131v90h131v33h-131v90h108l-187 323h167l127 -205l127 205h167z" />
    <glyph glyph-name="brokenbar" unicode="&#xa6;" horiz-adv-x="378" 
d="M277 207v-386h-167v386h167zM277 662v-386h-167v386h167z" />
    <glyph glyph-name="section" unicode="&#xa7;" horiz-adv-x="645" 
d="M596 277q0 -103 -82 -167q16 -30 16 -70q0 -99 -74 -160t-170 -61q-68 0 -127 15.5t-85 31.5l-25 16l65 149q109 -55 155 -55q38 0 59.5 12.5t21.5 35.5q0 18 -29 33q-13 6 -55.5 19.5t-78 31.5t-57.5 45q-36 43 -36 105q0 109 85 159q-19 33 -19 78q0 87 57.5 139.5
t171.5 52.5q65 0 115.5 -15.5t69.5 -31.5l18 -15l-53 -123q0 1 -17 10t-49.5 19t-63.5 10q-33 0 -54.5 -12t-21.5 -33q0 -8 3 -14t10 -11.5t14 -9t19.5 -8t21.5 -7.5t25.5 -7.5t25.5 -7.5q66 -21 105 -54.5t39 -99.5zM416 261q0 19 -20.5 31t-52.5 12q-33 0 -54.5 -12
t-21.5 -33q0 -20 21 -33t47 -13q38 0 59.5 12.5t21.5 35.5z" />
    <glyph glyph-name="dieresis" unicode="&#xa8;" horiz-adv-x="431" 
d="M320 605q-29 0 -49.5 20.5t-20.5 50.5q0 29 20.5 49.5t49.5 20.5t50 -20.5t21 -49.5q0 -30 -21 -50.5t-50 -20.5zM132 605q-29 0 -49.5 20.5t-20.5 50.5q0 29 20.5 49.5t49.5 20.5t50 -20.5t21 -49.5q0 -30 -21 -50.5t-50 -20.5z" />
    <glyph glyph-name="copyright" unicode="&#xa9;" horiz-adv-x="929" 
d="M464 -36q-67 0 -128 26q-92 39 -147 122t-55 182q0 136 96.5 233t233.5 97q136 0 233 -96.5t97 -233.5t-97 -233.5t-233 -96.5zM464 592q-123 0 -210.5 -87t-87.5 -211q0 -123 87.5 -210.5t210.5 -87.5t210.5 87.5t87.5 210.5q0 124 -87.5 211t-210.5 87zM478 491
q40 0 74 -15t48 -30l13 -15l-38 -78q-24 31 -76 31q-43 0 -69.5 -27t-26.5 -62q0 -34 25 -59.5t65 -25.5q22 0 42.5 8t30.5 16l9 9l38 -80q-2 -3 -6.5 -7.5t-18.5 -15.5t-29.5 -20t-39.5 -16t-48 -7q-31 0 -62 11.5t-59.5 33.5t-46.5 62t-18 91q0 97 59 146.5t134 49.5z" />
    <glyph glyph-name="ordfeminine" unicode="&#xaa;" horiz-adv-x="370" 
d="M147 505q34 0 56 -11q-9 31 -50 31q-33 0 -73 -31l-33 75q50 50 123 50q55 0 94.5 -40.5t39.5 -118.5q0 -58 7.5 -76t33.5 -18l-38 -79q-59 0 -84 28q-27 -28 -76 -28q-51 0 -81.5 29.5t-30.5 81.5q0 48 35 77.5t77 29.5zM168 428q-11 0 -22 -9t-11 -23q0 -24 33 -24
q28 0 38 11v34q-11 11 -38 11z" />
    <glyph glyph-name="guillemotleft" unicode="&#xab;" horiz-adv-x="564" 
d="M298 435l-106 -209l106 -209h-166l-109 209l109 209h166zM541 435l-106 -209l106 -209h-166l-109 209l109 209h166z" />
    <glyph glyph-name="logicalnot" unicode="&#xac;" horiz-adv-x="611" 
d="M540 506v-290h-167v141h-256v149h423z" />
    <glyph glyph-name="uni00AD" unicode="&#xad;" horiz-adv-x="513" 
d="M468 200h-423v149h423v-149z" />
    <glyph glyph-name="registered" unicode="&#xae;" horiz-adv-x="929" 
d="M467 -36q-67 0 -128 26q-92 39 -147 122t-55 182q0 136 96.5 233t233.5 97q136 0 233 -96.5t97 -233.5t-97 -233.5t-233 -96.5zM467 594q-124 0 -212.5 -88t-88.5 -212t88 -212.5t213 -88.5t213 88.5t88 212.5t-88.5 212t-212.5 88zM599 354q0 -56 -45 -87l71 -128h-109
l-54 110h-25v-110h-93v321h148q47 0 77 -30t30 -76zM507 354q0 12 -8 19t-19 7h-43v-53h43q27 0 27 27z" />
    <glyph glyph-name="macron" unicode="&#xaf;" horiz-adv-x="833" 
d="M655 647h-423v98h423v-98z" />
    <glyph glyph-name="macron" unicode="&#x2c9;" horiz-adv-x="833" 
d="M655 647h-423v98h423v-98z" />
    <glyph glyph-name="degree" unicode="&#xb0;" horiz-adv-x="430" 
d="M216 635q54 0 92 -37t38 -91q0 -56 -38 -93.5t-92 -37.5q-55 0 -93 37.5t-38 93.5q0 54 38 91t93 37zM215 453q23 0 39 15.5t16 38.5q0 22 -16 38t-39 16q-21 0 -36.5 -16t-15.5 -38q0 -23 15.5 -38.5t36.5 -15.5z" />
    <glyph glyph-name="plusminus" unicode="&#xb1;" horiz-adv-x="472" 
d="M449 488v-149h-128v-137h-167v137h-128v149h128v137h167v-137h128zM446 8h-423v149h423v-149z" />
    <glyph glyph-name="twosuperior" unicode="&#xb2;" horiz-adv-x="280" 
d="M259 387v-92h-238v43q0 24 20 48.5t44.5 41t44.5 35.5t20 34q0 33 -38 33q-12 0 -26.5 -5.5t-22.5 -10.5l-8 -6l-32 65q5 5 14 12.5t39 20.5t61 13q46 0 79 -27t33 -72q0 -69 -91 -133h101z" />
    <glyph glyph-name="threesuperior" unicode="&#xb3;" horiz-adv-x="280" 
d="M156 399q0 11 -14 14t-54 3h-26v72l46 37h-72v87h202v-82l-39 -34q28 -12 44 -39t16 -58q0 -52 -38.5 -80.5t-92.5 -28.5q-58 0 -104 32l-3 2l28 74q42 -17 63 -17q44 0 44 18z" />
    <glyph glyph-name="acute" unicode="&#xb4;" horiz-adv-x="363" 
d="M294 745l-74 -126h-127l47 126h154z" />
    <glyph glyph-name="paragraph" unicode="&#xb6;" horiz-adv-x="584" 
d="M512 632v-96h-70v-612h-101v612h-61v-612h-100v429q-58 0 -99 40.5t-41 98.5t41 99t99 41h332z" />
    <glyph glyph-name="cedilla" unicode="&#xb8;" horiz-adv-x="833" 
d="M262 -118l95 181h98l-52 -193z" />
    <glyph glyph-name="onesuperior" unicode="&#xb9;" horiz-adv-x="205" 
d="M184 612v-317h-102v215l-48 -16l-16 85l83 33h83z" />
    <glyph glyph-name="ordmasculine" unicode="&#xba;" horiz-adv-x="372" 
d="M192 621q60 0 109.5 -43t49.5 -126t-49 -125.5t-110 -42.5q-60 0 -109.5 42.5t-49.5 125.5t50 126t109 43zM192 523q-24 0 -35 -21t-11 -50q0 -72 46 -72t46 72q0 71 -46 71z" />
    <glyph glyph-name="guillemotright" unicode="&#xbb;" horiz-adv-x="564" 
d="M372 226l-106 209h166l109 -209l-109 -209h-166zM129 226l-106 209h166l109 -209l-109 -209h-166z" />
    <glyph glyph-name="questiondown" unicode="&#xbf;" horiz-adv-x="495" 
d="M256 -113q-91 0 -145 48t-54 126q0 47 17.5 85t42 59t49 35.5t42.5 19.5l17 4v123h139v-223h-55q-27 0 -53.5 -23t-26.5 -50q0 -26 24 -44.5t56 -18.5q18 0 41 7t37 15l14 7l44 -122q-8 -5 -24 -13t-65 -21.5t-100 -13.5zM296 448q-37 0 -63.5 25.5t-26.5 61.5t26 61
t64 25t64.5 -25t26.5 -61t-26.5 -61.5t-64.5 -25.5z" />
    <glyph glyph-name="Agrave" unicode="&#xc0;" horiz-adv-x="688" 
d="M224 612h239l174 -612h-167l-39 124h-174l-39 -124h-167zM344 461l-49 -186h98zM294 705l-74 126h154l47 -126h-127z" />
    <glyph glyph-name="Aacute" unicode="&#xc1;" horiz-adv-x="688" 
d="M224 612h239l174 -612h-167l-39 124h-174l-39 -124h-167zM344 461l-49 -186h98zM444 830l-74 -126h-127l47 126h154z" />
    <glyph glyph-name="Acircumflex" unicode="&#xc2;" horiz-adv-x="688" 
d="M224 612h239l174 -612h-167l-39 124h-174l-39 -124h-167zM344 461l-49 -186h98zM475 697h-98l-33 58l-31 -58h-100l59 134h144z" />
    <glyph glyph-name="Atilde" unicode="&#xc3;" horiz-adv-x="688" 
d="M224 612h239l174 -612h-167l-39 124h-174l-39 -124h-167zM344 461l-49 -186h98zM253 703l-97 64q13 36 49 62t83 26q20 0 57.5 -13t56.5 -13q38 0 51 27l106 -54q-13 -37 -41.5 -65.5t-65.5 -28.5q-34 0 -75 15.5t-57 15.5q-45 0 -67 -36z" />
    <glyph glyph-name="Adieresis" unicode="&#xc4;" horiz-adv-x="688" 
d="M224 612h239l174 -612h-167l-39 124h-174l-39 -124h-167zM344 461l-49 -186h98zM437 690q-29 0 -49.5 20.5t-20.5 50.5q0 29 20.5 49.5t49.5 20.5t50 -20.5t21 -49.5q0 -30 -21 -50.5t-50 -20.5zM249 690q-29 0 -49.5 20.5t-20.5 50.5q0 29 20.5 49.5t49.5 20.5t50 -20.5
t21 -49.5q0 -30 -21 -50.5t-50 -20.5z" />
    <glyph glyph-name="Aring" unicode="&#xc5;" horiz-adv-x="688" 
d="M224 612h239l174 -612h-167l-39 124h-174l-39 -124h-167zM344 461l-49 -186h98zM344 831q36 0 61.5 -25t25.5 -61q0 -37 -25.5 -62.5t-61.5 -25.5q-37 0 -62.5 25.5t-25.5 62.5q0 36 25.5 61t62.5 25zM343 780q-14 0 -24 -10.5t-10 -24.5q0 -15 10 -25t24 -10
q15 0 25.5 10t10.5 25q0 14 -11 24.5t-25 10.5z" />
    <glyph glyph-name="AE" unicode="&#xc6;" horiz-adv-x="885" 
d="M805 452h-294v-68h230v-141h-230v-83h294v-160h-461v124h-87l-39 -124h-167l193 612h561v-160zM295 275h49v186z" />
    <glyph glyph-name="Ccedilla" unicode="&#xc7;" horiz-adv-x="624" 
d="M45 308q0 70 20 126t50.5 90.5t71 58t79.5 32.5t77 9q56 0 106.5 -17t73.5 -33l23 -17l-66 -140q-6 5 -16.5 12.5t-42.5 20t-63 12.5q-66 0 -103.5 -41.5t-37.5 -112.5q0 -73 37 -113.5t104 -40.5q31 0 61.5 11t45.5 23l15 11l66 -141q-7 -6 -21 -15.5t-59.5 -27.5
t-93.5 -22l-33 -123l-141 12l64 121q-43 11 -79.5 33t-68.5 57.5t-50.5 90.5t-18.5 124z" />
    <glyph glyph-name="Egrave" unicode="&#xc8;" horiz-adv-x="608" 
d="M234 381h230v-141h-230v-80h294v-160h-461v612h461v-160h-294v-71zM277 705l-74 126h154l47 -126h-127z" />
    <glyph glyph-name="Eacute" unicode="&#xc9;" horiz-adv-x="608" 
d="M234 381h230v-141h-230v-80h294v-160h-461v612h461v-160h-294v-71zM404 830l-74 -126h-127l47 126h154z" />
    <glyph glyph-name="Ecircumflex" unicode="&#xca;" horiz-adv-x="608" 
d="M234 381h230v-141h-230v-80h294v-160h-461v612h461v-160h-294v-71zM435 697h-98l-33 58l-31 -58h-100l59 134h144z" />
    <glyph glyph-name="Edieresis" unicode="&#xcb;" horiz-adv-x="608" 
d="M234 381h230v-141h-230v-80h294v-160h-461v612h461v-160h-294v-71zM397 690q-29 0 -49.5 20.5t-20.5 50.5q0 29 20.5 49.5t49.5 20.5t50 -20.5t21 -49.5q0 -30 -21 -50.5t-50 -20.5zM209 690q-29 0 -49.5 20.5t-20.5 50.5q0 29 20.5 49.5t49.5 20.5t50 -20.5t21 -49.5
q0 -30 -21 -50.5t-50 -20.5z" />
    <glyph glyph-name="Igrave" unicode="&#xcc;" horiz-adv-x="313" 
d="M240 612v-612h-167v612h167zM105 705l-74 126h154l47 -126h-127z" />
    <glyph glyph-name="Iacute" unicode="&#xcd;" horiz-adv-x="313" 
d="M240 612v-612h-167v612h167zM287 830l-74 -126h-127l47 126h154z" />
    <glyph glyph-name="Icircumflex" unicode="&#xce;" horiz-adv-x="313" 
d="M240 612v-612h-167v612h167zM288 697h-98l-33 58l-31 -58h-100l59 134h144z" />
    <glyph glyph-name="Idieresis" unicode="&#xcf;" horiz-adv-x="313" 
d="M240 612v-612h-167v612h167zM250 690q-29 0 -49.5 20.5t-20.5 50.5q0 29 20.5 49.5t49.5 20.5t50 -20.5t21 -49.5q0 -30 -21 -50.5t-50 -20.5zM62 690q-29 0 -49.5 20.5t-20.5 50.5q0 29 20.5 49.5t49.5 20.5t50 -20.5t21 -49.5q0 -30 -21 -50.5t-50 -20.5z" />
    <glyph glyph-name="Eth" unicode="&#xd0;" horiz-adv-x="777" 
d="M397 612q148 0 233 -77t85 -223q0 -97 -47 -169.5t-118.5 -107.5t-152.5 -35h-258v252h-74v120h74v240h258zM397 452h-91v-80h78v-120h-78v-92h91q67 0 101.5 43t34.5 109q0 140 -136 140z" />
    <glyph glyph-name="Ntilde" unicode="&#xd1;" horiz-adv-x="653" 
d="M586 612v-612h-167l-185 302v-302h-167v612h167l185 -313v313h167zM221 703l-97 64q13 36 49 62t83 26q20 0 57 -13t57 -13q38 0 51 27l106 -54q-13 -37 -41.5 -65.5t-65.5 -28.5q-34 0 -75 15.5t-57 15.5q-45 0 -67 -36z" />
    <glyph glyph-name="Ograve" unicode="&#xd2;" horiz-adv-x="720" 
d="M361 622q49 0 97 -15.5t94.5 -49.5t75.5 -99t29 -152t-28 -151.5t-74 -98.5t-94.5 -50t-99.5 -16q-40 0 -79 9t-79.5 32t-70.5 58t-49.5 91t-19.5 126t20 126t50.5 90.5t71 58t79.5 32.5t77 9zM361 474q-61 0 -88 -49t-27 -119q0 -81 29 -126t86 -45q113 0 113 171
q0 70 -26 119t-87 49zM333 705l-74 126h154l47 -126h-127z" />
    <glyph glyph-name="Oacute" unicode="&#xd3;" horiz-adv-x="720" 
d="M361 622q49 0 97 -15.5t94.5 -49.5t75.5 -99t29 -152t-28 -151.5t-74 -98.5t-94.5 -50t-99.5 -16q-40 0 -79 9t-79.5 32t-70.5 58t-49.5 91t-19.5 126t20 126t50.5 90.5t71 58t79.5 32.5t77 9zM361 474q-61 0 -88 -49t-27 -119q0 -81 29 -126t86 -45q113 0 113 171
q0 70 -26 119t-87 49zM460 830l-74 -126h-127l47 126h154z" />
    <glyph glyph-name="Ocircumflex" unicode="&#xd4;" horiz-adv-x="720" 
d="M361 622q49 0 97 -15.5t94.5 -49.5t75.5 -99t29 -152t-28 -151.5t-74 -98.5t-94.5 -50t-99.5 -16q-40 0 -79 9t-79.5 32t-70.5 58t-49.5 91t-19.5 126t20 126t50.5 90.5t71 58t79.5 32.5t77 9zM361 474q-61 0 -88 -49t-27 -119q0 -81 29 -126t86 -45q113 0 113 171
q0 70 -26 119t-87 49zM491 697h-98l-33 58l-31 -58h-100l59 134h144z" />
    <glyph glyph-name="Otilde" unicode="&#xd5;" horiz-adv-x="720" 
d="M361 622q49 0 97 -15.5t94.5 -49.5t75.5 -99t29 -152t-28 -151.5t-74 -98.5t-94.5 -50t-99.5 -16q-40 0 -79 9t-79.5 32t-70.5 58t-49.5 91t-19.5 126t20 126t50.5 90.5t71 58t79.5 32.5t77 9zM361 474q-61 0 -88 -49t-27 -119q0 -81 29 -126t86 -45q113 0 113 171
q0 70 -26 119t-87 49zM269 703l-97 64q13 36 49 62t83 26q20 0 57 -13t57 -13q38 0 51 27l106 -54q-13 -37 -41.5 -65.5t-65.5 -28.5q-34 0 -75 15.5t-57 15.5q-45 0 -67 -36z" />
    <glyph glyph-name="Odieresis" unicode="&#xd6;" horiz-adv-x="720" 
d="M361 622q49 0 97 -15.5t94.5 -49.5t75.5 -99t29 -152t-28 -151.5t-74 -98.5t-94.5 -50t-99.5 -16q-40 0 -79 9t-79.5 32t-70.5 58t-49.5 91t-19.5 126t20 126t50.5 90.5t71 58t79.5 32.5t77 9zM361 474q-61 0 -88 -49t-27 -119q0 -81 29 -126t86 -45q113 0 113 171
q0 70 -26 119t-87 49zM453 690q-29 0 -49.5 20.5t-20.5 50.5q0 29 20.5 49.5t49.5 20.5t50 -20.5t21 -49.5q0 -30 -21 -50.5t-50 -20.5zM265 690q-29 0 -49.5 20.5t-20.5 50.5q0 29 20.5 49.5t49.5 20.5t50 -20.5t21 -49.5q0 -30 -21 -50.5t-50 -20.5z" />
    <glyph glyph-name="multiply" unicode="&#xd7;" horiz-adv-x="610" 
d="M510 218l-105 -104l-90 90l-98 -97l-108 108l98 97l-101 101l105 104l100 -100l97 97l109 -108l-98 -97z" />
    <glyph glyph-name="Oslash" unicode="&#xd8;" horiz-adv-x="660" 
d="M632 308q0 -87 -28 -151.5t-74 -98.5t-94.5 -50t-99.5 -16q-29 0 -62 6l-22 -62h-93l32 90q-153 77 -153 282q0 70 20 126t50.5 90.5t71 58t79.5 32.5t77 9q28 0 60 -6l24 71h94l-34 -99q152 -78 152 -282zM336 476q-61 0 -88 -49t-27 -119q0 -76 26 -120l100 288h-11z
M449 308q0 76 -26 119l-100 -289q4 -1 13 -1q113 0 113 171z" />
    <glyph glyph-name="Ugrave" unicode="&#xd9;" horiz-adv-x="643" 
d="M322 -10q-129 0 -190 72.5t-61 189.5v360h163v-360q0 -50 24 -77t64 -27t63.5 27t23.5 77v360h163v-360q0 -116 -62.5 -189t-187.5 -73zM277 705l-74 126h154l47 -126h-127z" />
    <glyph glyph-name="Uacute" unicode="&#xda;" horiz-adv-x="643" 
d="M322 -10q-129 0 -190 72.5t-61 189.5v360h163v-360q0 -50 24 -77t64 -27t63.5 27t23.5 77v360h163v-360q0 -116 -62.5 -189t-187.5 -73zM422 830l-74 -126h-127l47 126h154z" />
    <glyph glyph-name="Ucircumflex" unicode="&#xdb;" horiz-adv-x="643" 
d="M322 -10q-129 0 -190 72.5t-61 189.5v360h163v-360q0 -50 24 -77t64 -27t63.5 27t23.5 77v360h163v-360q0 -116 -62.5 -189t-187.5 -73zM452 697h-98l-33 58l-31 -58h-100l59 134h144z" />
    <glyph glyph-name="Udieresis" unicode="&#xdc;" horiz-adv-x="643" 
d="M322 -10q-129 0 -190 72.5t-61 189.5v360h163v-360q0 -50 24 -77t64 -27t63.5 27t23.5 77v360h163v-360q0 -116 -62.5 -189t-187.5 -73zM415 690q-29 0 -49.5 20.5t-20.5 50.5q0 29 20.5 49.5t49.5 20.5t50 -20.5t21 -49.5q0 -30 -21 -50.5t-50 -20.5zM227 690
q-29 0 -49.5 20.5t-20.5 50.5q0 29 20.5 49.5t49.5 20.5t50 -20.5t21 -49.5q0 -30 -21 -50.5t-50 -20.5z" />
    <glyph glyph-name="Yacute" unicode="&#xdd;" horiz-adv-x="690" 
d="M472 612h167l-211 -363v-249h-167v249l-210 363h167l127 -216zM483 830l-74 -126h-127l47 126h154z" />
    <glyph glyph-name="Thorn" unicode="&#xde;" horiz-adv-x="603" 
d="M561 333q0 -88 -60 -153t-140 -65h-135v-115h-158v664h158v-110h135q85 0 142.5 -64.5t57.5 -156.5zM401 333q0 26 -17.5 43.5t-42.5 17.5h-115v-119h115q29 0 44.5 16t15.5 42z" />
    <glyph glyph-name="germandbls" unicode="&#xdf;" horiz-adv-x="661" 
d="M505 314q0 -16 11.5 -30.5t28 -27t33.5 -27t28.5 -36t11.5 -47.5q0 -62 -56 -109t-135 -47q-34 0 -66.5 9t-48.5 19l-15 9l45 112q0 -1 9.5 -5.5t25 -9t27.5 -4.5q22 0 35.5 14.5t13.5 33.5q0 20 -20.5 37.5t-45.5 28t-45.5 31t-20.5 47.5q0 31 40 68t40 67q0 47 -62 47
q-34 0 -54 -23.5t-20 -70.5v-400h-156v397q0 114 63.5 169t165.5 55q95 0 158 -38.5t63 -103.5q0 -35 -27 -88t-27 -77z" />
    <glyph glyph-name="agrave" unicode="&#xe0;" 
d="M232 346q50 0 104 -26q-11 75 -89 75q-62 0 -125 -47l-51 111q37 37 88.5 58t103.5 21q94 0 160 -66t66 -195q0 -103 12 -135.5t50 -32.5l-55 -119q-98 0 -137 54q-48 -54 -132 -54q-80 0 -129 48.5t-49 132.5q0 79 57 127t126 48zM265 231q-20 0 -41.5 -17.5
t-21.5 -43.5q0 -25 18.5 -38.5t44.5 -13.5q51 0 73 27v63q-20 23 -73 23zM232 620l-74 126h154l47 -126h-127z" />
    <glyph glyph-name="aacute" unicode="&#xe1;" 
d="M232 346q50 0 104 -26q-11 75 -89 75q-62 0 -125 -47l-51 111q37 37 88.5 58t103.5 21q94 0 160 -66t66 -195q0 -103 12 -135.5t50 -32.5l-55 -119q-98 0 -137 54q-48 -54 -132 -54q-80 0 -129 48.5t-49 132.5q0 79 57 127t126 48zM265 231q-20 0 -41.5 -17.5
t-21.5 -43.5q0 -25 18.5 -38.5t44.5 -13.5q51 0 73 27v63q-20 23 -73 23zM393 738l-74 -126h-127l47 126h154z" />
    <glyph glyph-name="acircumflex" unicode="&#xe2;" 
d="M232 346q50 0 104 -26q-11 75 -89 75q-62 0 -125 -47l-51 111q37 37 88.5 58t103.5 21q94 0 160 -66t66 -195q0 -103 12 -135.5t50 -32.5l-55 -119q-98 0 -137 54q-48 -54 -132 -54q-80 0 -129 48.5t-49 132.5q0 79 57 127t126 48zM265 231q-20 0 -41.5 -17.5
t-21.5 -43.5q0 -25 18.5 -38.5t44.5 -13.5q51 0 73 27v63q-20 23 -73 23zM411 612h-98l-33 58l-31 -58h-100l59 134h144z" />
    <glyph glyph-name="atilde" unicode="&#xe3;" 
d="M232 346q50 0 104 -26q-11 75 -89 75q-62 0 -125 -47l-51 111q37 37 88.5 58t103.5 21q94 0 160 -66t66 -195q0 -103 12 -135.5t50 -32.5l-55 -119q-98 0 -137 54q-48 -54 -132 -54q-80 0 -129 48.5t-49 132.5q0 79 57 127t126 48zM265 231q-20 0 -41.5 -17.5
t-21.5 -43.5q0 -25 18.5 -38.5t44.5 -13.5q51 0 73 27v63q-20 23 -73 23zM190 618l-97 64q13 36 49 62t83 26q19 0 57 -13t57 -13q37 0 51 27l106 -54q-13 -37 -41.5 -65.5t-65.5 -28.5q-34 0 -75 15.5t-57 15.5q-45 0 -67 -36z" />
    <glyph glyph-name="adieresis" unicode="&#xe4;" 
d="M232 346q50 0 104 -26q-11 75 -89 75q-62 0 -125 -47l-51 111q37 37 88.5 58t103.5 21q94 0 160 -66t66 -195q0 -103 12 -135.5t50 -32.5l-55 -119q-98 0 -137 54q-48 -54 -132 -54q-80 0 -129 48.5t-49 132.5q0 79 57 127t126 48zM265 231q-20 0 -41.5 -17.5
t-21.5 -43.5q0 -25 18.5 -38.5t44.5 -13.5q51 0 73 27v63q-20 23 -73 23zM374 605q-29 0 -49.5 20.5t-20.5 50.5q0 29 20.5 49.5t49.5 20.5t50 -20.5t21 -49.5q0 -30 -21 -50.5t-50 -20.5zM186 605q-29 0 -49.5 20.5t-20.5 50.5q0 29 20.5 49.5t49.5 20.5t50 -20.5t21 -49.5
q0 -30 -21 -50.5t-50 -20.5z" />
    <glyph glyph-name="aring" unicode="&#xe5;" 
d="M232 346q50 0 104 -26q-11 75 -89 75q-62 0 -125 -47l-51 111q37 37 88.5 58t103.5 21q94 0 160 -66t66 -195q0 -103 12 -135.5t50 -32.5l-55 -119q-98 0 -137 54q-48 -54 -132 -54q-80 0 -129 48.5t-49 132.5q0 79 57 127t126 48zM265 231q-20 0 -41.5 -17.5
t-21.5 -43.5q0 -25 18.5 -38.5t44.5 -13.5q51 0 73 27v63q-20 23 -73 23zM276 747q36 0 61.5 -25t25.5 -61q0 -37 -25.5 -62.5t-61.5 -25.5q-37 0 -62.5 25.5t-25.5 62.5q0 36 25.5 61t62.5 25zM275 696q-14 0 -24 -10.5t-10 -24.5q0 -15 10 -25t24 -10q15 0 25.5 10
t10.5 25q0 14 -11 24.5t-25 10.5z" />
    <glyph glyph-name="ae" unicode="&#xe6;" horiz-adv-x="861" 
d="M587 537q92 0 155 -63t63 -166l-1 -4v-78h-303q0 -48 30.5 -72t70.5 -24q26 0 50 6.5t40 16t28.5 19.5t17.5 16l6 7l58 -119q-2 -3 -7 -9t-23.5 -21t-40 -26t-59 -20.5t-79.5 -9.5q-53 0 -98.5 19.5t-67.5 49.5q-24 -27 -81 -48t-114 -21q-84 0 -133.5 48.5t-49.5 132.5
q0 79 57 127t125 48q45 0 92 -20q2 -1 6.5 -3t6.5 -3q-6 37 -27.5 56t-67.5 19q-56 0 -119 -47l-51 111q79 79 198 79q90 0 152 -63q67 62 166 62zM338 145v63q-20 23 -73 23q-20 0 -41.5 -17.5t-21.5 -43.5q0 -25 18.5 -38.5t44.5 -13.5q51 0 73 27zM508 342h151
q0 31 -23.5 50t-53.5 19q-25 0 -49.5 -18.5t-24.5 -50.5z" />
    <glyph glyph-name="ccedilla" unicode="&#xe7;" horiz-adv-x="574" 
d="M346 145q31 0 59.5 11.5t41.5 23.5l13 11l53 -111q-6 -7 -17.5 -18.5t-49 -35t-76.5 -32.5l-34 -126l-141 12l61 115q-83 21 -141 88t-58 180q0 70 24.5 124.5t64.5 85.5t85.5 46.5t93.5 15.5q35 0 67.5 -8.5t53.5 -21t37 -24.5t23 -21l7 -8l-53 -109q-4 5 -11.5 12
t-34.5 19t-59 12q-60 0 -97 -36.5t-37 -86.5q0 -48 34.5 -83t90.5 -35z" />
    <glyph glyph-name="egrave" unicode="&#xe8;" 
d="M299 537q96 0 160 -63t64 -166l-1 -82h-303q0 -48 32 -72t77 -24q37 0 70.5 16t48.5 32l15 17l58 -119q-2 -3 -7 -9t-22.5 -21t-38 -26t-55 -20.5t-72.5 -9.5q-120 0 -194.5 79.5t-74.5 194.5q0 125 70 199t173 74zM300 407q-30 0 -52 -20.5t-22 -44.5h151
q0 30 -24.5 47.5t-52.5 17.5zM257 620l-74 126h154l47 -126h-127z" />
    <glyph glyph-name="eacute" unicode="&#xe9;" 
d="M300 537q95 0 159 -63t64 -166l-1 -82h-303q0 -48 32 -72t77 -24q37 0 70.5 16t48.5 32l15 17l58 -119q-2 -3 -7 -9t-22.5 -21t-38 -26t-55 -20.5t-72.5 -9.5q-120 0 -194.5 79.5t-74.5 194.5q0 125 70 199t174 74zM300 407q-30 0 -52 -20.5t-22 -44.5h151
q0 30 -24.5 47.5t-52.5 17.5zM456 745l-74 -126h-127l47 126h154z" />
    <glyph glyph-name="ecircumflex" unicode="&#xea;" 
d="M428 612h-98l-33 58l-31 -58h-100l59 134h144zM522 226h-303q0 -48 32 -72t77 -24q37 0 70.5 16t48.5 32l15 17l58 -119q-2 -3 -7 -9t-22.5 -21t-38 -26t-55 -20.5t-72.5 -9.5q-120 0 -194.5 79.5t-74.5 194.5q0 125 70 199t173 74q96 0 160 -63t64 -166zM300 407
q-30 0 -52 -20.5t-22 -44.5h151q0 30 -24.5 47.5t-52.5 17.5z" />
    <glyph glyph-name="edieresis" unicode="&#xeb;" 
d="M299 537q96 0 160 -63t64 -166l-1 -82h-303q0 -48 32 -72t77 -24q37 0 70.5 16t48.5 32l15 17l58 -119q-2 -3 -7 -9t-22.5 -21t-38 -26t-55 -20.5t-72.5 -9.5q-120 0 -194.5 79.5t-74.5 194.5q0 125 70 199t173 74zM300 407q-30 0 -52 -20.5t-22 -44.5h151
q0 30 -24.5 47.5t-52.5 17.5zM390 605q-29 0 -49.5 20.5t-20.5 50.5q0 29 20.5 49.5t49.5 20.5t50 -20.5t21 -49.5q0 -30 -21 -50.5t-50 -20.5zM202 605q-29 0 -49.5 20.5t-20.5 50.5q0 29 20.5 49.5t49.5 20.5t50 -20.5t21 -49.5q0 -30 -21 -50.5t-50 -20.5z" />
    <glyph glyph-name="igrave" unicode="&#xec;" horiz-adv-x="285" 
d="M230 527v-527h-158v527h158zM16 746h154l47 -126h-127z" />
    <glyph glyph-name="iacute" unicode="&#xed;" horiz-adv-x="293" 
d="M213 527v-527h-158v527h158zM203 619h-127l47 126h154z" />
    <glyph glyph-name="icircumflex" unicode="&#xee;" horiz-adv-x="294" 
d="M226 527v-527h-158v527h158zM147 677l-43 -65h-88l59 134h144l59 -134h-88z" />
    <glyph glyph-name="idieresis" unicode="&#xef;" horiz-adv-x="269" 
d="M213 527v-527h-158v527h158zM228 746q29 0 50 -20.5t21 -49.5q0 -30 -21 -50.5t-50 -20.5t-49.5 20.5t-20.5 50.5q0 29 20.5 49.5t49.5 20.5zM40 746q29 0 50 -20.5t21 -49.5q0 -30 -21 -50.5t-50 -20.5t-49.5 20.5t-20.5 50.5q0 29 20.5 49.5t49.5 20.5z" />
    <glyph glyph-name="eth" unicode="&#xf0;" horiz-adv-x="508" 
d="M213 419h3l-34 65l-63 -42l-45 67l70 47l-70 133h164q11 -20 29 -50l60 40l45 -67l-61 -41q33 -52 53 -85.5t45 -82t37 -89.5t12 -77q0 -71 -20 -122.5t-53.5 -77t-67.5 -36.5t-71 -11q-35 0 -70.5 13t-67.5 38.5t-52 70t-20 99.5q0 100 49 154t128 54zM246 308
q-68 0 -68 -104q0 -41 17 -70t51 -29q33 0 48.5 29t15.5 70q0 21 -2 37t-8 32.5t-19.5 25.5t-34.5 9z" />
    <glyph glyph-name="ntilde" unicode="&#xf1;" horiz-adv-x="556" 
d="M336 538q83 0 120 -53.5t37 -142.5v-342h-158v279q0 73 -59 73q-62 0 -62 -73v-279h-159v527h159v-68q12 34 49 56.5t73 22.5zM171 618l-97 64q13 36 49 62t83 26q20 0 57 -13t57 -13q38 0 51 27l106 -54q-13 -37 -41.5 -65.5t-65.5 -28.5q-34 0 -75 15.5t-57 15.5
q-45 0 -67 -36z" />
    <glyph glyph-name="ograve" unicode="&#xf2;" horiz-adv-x="614" 
d="M307 530q43 0 86.5 -15.5t83 -47t64 -86.5t24.5 -125t-24 -125t-63 -86.5t-83 -47t-88 -15.5t-88 15.5t-83.5 47t-64 86.5t-24.5 125t25 125t65 86.5t83.5 47t86.5 15.5zM307 390q-45 0 -66 -39.5t-21 -94.5q0 -64 22 -100.5t65 -36.5q85 0 85 137q0 134 -85 134z
M264 620l-74 126h154l47 -126h-127z" />
    <glyph glyph-name="oacute" unicode="&#xf3;" horiz-adv-x="614" 
d="M295 530q43 0 86.5 -15.5t83 -47t64 -86.5t24.5 -125t-24 -125t-63 -86.5t-83 -47t-88 -15.5t-88 15.5t-83.5 47t-64 86.5t-24.5 125t25 125t65 86.5t83.5 47t86.5 15.5zM295 390q-45 0 -66 -39.5t-21 -94.5q0 -64 22 -100.5t65 -36.5q85 0 85 137q0 134 -85 134z
M428 745l-74 -126h-127l47 126h154z" />
    <glyph glyph-name="ocircumflex" unicode="&#xf4;" horiz-adv-x="614" 
d="M307 530q43 0 86.5 -15.5t83 -47t64 -86.5t24.5 -125t-24 -125t-63 -86.5t-83 -47t-88 -15.5t-88 15.5t-83.5 47t-64 86.5t-24.5 125t25 125t65 86.5t83.5 47t86.5 15.5zM307 390q-45 0 -66 -39.5t-21 -94.5q0 -64 22 -100.5t65 -36.5q85 0 85 137q0 134 -85 134z
M438 612h-98l-33 58l-31 -58h-100l59 134h144z" />
    <glyph glyph-name="otilde" unicode="&#xf5;" horiz-adv-x="614" 
d="M307 530q43 0 86.5 -15.5t83 -47t64 -86.5t24.5 -125t-24 -125t-63 -86.5t-83 -47t-88 -15.5t-88 15.5t-83.5 47t-64 86.5t-24.5 125t25 125t65 86.5t83.5 47t86.5 15.5zM307 390q-45 0 -66 -39.5t-21 -94.5q0 -64 22 -100.5t65 -36.5q85 0 85 137q0 134 -85 134z
M217 618l-97 64q13 36 49 62t83 26q20 0 57 -13t57 -13q38 0 51 27l106 -54q-13 -37 -41.5 -65.5t-65.5 -28.5q-34 0 -75 15.5t-57 15.5q-45 0 -67 -36z" />
    <glyph glyph-name="odieresis" unicode="&#xf6;" horiz-adv-x="614" 
d="M307 530q43 0 86.5 -15.5t83 -47t64 -86.5t24.5 -125t-24 -125t-63 -86.5t-83 -47t-88 -15.5t-88 15.5t-83.5 47t-64 86.5t-24.5 125t25 125t65 86.5t83.5 47t86.5 15.5zM307 390q-45 0 -66 -39.5t-21 -94.5q0 -64 22 -100.5t65 -36.5q85 0 85 137q0 134 -85 134z
M400 605q-29 0 -49.5 20.5t-20.5 50.5q0 29 20.5 49.5t49.5 20.5t50 -20.5t21 -49.5q0 -30 -21 -50.5t-50 -20.5zM212 605q-29 0 -49.5 20.5t-20.5 50.5q0 29 20.5 49.5t49.5 20.5t50 -20.5t21 -49.5q0 -30 -21 -50.5t-50 -20.5z" />
    <glyph glyph-name="divide" unicode="&#xf7;" horiz-adv-x="592" 
d="M388 518q0 -36 -25.5 -61.5t-61.5 -25.5t-61.5 25.5t-25.5 61.5t25.5 61.5t61.5 25.5t61.5 -25.5t25.5 -61.5zM530 235h-462v149h462v-149zM388 74q0 -36 -25.5 -61.5t-61.5 -25.5t-61.5 25.5t-25.5 61.5t25.5 61.5t61.5 25.5t61.5 -25.5t25.5 -61.5z" />
    <glyph glyph-name="oslash" unicode="&#xf8;" horiz-adv-x="614" 
d="M397 518q71 -28 117.5 -92t46.5 -164q0 -70 -24 -125t-63 -86.5t-83 -47t-88 -15.5q-27 0 -56 6l-30 -107h-54l35 123q-68 29 -111.5 92t-43.5 160q0 70 25 125t65 86.5t83.5 47t86.5 15.5q14 0 44 -4l41 143h54zM216 262q0 -68 24 -104l68 238h-5q-45 0 -66 -39.5
t-21 -94.5zM303 125q85 0 85 137q0 80 -32 113l-71 -248q6 -2 18 -2z" />
    <glyph glyph-name="ugrave" unicode="&#xf9;" horiz-adv-x="557" 
d="M221 -11q-83 0 -120.5 59.5t-37.5 156.5v322h159v-292q0 -73 59 -73q63 0 63 73v292h158v-527h-158v68q-12 -34 -49.5 -56.5t-73.5 -22.5zM236 620l-74 126h154l47 -126h-127z" />
    <glyph glyph-name="uacute" unicode="&#xfa;" horiz-adv-x="557" 
d="M221 -11q-83 0 -120.5 59.5t-37.5 156.5v322h159v-292q0 -73 59 -73q63 0 63 73v292h158v-527h-158v68q-12 -34 -49.5 -56.5t-73.5 -22.5zM408 745l-74 -126h-127l47 126h154z" />
    <glyph glyph-name="ucircumflex" unicode="&#xfb;" horiz-adv-x="557" 
d="M221 -11q-83 0 -120.5 59.5t-37.5 156.5v322h159v-292q0 -73 59 -73q63 0 63 73v292h158v-527h-158v68q-12 -34 -49.5 -56.5t-73.5 -22.5zM420 612h-98l-33 58l-31 -58h-100l59 134h144z" />
    <glyph glyph-name="udieresis" unicode="&#xfc;" horiz-adv-x="557" 
d="M221 -11q-83 0 -120.5 59.5t-37.5 156.5v322h159v-292q0 -73 59 -73q63 0 63 73v292h158v-527h-158v68q-12 -34 -49.5 -56.5t-73.5 -22.5zM383 605q-29 0 -49.5 20.5t-20.5 50.5q0 29 20.5 49.5t49.5 20.5t50 -20.5t21 -49.5q0 -30 -21 -50.5t-50 -20.5zM195 605
q-29 0 -49.5 20.5t-20.5 50.5q0 29 20.5 49.5t49.5 20.5t50 -20.5t21 -49.5q0 -30 -21 -50.5t-50 -20.5z" />
    <glyph glyph-name="yacute" unicode="&#xfd;" 
d="M170 -191q-26 0 -55 8.5t-45 16.5l-17 9l53 124q23 -13 53 -13q37 0 53 90l-163 483h170l74 -279l72 279h165q-114 -359 -151 -477q-76 -241 -209 -241zM413 745l-74 -126h-127l47 126h154z" />
    <glyph glyph-name="thorn" unicode="&#xfe;" horiz-adv-x="640" 
d="M384 538q95 0 157 -80t62 -197q0 -119 -68.5 -195t-154.5 -76q-41 0 -69.5 13.5t-36.5 26.5l-9 14v-44v-148h-155v848h155v-207q11 19 50 32t69 13zM329 390q-42 0 -64 -36v-172q26 -36 64 -36q41 0 74.5 28.5t33.5 88.5q0 57 -32 92t-76 35z" />
    <glyph glyph-name="ydieresis" unicode="&#xff;" 
d="M170 -191q-26 0 -55 8.5t-45 16.5l-17 9l53 124q23 -13 53 -13q37 0 53 90l-163 483h170l74 -279l72 279h165q-114 -359 -151 -477q-76 -241 -209 -241zM377 605q-29 0 -49.5 20.5t-20.5 50.5q0 29 20.5 49.5t49.5 20.5t50 -20.5t21 -49.5q0 -30 -21 -50.5t-50 -20.5z
M189 605q-29 0 -49.5 20.5t-20.5 50.5q0 29 20.5 49.5t49.5 20.5t50 -20.5t21 -49.5q0 -30 -21 -50.5t-50 -20.5z" />
    <glyph glyph-name="Amacron" unicode="&#x100;" horiz-adv-x="688" 
d="M224 612h239l174 -612h-167l-39 124h-174l-39 -124h-167zM344 461l-49 -186h98zM556 732h-423v98h423v-98z" />
    <glyph glyph-name="amacron" unicode="&#x101;" 
d="M232 346q50 0 104 -26q-11 75 -89 75q-62 0 -125 -47l-51 111q37 37 88.5 58t103.5 21q94 0 160 -66t66 -195q0 -103 12 -135.5t50 -32.5l-55 -119q-98 0 -137 54q-48 -54 -132 -54q-80 0 -129 48.5t-49 132.5q0 79 57 127t126 48zM265 231q-20 0 -41.5 -17.5
t-21.5 -43.5q0 -25 18.5 -38.5t44.5 -13.5q51 0 73 27v63q-20 23 -73 23zM492 647h-423v98h423v-98z" />
    <glyph glyph-name="Abreve" unicode="&#x102;" horiz-adv-x="688" 
d="M224 612h239l174 -612h-167l-39 124h-174l-39 -124h-167zM344 461l-49 -186h98zM345 776q43 0 43 55h87q0 -68 -39.5 -98.5t-90.5 -30.5q-52 0 -92 30.5t-40 98.5h88q0 -55 44 -55z" />
    <glyph glyph-name="abreve" unicode="&#x103;" 
d="M232 346q50 0 104 -26q-11 75 -89 75q-62 0 -125 -47l-51 111q37 37 88.5 58t103.5 21q94 0 160 -66t66 -195q0 -103 12 -135.5t50 -32.5l-55 -119q-98 0 -137 54q-48 -54 -132 -54q-80 0 -129 48.5t-49 132.5q0 79 57 127t126 48zM265 231q-20 0 -41.5 -17.5
t-21.5 -43.5q0 -25 18.5 -38.5t44.5 -13.5q51 0 73 27v63q-20 23 -73 23zM281 691q43 0 43 55h87q0 -68 -39.5 -98.5t-90.5 -30.5q-52 0 -92 30.5t-40 98.5h88q0 -55 44 -55z" />
    <glyph glyph-name="Aogonek" unicode="&#x104;" horiz-adv-x="688" 
d="M516 -65q0 31 26 65h-69l-39 124h-174l-39 -124h-167l173 612h239l174 -612h-17q-15 -30 -15 -46q0 -25 21 -25q20 0 28 8l27 -56q-23 -23 -68 -23q-42 0 -71 21.5t-29 55.5zM347 461l-49 -186h98z" />
    <glyph glyph-name="aogonek" unicode="&#x105;" horiz-adv-x="563" 
d="M395 -65q0 32 26 66q-40 12 -62 43q-48 -54 -132 -54q-80 0 -129 48.5t-49 132.5q0 79 57 127t126 48q50 0 104 -26q-11 75 -89 75q-62 0 -125 -47l-51 111q37 37 88.5 58t103.5 21q94 0 160 -66t66 -195q0 -103 12 -135.5t50 -32.5l-51 -109q-13 -24 -13 -46
q0 -25 21 -25q20 0 28 8l27 -56q-23 -23 -68 -23q-42 0 -71 21.5t-29 55.5zM265 118q51 0 73 27v63q-20 23 -73 23q-20 0 -41.5 -17.5t-21.5 -43.5q0 -25 18.5 -38.5t44.5 -13.5z" />
    <glyph glyph-name="Cacute" unicode="&#x106;" horiz-adv-x="624" 
d="M361 624q56 0 106.5 -17t73.5 -33l23 -17l-66 -140q-6 5 -16.5 12.5t-42.5 20t-63 12.5q-66 0 -103.5 -41.5t-37.5 -112.5q0 -73 37 -113.5t104 -40.5q31 0 61.5 11t45.5 23l15 11l66 -141q-9 -7 -25.5 -18t-69 -29.5t-108.5 -18.5q-38 0 -77 9t-79.5 32.5t-71 58
t-50.5 90.5t-20 126t20 126t50.5 90.5t71 58t79.5 32.5t77 9zM491 830l-74 -126h-127l47 126h154z" />
    <glyph glyph-name="cacute" unicode="&#x107;" horiz-adv-x="574" 
d="M49 265q0 70 24.5 124.5t64.5 85.5t85.5 46.5t93.5 15.5q35 0 67.5 -8.5t53.5 -21t37 -24.5t23 -21l7 -8l-53 -109q-4 5 -11.5 12t-34.5 19t-59 12q-40 0 -71 -17.5t-47 -45.5t-16 -60q0 -48 34.5 -83t90.5 -35q31 0 59.5 11.5t41.5 23.5l13 11l53 -111q-3 -4 -9 -10
t-26 -22t-41.5 -28t-54.5 -22t-66 -10q-43 0 -86.5 15.5t-83 47t-64.5 86.5t-25 126zM453 745l-74 -126h-127l47 126h154z" />
    <glyph glyph-name="Ccircumflex" unicode="&#x108;" horiz-adv-x="624" 
d="M361 624q56 0 106.5 -17t73.5 -33l23 -17l-66 -140q-6 5 -16.5 12.5t-42.5 20t-63 12.5q-66 0 -103.5 -41.5t-37.5 -112.5q0 -73 37 -113.5t104 -40.5q31 0 61.5 11t45.5 23l15 11l66 -141q-9 -7 -25.5 -18t-69 -29.5t-108.5 -18.5q-38 0 -77 9t-79.5 32.5t-71 58
t-50.5 90.5t-20 126t20 126t50.5 90.5t71 58t79.5 32.5t77 9zM477 697h-98l-33 58l-31 -58h-100l59 134h144z" />
    <glyph glyph-name="ccircumflex" unicode="&#x109;" horiz-adv-x="574" 
d="M49 265q0 70 24.5 124.5t64.5 85.5t85.5 46.5t93.5 15.5q35 0 67.5 -8.5t53.5 -21t37 -24.5t23 -21l7 -8l-53 -109q-4 5 -11.5 12t-34.5 19t-59 12q-40 0 -71 -17.5t-47 -45.5t-16 -60q0 -48 34.5 -83t90.5 -35q31 0 59.5 11.5t41.5 23.5l13 11l53 -111q-3 -4 -9 -10
t-26 -22t-41.5 -28t-54.5 -22t-66 -10q-43 0 -86.5 15.5t-83 47t-64.5 86.5t-25 126zM432 612h-98l-33 58l-31 -58h-100l59 134h144z" />
    <glyph glyph-name="Cdotaccent" unicode="&#x10a;" horiz-adv-x="624" 
d="M361 624q56 0 106.5 -17t73.5 -33l23 -17l-66 -140q-6 5 -16.5 12.5t-42.5 20t-63 12.5q-66 0 -103.5 -41.5t-37.5 -112.5q0 -73 37 -113.5t104 -40.5q31 0 61.5 11t45.5 23l15 11l66 -141q-9 -7 -25.5 -18t-69 -29.5t-108.5 -18.5q-38 0 -77 9t-79.5 32.5t-71 58
t-50.5 90.5t-20 126t20 126t50.5 90.5t71 58t79.5 32.5t77 9zM354 698q-29 0 -49.5 20.5t-20.5 50.5q0 29 20.5 49.5t49.5 20.5t50 -20.5t21 -49.5q0 -30 -21 -50.5t-50 -20.5z" />
    <glyph glyph-name="cdotaccent" unicode="&#x10b;" horiz-adv-x="574" 
d="M49 265q0 70 24.5 124.5t64.5 85.5t85.5 46.5t93.5 15.5q35 0 67.5 -8.5t53.5 -21t37 -24.5t23 -21l7 -8l-53 -109q-4 5 -11.5 12t-34.5 19t-59 12q-40 0 -71 -17.5t-47 -45.5t-16 -60q0 -48 34.5 -83t90.5 -35q31 0 59.5 11.5t41.5 23.5l13 11l53 -111q-3 -4 -9 -10
t-26 -22t-41.5 -28t-54.5 -22t-66 -10q-43 0 -86.5 15.5t-83 47t-64.5 86.5t-25 126zM296 614q-29 0 -49.5 20.5t-20.5 50.5q0 29 20.5 49.5t49.5 20.5t50 -20.5t21 -49.5q0 -30 -21 -50.5t-50 -20.5z" />
    <glyph glyph-name="Ccaron" unicode="&#x10c;" horiz-adv-x="624" 
d="M361 624q56 0 106.5 -17t73.5 -33l23 -17l-66 -140q-6 5 -16.5 12.5t-42.5 20t-63 12.5q-66 0 -103.5 -41.5t-37.5 -112.5q0 -73 37 -113.5t104 -40.5q31 0 61.5 11t45.5 23l15 11l66 -141q-9 -7 -25.5 -18t-69 -29.5t-108.5 -18.5q-38 0 -77 9t-79.5 32.5t-71 58
t-50.5 90.5t-20 126t20 126t50.5 90.5t71 58t79.5 32.5t77 9zM223 830h88l43 -65l43 65h88l-59 -134h-144z" />
    <glyph glyph-name="ccaron" unicode="&#x10d;" horiz-adv-x="574" 
d="M49 265q0 70 24.5 124.5t64.5 85.5t85.5 46.5t93.5 15.5q35 0 67.5 -8.5t53.5 -21t37 -24.5t23 -21l7 -8l-53 -109q-4 5 -11.5 12t-34.5 19t-59 12q-40 0 -71 -17.5t-47 -45.5t-16 -60q0 -48 34.5 -83t90.5 -35q31 0 59.5 11.5t41.5 23.5l13 11l53 -111q-3 -4 -9 -10
t-26 -22t-41.5 -28t-54.5 -22t-66 -10q-43 0 -86.5 15.5t-83 47t-64.5 86.5t-25 126zM170 745h88l43 -65l43 65h88l-59 -134h-144z" />
    <glyph glyph-name="Dcaron" unicode="&#x10e;" horiz-adv-x="658" 
d="M596 312q0 -79 -27 -140.5t-73 -98t-101.5 -55t-116.5 -18.5h-211v612h211q318 0 318 -300zM414 312q0 140 -136 140h-44v-292h44q67 0 101.5 43t34.5 109zM198 830h88l43 -65l43 65h88l-59 -134h-144z" />
    <glyph glyph-name="dcaron" unicode="&#x10f;" horiz-adv-x="806" 
d="M808 745l-74 -126h-127l47 126h154zM387 700h154v-700h-154v44q-1 -2 -3 -5.5t-11 -13t-20.5 -16.5t-33 -13t-47.5 -6q-86 0 -154.5 76t-68.5 195q0 129 62 203.5t176 74.5q26 0 57 -12t43 -32v205zM387 173v171q-19 36 -63 36q-42 0 -68.5 -34t-26.5 -83
q0 -59 25.5 -92.5t69.5 -33.5q17 0 32.5 9t23.5 18z" />
    <glyph glyph-name="Dcroat" unicode="&#x110;" horiz-adv-x="744" 
d="M682 312q0 -97 -47 -169.5t-118.5 -107.5t-152.5 -35h-258v252h-74v120h74v240h258q148 0 233 -77t85 -223zM500 312q0 140 -136 140h-91v-80h78v-120h-78v-92h91q67 0 101.5 43t34.5 109z" />
    <glyph glyph-name="dcroat" unicode="&#x111;" horiz-adv-x="638" 
d="M287 539q26 0 57 -12t43 -32v67h-43v100h43v38h154v-38h42v-100h-42v-562h-154v44q-1 -2 -3 -5.5t-11 -13t-20.5 -16.5t-33 -13t-47.5 -6q-86 0 -154.5 76t-68.5 195q0 129 62 203.5t176 74.5zM324 380q-42 0 -68.5 -34t-26.5 -83q0 -59 25.5 -92.5t69.5 -33.5
q17 0 32.5 9t23.5 18l7 9v171q-19 36 -63 36z" />
    <glyph glyph-name="Emacron" unicode="&#x112;" horiz-adv-x="608" 
d="M234 381h230v-141h-230v-80h294v-160h-461v612h461v-160h-294v-71zM516 732h-423v98h423v-98z" />
    <glyph glyph-name="emacron" unicode="&#x113;" 
d="M299 537q96 0 160 -63t64 -166l-1 -82h-303q0 -48 32 -72t77 -24q37 0 70.5 16t48.5 32l15 17l58 -119q-2 -3 -7 -9t-22.5 -21t-38 -26t-55 -20.5t-72.5 -9.5q-120 0 -194.5 79.5t-74.5 194.5q0 125 70 199t173 74zM300 407q-30 0 -52 -20.5t-22 -44.5h151
q0 30 -24.5 47.5t-52.5 17.5zM509 647h-423v98h423v-98z" />
    <glyph glyph-name="Ebreve" unicode="&#x114;" horiz-adv-x="608" 
d="M234 381h230v-141h-230v-80h294v-160h-461v612h461v-160h-294v-71zM305 776q43 0 43 55h87q0 -68 -39.5 -98.5t-90.5 -30.5q-52 0 -92 30.5t-40 98.5h88q0 -55 44 -55z" />
    <glyph glyph-name="ebreve" unicode="&#x115;" 
d="M299 537q96 0 160 -63t64 -166l-1 -82h-303q0 -48 32 -72t77 -24q37 0 70.5 16t48.5 32l15 17l58 -119q-2 -3 -7 -9t-22.5 -21t-38 -26t-55 -20.5t-72.5 -9.5q-120 0 -194.5 79.5t-74.5 194.5q0 125 70 199t173 74zM300 407q-30 0 -52 -20.5t-22 -44.5h151
q0 30 -24.5 47.5t-52.5 17.5zM298 691q43 0 43 55h87q0 -68 -39.5 -98.5t-90.5 -30.5q-52 0 -92 30.5t-40 98.5h88q0 -55 44 -55z" />
    <glyph glyph-name="Edotaccent" unicode="&#x116;" horiz-adv-x="608" 
d="M234 381h230v-141h-230v-80h294v-160h-461v612h461v-160h-294v-71zM303 782q-29 0 -49.5 20.5t-20.5 50.5q0 29 20.5 49.5t49.5 20.5t50 -20.5t21 -49.5q0 -30 -21 -50.5t-50 -20.5z" />
    <glyph glyph-name="edotaccent" unicode="&#x117;" 
d="M299 537q96 0 160 -63t64 -166l-1 -82h-303q0 -48 32 -72t77 -24q37 0 70.5 16t48.5 32l15 17l58 -119q-2 -3 -7 -9t-22.5 -21t-38 -26t-55 -20.5t-72.5 -9.5q-120 0 -194.5 79.5t-74.5 194.5q0 125 70 199t173 74zM300 407q-30 0 -52 -20.5t-22 -44.5h151
q0 30 -24.5 47.5t-52.5 17.5zM296 614q-29 0 -49.5 20.5t-20.5 50.5q0 29 20.5 49.5t49.5 20.5t50 -20.5t21 -49.5q0 -30 -21 -50.5t-50 -20.5z" />
    <glyph glyph-name="Eogonek" unicode="&#x118;" horiz-adv-x="588" 
d="M452 -34q0 -25 21 -25q20 0 28 8l27 -56q-23 -23 -68 -23q-42 0 -71 21.5t-29 55.5q0 26 18 53h-311v612h461v-160h-294v-68h230v-141h-230v-83h294v-160h-68q-8 -24 -8 -34z" />
    <glyph glyph-name="eogonek" unicode="&#x119;" horiz-adv-x="571" 
d="M452 -25q0 -36 27 -36q5 0 12 2t11 4l4 2l27 -56q-23 -23 -68 -23q-42 0 -71 24t-29 63q0 19 8 38q-28 -5 -56 -5q-120 0 -194.5 79.5t-74.5 194.5q0 125 70 199t173 74q96 0 160 -63t64 -166l-1 -82h-303q0 -48 32 -72t77 -24q37 0 70.5 16t48.5 32l15 17l58 -119
q-7 -12 -24 -26q-35 -37 -36 -73zM292 405q-30 0 -52 -20.5t-22 -44.5h151q0 30 -24.5 47.5t-52.5 17.5z" />
    <glyph glyph-name="Ecaron" unicode="&#x11a;" horiz-adv-x="608" 
d="M234 381h230v-141h-230v-80h294v-160h-461v612h461v-160h-294v-71zM173 830h88l43 -65l43 65h88l-59 -134h-144z" />
    <glyph glyph-name="ecaron" unicode="&#x11b;" 
d="M299 537q96 0 160 -63t64 -166l-1 -82h-303q0 -48 32 -72t77 -24q37 0 70.5 16t48.5 32l15 17l58 -119q-2 -3 -7 -9t-22.5 -21t-38 -26t-55 -20.5t-72.5 -9.5q-120 0 -194.5 79.5t-74.5 194.5q0 125 70 199t173 74zM300 407q-30 0 -52 -20.5t-22 -44.5h151
q0 30 -24.5 47.5t-52.5 17.5zM166 745h88l43 -65l43 65h88l-59 -134h-144z" />
    <glyph glyph-name="Gcircumflex" unicode="&#x11c;" horiz-adv-x="665" 
d="M444 331h166v-275q-11 -7 -30.5 -18t-77.5 -29.5t-114 -18.5q-60 0 -115 18.5t-101 55t-73.5 99t-27.5 143.5q0 148 94 232t222 84q69 0 125 -17t77 -33l21 -17l-65 -140q-6 5 -16.5 12.5t-42.5 20t-63 12.5q-69 0 -119 -43t-50 -111q0 -77 41 -115.5t130 -38.5h19v179z
M510 697h-98l-33 58l-31 -58h-100l59 134h144z" />
    <glyph glyph-name="gcircumflex" unicode="&#x11d;" horiz-adv-x="589" 
d="M49 291q0 105 60 176t168 71q33 0 58 -12t34.5 -24.5t10.5 -19.5v45h154v-389q0 -59 -13 -114.5t-40.5 -105t-77.5 -79.5t-116 -30q-57 0 -106.5 13.5t-70.5 26.5l-21 13l63 132q56 -29 119 -29q41 0 75 24t34 80q-34 -34 -103 -34q-58 0 -103.5 23t-72 61t-39.5 81.5
t-13 90.5zM220 291q0 -41 23 -70t55 -29q29 0 49.5 9t26.5 19l6 9v113q0 2 -1 5t-5.5 11.5t-12 15t-23 11.5t-35.5 5q-36 0 -59.5 -29.5t-23.5 -69.5zM443 612h-98l-33 58l-31 -58h-100l59 134h144z" />
    <glyph glyph-name="Gbreve" unicode="&#x11e;" horiz-adv-x="653" 
d="M436 331h166v-275q-11 -7 -30.5 -18t-77.5 -29.5t-114 -18.5q-60 0 -115 18.5t-101 55t-73.5 99t-27.5 143.5q0 148 94 232t222 84q69 0 125 -17t77 -33l21 -17l-65 -140q-6 5 -16.5 12.5t-42.5 20t-63 12.5q-69 0 -119 -43t-50 -111q0 -77 41 -115.5t130 -38.5h19v179z
M372 776q43 0 43 55h87q0 -68 -39.5 -98.5t-90.5 -30.5q-52 0 -92 30.5t-40 98.5h88q0 -55 44 -55z" />
    <glyph glyph-name="gbreve" unicode="&#x11f;" horiz-adv-x="589" 
d="M49 291q0 105 60 176t168 71q33 0 58 -12t34.5 -24.5t10.5 -19.5v45h154v-389q0 -59 -13 -114.5t-40.5 -105t-77.5 -79.5t-116 -30q-57 0 -106.5 13.5t-70.5 26.5l-21 13l63 132q56 -29 119 -29q41 0 75 24t34 80q-34 -34 -103 -34q-58 0 -103.5 23t-72 61t-39.5 81.5
t-13 90.5zM220 291q0 -41 23 -70t55 -29q29 0 49.5 9t26.5 19l6 9v113q0 2 -1 5t-5.5 11.5t-12 15t-23 11.5t-35.5 5q-36 0 -59.5 -29.5t-23.5 -69.5zM297 691q43 0 43 55h87q0 -68 -39.5 -98.5t-90.5 -30.5q-52 0 -92 30.5t-40 98.5h88q0 -55 44 -55z" />
    <glyph glyph-name="Gdotaccent" unicode="&#x120;" horiz-adv-x="657" 
d="M436 331h166v-275q-11 -7 -30.5 -18t-77.5 -29.5t-114 -18.5q-60 0 -115 18.5t-101 55t-73.5 99t-27.5 143.5q0 148 94 232t222 84q69 0 125 -17t77 -33l21 -17l-65 -140q-6 5 -16.5 12.5t-42.5 20t-63 12.5q-69 0 -119 -43t-50 -111q0 -77 41 -115.5t130 -38.5h19v179z
M346 683q-29 0 -49.5 20.5t-20.5 50.5q0 29 20.5 49.5t49.5 20.5t50 -20.5t21 -49.5q0 -30 -21 -50.5t-50 -20.5z" />
    <glyph glyph-name="gdotaccent" unicode="&#x121;" horiz-adv-x="589" 
d="M49 291q0 105 60 176t168 71q33 0 58 -12t34.5 -24.5t10.5 -19.5v45h154v-389q0 -59 -13 -114.5t-40.5 -105t-77.5 -79.5t-116 -30q-57 0 -106.5 13.5t-70.5 26.5l-21 13l63 132q56 -29 119 -29q41 0 75 24t34 80q-34 -34 -103 -34q-58 0 -103.5 23t-72 61t-39.5 81.5
t-13 90.5zM220 291q0 -41 23 -70t55 -29q29 0 49.5 9t26.5 19l6 9v113q0 2 -1 5t-5.5 11.5t-12 15t-23 11.5t-35.5 5q-36 0 -59.5 -29.5t-23.5 -69.5zM295 613q-29 0 -49.5 20.5t-20.5 50.5q0 29 20.5 49.5t49.5 20.5t50 -20.5t21 -49.5q0 -30 -21 -50.5t-50 -20.5z" />
    <glyph glyph-name="Gcommaaccent" unicode="&#x122;" horiz-adv-x="657" 
d="M436 331h166v-275q-11 -7 -30.5 -18t-77.5 -29.5t-114 -18.5q-60 0 -115 18.5t-101 55t-73.5 99t-27.5 143.5q0 148 94 232t222 84q69 0 125 -17t77 -33l21 -17l-65 -140q-6 5 -16.5 12.5t-42.5 20t-63 12.5q-69 0 -119 -43t-50 -111q0 -77 41 -115.5t130 -38.5h19v179z
M345 -54q40 0 66 -31t26 -81q0 -58 -35.5 -103.5t-62.5 -58.5l-43 61q33 23 39 43q-37 0 -59.5 23.5t-22.5 62.5q0 36 29 60t63 24z" />
    <glyph glyph-name="gcommaaccent" unicode="&#x123;" horiz-adv-x="589" 
d="M49 291q0 105 60 176t168 71q33 0 58 -12t34.5 -24.5t10.5 -19.5v45h154v-389q0 -59 -13 -114.5t-40.5 -105t-77.5 -79.5t-116 -30q-57 0 -106.5 13.5t-70.5 26.5l-21 13l63 132q56 -29 119 -29q41 0 75 24t34 80q-34 -34 -103 -34q-58 0 -103.5 23t-72 61t-39.5 81.5
t-13 90.5zM220 291q0 -41 23 -70t55 -29q29 0 49.5 9t26.5 19l6 9v113q0 2 -1 5t-5.5 11.5t-12 15t-23 11.5t-35.5 5q-36 0 -59.5 -29.5t-23.5 -69.5zM307 569q-40 0 -66 31t-26 81q0 58 35.5 103.5t62.5 58.5l43 -61q-33 -23 -39 -43q37 0 59.5 -23.5t22.5 -62.5
q0 -36 -29 -60t-63 -24z" />
    <glyph glyph-name="Hcircumflex" unicode="&#x124;" horiz-adv-x="653" 
d="M234 406h185v206h167v-612h-167v246h-185v-246h-167v612h167v-206zM457 697h-98l-33 58l-31 -58h-100l59 134h144z" />
    <glyph glyph-name="hcircumflex" unicode="&#x125;" horiz-adv-x="583" 
d="M358 538q82 0 119.5 -56t37.5 -140v-342h-158v279q0 73 -59 73q-62 0 -62 -73v-279h-159v700h159v-241q12 34 49 56.5t73 22.5zM422 783h-98l-33 58l-31 -58h-100l59 134h144z" />
    <glyph glyph-name="Hbar" unicode="&#x126;" horiz-adv-x="653" 
d="M419 455h-185v-49h185v49zM586 612v-59h77v-98h-77v-455h-167v246h-185v-246h-167v455h-94v98h94v59h167v-59h185v59h167z" />
    <glyph glyph-name="hbar" unicode="&#x127;" horiz-adv-x="583" 
d="M353 540q82 0 119.5 -56t37.5 -140v-342h-158v279q0 73 -59 73q-62 0 -62 -73v-279h-159v577h-60v98h60v25h159v-25h56v-98h-56v-118q12 34 49 56.5t73 22.5z" />
    <glyph glyph-name="Itilde" unicode="&#x128;" horiz-adv-x="313" 
d="M240 612v-612h-167v612h167zM59 703l-97 64q13 36 49 62t83 26q20 0 57 -13t57 -13q38 0 51 27l106 -54q-13 -37 -41.5 -65.5t-65.5 -28.5q-34 0 -75 15.5t-57 15.5q-45 0 -67 -36z" />
    <glyph glyph-name="itilde" unicode="&#x129;" horiz-adv-x="309" 
d="M233 527v-527h-158v527h158zM60 594l-97 64q19 37 53 62.5t79 25.5q18 0 49 -13t59 -13q23 0 37 27l106 -54q-15 -27 -26.5 -44t-37.5 -33.5t-58 -16.5q-26 0 -59 15.5t-46 15.5q-37 0 -59 -36z" />
    <glyph glyph-name="Imacron" unicode="&#x12a;" horiz-adv-x="313" 
d="M240 612v-612h-167v612h167zM368 732h-423v98h423v-98z" />
    <glyph glyph-name="imacron" unicode="&#x12b;" horiz-adv-x="328" 
d="M243 527v-527h-158v527h158zM376 745v-98h-423v98h423z" />
    <glyph glyph-name="Ibreve" unicode="&#x12c;" horiz-adv-x="313" 
d="M240 612v-612h-167v612h167zM158 776q43 0 43 55h87q0 -68 -39.5 -98.5t-90.5 -30.5q-52 0 -92 30.5t-40 98.5h88q0 -55 44 -55z" />
    <glyph glyph-name="ibreve" unicode="&#x12d;" horiz-adv-x="294" 
d="M226 527v-527h-158v527h158zM148 696q21 0 32 14t11 36h87q0 -68 -39.5 -98.5t-90.5 -30.5q-52 0 -92 30.5t-40 98.5h88q0 -22 11 -36t33 -14z" />
    <glyph glyph-name="Iogonek" unicode="&#x12e;" horiz-adv-x="313" 
d="M175 -34q0 -25 21 -25q6 0 13 2t11 3.5t4 2.5l27 -56q-23 -23 -68 -23q-27 0 -49.5 9.5t-36.5 27t-14 40.5q0 26 18 53h-30v612h167v-612h-54q-9 -20 -9 -34z" />
    <glyph glyph-name="iogonek" unicode="&#x12f;" horiz-adv-x="309" 
d="M139 556q-37 0 -63.5 25.5t-26.5 61.5t26 61t64 25t64.5 -25t26.5 -61t-26.5 -61.5t-64.5 -25.5zM207 -51l27 -56q-23 -23 -68 -23q-42 0 -71 21.5t-29 55.5q0 26 18 53h-24v527h158v-527h-51q-9 -18 -9 -34q0 -25 21 -25q6 0 12.5 2t10.5 3.5t5 2.5z" />
    <glyph glyph-name="Idotaccent" unicode="&#x130;" horiz-adv-x="313" 
d="M240 612v-612h-167v612h167zM156 700q-29 0 -49.5 20.5t-20.5 50.5q0 29 20.5 49.5t49.5 20.5t50 -20.5t21 -49.5q0 -30 -21 -50.5t-50 -20.5z" />
    <glyph glyph-name="dotlessi" unicode="&#x131;" horiz-adv-x="433" 
d="M79 483h298v-480h-158v331h-140v149z" />
    <glyph glyph-name="Jcircumflex" unicode="&#x134;" horiz-adv-x="489" 
d="M197 160q34 0 46 24.5t12 67.5v360h167v-306q0 -59 -4.5 -103.5t-17 -86t-34 -68t-57 -42.5t-84.5 -16q-35 0 -67 7t-53.5 16.5t-37.5 19.5t-23 17l-7 7l69 140q45 -37 91 -37zM479 697h-98l-33 58l-31 -58h-100l59 134h144z" />
    <glyph glyph-name="jcircumflex" unicode="&#x135;" horiz-adv-x="431" 
d="M155 106v421h162v-421q0 -143 -52 -220t-140 -77q-46 0 -83 9.5t-51 19.5l-14 10l56 115q18 -19 63 -19q59 0 59 162zM231 677l-43 -65h-88l59 134h144l59 -134h-88z" />
    <glyph glyph-name="Kcommaaccent" unicode="&#x136;" horiz-adv-x="637" 
d="M599 612l-197 -269l221 -343h-199l-175 278v-278h-167v612h167v-199l159 199h191zM226 -138q0 36 29 60t63 24q40 0 66 -31t26 -81q0 -58 -35.5 -103.5t-62.5 -58.5l-43 61q33 23 39 43q-37 0 -59.5 23.5t-22.5 62.5z" />
    <glyph glyph-name="kcommaaccent" unicode="&#x137;" horiz-adv-x="590" 
d="M514 527l-185 -224l225 -303h-190l-154 206v-206h-155v700h155v-318l113 145h191zM200 -138q0 36 29 60t63 24q40 0 66 -31t26 -81q0 -58 -35.5 -103.5t-62.5 -58.5l-43 61q33 23 39 43q-37 0 -59.5 23.5t-22.5 62.5z" />
    <glyph glyph-name="Lacute" unicode="&#x139;" horiz-adv-x="478" 
d="M234 160h174v-160h-341v612h167v-452zM299 830l-74 -126h-127l47 126h154z" />
    <glyph glyph-name="lacute" unicode="&#x13a;" horiz-adv-x="381" 
d="M55 222v478h163v-474q0 -52 7.5 -71.5t27.5 -19.5q10 0 20 3.5t15 7.5l6 4l56 -121q-56 -39 -137 -39q-83 0 -120.5 56t-37.5 176zM287 888l-74 -126h-127l47 126h154z" />
    <glyph glyph-name="Lcommaaccent" unicode="&#x13b;" horiz-adv-x="478" 
d="M234 160h174v-160h-341v612h167v-452zM147 -138q0 36 29 60t63 24q40 0 66 -31t26 -81q0 -58 -35.5 -103.5t-62.5 -58.5l-43 61q33 23 39 43q-37 0 -59.5 23.5t-22.5 62.5z" />
    <glyph glyph-name="lcommaaccent" unicode="&#x13c;" horiz-adv-x="381" 
d="M55 222v478h163v-474q0 -52 7.5 -71.5t27.5 -19.5q10 0 20 3.5t15 7.5l6 4l56 -121q-56 -39 -137 -39q-83 0 -120.5 56t-37.5 176zM107 -138q0 36 29 60t63 24q40 0 66 -31t26 -81q0 -58 -35.5 -103.5t-62.5 -58.5l-43 61q33 23 39 43q-37 0 -59.5 23.5t-22.5 62.5z" />
    <glyph glyph-name="Lcaron" unicode="&#x13d;" horiz-adv-x="554" 
d="M498 702l-74 -126h-127l47 126h154zM408 160v-160h-341v612h167v-452h174z" />
    <glyph glyph-name="lcaron" unicode="&#x13e;" horiz-adv-x="544" 
d="M509 740l-74 -126h-127l47 126h154zM218 700v-474q0 -52 7.5 -71.5t27.5 -19.5q10 0 20 3.5t15 7.5l6 4l56 -121q-56 -39 -137 -39q-83 0 -120.5 56t-37.5 176v478h163z" />
    <glyph glyph-name="Ldot" unicode="&#x13f;" horiz-adv-x="478" 
d="M408 282q-29 0 -49.5 20.5t-20.5 50.5q0 29 20.5 49.5t49.5 20.5t50 -20.5t21 -49.5q0 -30 -21 -50.5t-50 -20.5zM408 160v-160h-341v612h167v-452h174z" />
    <glyph glyph-name="ldot" unicode="&#x140;" horiz-adv-x="522" 
d="M488 376q0 -30 -21 -50.5t-50 -20.5t-49.5 20.5t-20.5 50.5q0 29 20.5 49.5t49.5 20.5t50 -20.5t21 -49.5zM375 35q-33 -23 -60.5 -34t-66.5 -11q-86 0 -124.5 56t-38.5 176v478h163v-474q0 -54 5 -71.5t21 -17.5q27 0 45 18z" />
    <glyph glyph-name="Lslash" unicode="&#x141;" horiz-adv-x="609" 
d="M334 160h174v-160h-341v229l-113 -52v106l113 52v277h167v-201l143 65v-106l-143 -65v-145z" />
    <glyph glyph-name="lslash" unicode="&#x142;" horiz-adv-x="529" 
d="M478 395l-145 -66v-103q0 -54 5 -71.5t21 -17.5q11 0 22.5 4.5t16.5 8.5l6 5l56 -120q-33 -23 -60.5 -34t-66.5 -11q-86 0 -124.5 56t-38.5 176v32l-115 -52v98l115 52v348h163v-273l145 66v-98z" />
    <glyph glyph-name="Nacute" unicode="&#x143;" horiz-adv-x="750" 
d="M297 612l185 -313v313h167v-612h-167l-185 302v-302h-167v612h167zM475 830l-74 -126h-127l47 126h154z" />
    <glyph glyph-name="nacute" unicode="&#x144;" horiz-adv-x="556" 
d="M336 538q83 0 120 -53.5t37 -142.5v-342h-158v279q0 73 -59 73q-62 0 -62 -73v-279h-159v527h159v-68q12 34 49 56.5t73 22.5zM378 745l-74 -126h-127l47 126h154z" />
    <glyph glyph-name="Ncommaaccent" unicode="&#x145;" horiz-adv-x="750" 
d="M297 612l185 -313v313h167v-612h-167l-185 302v-302h-167v612h167zM283 -138q0 36 29 60t63 24q40 0 66 -31t26 -81q0 -58 -35.5 -103.5t-62.5 -58.5l-43 61q33 23 39 43q-37 0 -59.5 23.5t-22.5 62.5z" />
    <glyph glyph-name="ncommaaccent" unicode="&#x146;" horiz-adv-x="556" 
d="M336 538q83 0 120 -53.5t37 -142.5v-342h-158v279q0 73 -59 73q-62 0 -62 -73v-279h-159v527h159v-68q12 34 49 56.5t73 22.5zM186 -138q0 36 29 60t63 24q40 0 66 -31t26 -81q0 -58 -35.5 -103.5t-62.5 -58.5l-43 61q33 23 39 43q-37 0 -59.5 23.5t-22.5 62.5z" />
    <glyph glyph-name="Ncaron" unicode="&#x147;" horiz-adv-x="750" 
d="M297 612l185 -313v313h167v-612h-167l-185 302v-302h-167v612h167zM244 830h88l43 -65l43 65h88l-59 -134h-144z" />
    <glyph glyph-name="ncaron" unicode="&#x148;" horiz-adv-x="556" 
d="M336 538q83 0 120 -53.5t37 -142.5v-342h-158v279q0 73 -59 73q-62 0 -62 -73v-279h-159v527h159v-68q12 34 49 56.5t73 22.5zM147 745h88l43 -65l43 65h88l-59 -134h-144z" />
    <glyph glyph-name="napostrophe" unicode="&#x149;" horiz-adv-x="584" 
d="M364 538q83 0 120 -53.5t37 -142.5v-342h-158v279q0 73 -59 73q-62 0 -62 -73v-279h-159v527h159v-68q12 34 49 56.5t73 22.5zM-120 696q0 36 29 60t63 24q40 0 66 -31t26 -81q0 -58 -35.5 -103.5t-62.5 -58.5l-43 61q33 23 39 43q-37 0 -59.5 23.5t-22.5 62.5z" />
    <glyph glyph-name="Omacron" unicode="&#x14c;" horiz-adv-x="720" 
d="M361 622q49 0 97 -15.5t94.5 -49.5t75.5 -99t29 -152t-28 -151.5t-74 -98.5t-94.5 -50t-99.5 -16q-40 0 -79 9t-79.5 32t-70.5 58t-49.5 91t-19.5 126t20 126t50.5 90.5t71 58t79.5 32.5t77 9zM361 474q-61 0 -88 -49t-27 -119q0 -81 29 -126t86 -45q113 0 113 171
q0 70 -26 119t-87 49zM572 732h-423v98h423v-98z" />
    <glyph glyph-name="omacron" unicode="&#x14d;" horiz-adv-x="614" 
d="M307 530q43 0 86.5 -15.5t83 -47t64 -86.5t24.5 -125t-24 -125t-63 -86.5t-83 -47t-88 -15.5t-88 15.5t-83.5 47t-64 86.5t-24.5 125t25 125t65 86.5t83.5 47t86.5 15.5zM307 390q-45 0 -66 -39.5t-21 -94.5q0 -64 22 -100.5t65 -36.5q85 0 85 137q0 134 -85 134z
M519 647h-423v98h423v-98z" />
    <glyph glyph-name="Obreve" unicode="&#x14e;" horiz-adv-x="720" 
d="M361 622q49 0 97 -15.5t94.5 -49.5t75.5 -99t29 -152t-28 -151.5t-74 -98.5t-94.5 -50t-99.5 -16q-40 0 -79 9t-79.5 32t-70.5 58t-49.5 91t-19.5 126t20 126t50.5 90.5t71 58t79.5 32.5t77 9zM361 474q-61 0 -88 -49t-27 -119q0 -81 29 -126t86 -45q113 0 113 171
q0 70 -26 119t-87 49zM361 776q43 0 43 55h87q0 -68 -39.5 -98.5t-90.5 -30.5q-52 0 -92 30.5t-40 98.5h88q0 -55 44 -55z" />
    <glyph glyph-name="obreve" unicode="&#x14f;" horiz-adv-x="614" 
d="M307 530q43 0 86.5 -15.5t83 -47t64 -86.5t24.5 -125t-24 -125t-63 -86.5t-83 -47t-88 -15.5t-88 15.5t-83.5 47t-64 86.5t-24.5 125t25 125t65 86.5t83.5 47t86.5 15.5zM307 390q-45 0 -66 -39.5t-21 -94.5q0 -64 22 -100.5t65 -36.5q85 0 85 137q0 134 -85 134z
M305 691q43 0 43 55h87q0 -68 -39.5 -98.5t-90.5 -30.5q-52 0 -92 30.5t-40 98.5h88q0 -55 44 -55z" />
    <glyph glyph-name="Ohungarumlaut" unicode="&#x150;" horiz-adv-x="720" 
d="M361 622q49 0 97 -15.5t94.5 -49.5t75.5 -99t29 -152t-28 -151.5t-74 -98.5t-94.5 -50t-99.5 -16q-40 0 -79 9t-79.5 32t-70.5 58t-49.5 91t-19.5 126t20 126t50.5 90.5t71 58t79.5 32.5t77 9zM361 474q-61 0 -88 -49t-27 -119q0 -81 29 -126t86 -45q113 0 113 171
q0 70 -26 119t-87 49zM577 849l-74 -126h-127l47 126h154zM385 849l-74 -126h-127l47 126h154z" />
    <glyph glyph-name="ohungarumlaut" unicode="&#x151;" horiz-adv-x="614" 
d="M307 530q43 0 86.5 -15.5t83 -47t64 -86.5t24.5 -125t-24 -125t-63 -86.5t-83 -47t-88 -15.5t-88 15.5t-83.5 47t-64 86.5t-24.5 125t25 125t65 86.5t83.5 47t86.5 15.5zM307 390q-45 0 -66 -39.5t-21 -94.5q0 -64 22 -100.5t65 -36.5q85 0 85 137q0 134 -85 134z
M504 747l-74 -126h-127l47 126h154zM312 747l-74 -126h-127l47 126h154z" />
    <glyph glyph-name="OE" unicode="&#x152;" horiz-adv-x="989" 
d="M951 452h-294v-68h230v-141h-230v-83h294v-160h-461v14q-58 -24 -123 -24q-40 0 -79 9t-79.5 32t-70.5 58t-49.5 91t-19.5 126t20 126t50.5 90.5t71 58t79.5 32.5t77 9q65 0 123 -25v15h461v-160zM367 135q113 0 113 171q0 70 -26 119t-87 49t-88 -49t-27 -119
q0 -81 29 -126t86 -45z" />
    <glyph glyph-name="oe" unicode="&#x153;" horiz-adv-x="936" 
d="M307 390q-45 0 -66 -39.5t-21 -94.5q0 -64 22 -100.5t65 -36.5q85 0 85 137q0 134 -85 134zM645 537q96 0 160 -63t64 -166l-1 -82h-303q0 -48 32 -72t77 -24q24 0 46 6.5t37.5 16.5t27.5 19.5t17 15.5l6 7l58 -119q-2 -3 -7 -9t-22.5 -21t-38 -26t-55 -20.5t-72.5 -9.5
q-107 0 -181 66q-37 -37 -86 -55.5t-97 -18.5q-29 0 -58.5 7t-59 20.5t-55 36t-45 52t-31 70t-11.5 88.5q0 41 9 77t24 63.5t35.5 50t44 38t49 26t50 15t48.5 4.5q96 0 169 -63q68 70 169 70zM646 407q-30 0 -52 -20.5t-22 -44.5h151q0 30 -24.5 47.5t-52.5 17.5z" />
    <glyph glyph-name="Racute" unicode="&#x154;" horiz-adv-x="625" 
d="M550 413q0 -111 -91 -167l136 -246h-194l-106 216h-61v-216h-167v612h282q88 0 144.5 -55t56.5 -144zM387 413q0 26 -18 42.5t-43 16.5h-92v-119h92q29 0 45 16.5t16 43.5zM413 830l-74 -126h-127l47 126h154z" />
    <glyph glyph-name="racute" unicode="&#x155;" horiz-adv-x="465" 
d="M310 359q-80 0 -80 -97v-262h-159v527h159v-68q12 34 49 56t73 22q32 0 55 -5.5t30 -11.5l7 -5l-80 -170q-18 14 -54 14zM333 745l-74 -126h-127l47 126h154z" />
    <glyph glyph-name="Rcommaaccent" unicode="&#x156;" horiz-adv-x="625" 
d="M550 413q0 -111 -91 -167l136 -246h-194l-106 216h-61v-216h-167v612h282q88 0 144.5 -55t56.5 -144zM387 413q0 26 -18 42.5t-43 16.5h-92v-119h92q29 0 45 16.5t16 43.5zM220 -138q0 36 29 60t63 24q40 0 66 -31t26 -81q0 -58 -35.5 -103.5t-62.5 -58.5l-43 61
q33 23 39 43q-37 0 -59.5 23.5t-22.5 62.5z" />
    <glyph glyph-name="rcommaaccent" unicode="&#x157;" horiz-adv-x="465" 
d="M310 359q-80 0 -80 -97v-262h-159v527h159v-68q12 34 49 56t73 22q32 0 55 -5.5t30 -11.5l7 -5l-80 -170q-18 14 -54 14zM69 -138q0 36 29 60t63 24q40 0 66 -31t26 -81q0 -58 -35.5 -103.5t-62.5 -58.5l-43 61q33 23 39 43q-37 0 -59.5 23.5t-22.5 62.5z" />
    <glyph glyph-name="Rcaron" unicode="&#x158;" horiz-adv-x="625" 
d="M550 413q0 -111 -91 -167l136 -246h-194l-106 216h-61v-216h-167v612h282q88 0 144.5 -55t56.5 -144zM387 413q0 26 -18 42.5t-43 16.5h-92v-119h92q29 0 45 16.5t16 43.5zM181 830h88l43 -65l43 65h88l-59 -134h-144z" />
    <glyph glyph-name="rcaron" unicode="&#x159;" horiz-adv-x="465" 
d="M310 359q-80 0 -80 -97v-262h-159v527h159v-68q12 34 49 56t73 22q32 0 55 -5.5t30 -11.5l7 -5l-80 -170q-18 14 -54 14zM101 745h88l43 -65l43 65h88l-59 -134h-144z" />
    <glyph glyph-name="Sacute" unicode="&#x15a;" horiz-adv-x="623" 
d="M559 211q0 -99 -74 -160t-170 -61q-68 0 -127 15.5t-84 31.5l-26 16l65 149q109 -55 155 -55q38 0 59.5 12.5t21.5 35.5q0 18 -26.5 31.5t-64 25.5t-75 29.5t-64 55.5t-26.5 92q0 87 57.5 139.5t171.5 52.5q65 0 115.5 -15.5t68.5 -31.5l19 -15l-53 -123q0 1 -17 10
t-49.5 19t-63.5 10q-33 0 -54.5 -12t-21.5 -33t27 -34t66 -23.5t77.5 -26t65.5 -50t27 -85.5zM471 830l-74 -126h-127l47 126h154z" />
    <glyph glyph-name="sacute" unicode="&#x15b;" horiz-adv-x="517" 
d="M468 170q0 -85 -63 -132.5t-148 -47.5q-58 0 -110 13t-75 26l-23 13l61 138q60 -44 117 -44q22 0 37 9.5t15 26.5q0 12 -14 21t-35 14.5t-45 17t-45 26t-35 43.5t-14 69q0 77 50.5 126t147.5 49q56 0 99.5 -14.5t59.5 -29.5l15 -14l-47 -110q0 1 -10 7.5t-33 13.5t-50 7
q-52 0 -52 -28q0 -18 20.5 -30.5t49.5 -23t57.5 -25.5t49 -46t20.5 -75zM414 745l-74 -126h-127l47 126h154z" />
    <glyph glyph-name="Scircumflex" unicode="&#x15c;" horiz-adv-x="623" 
d="M559 211q0 -99 -74 -160t-170 -61q-68 0 -127 15.5t-84 31.5l-26 16l65 149q109 -55 155 -55q38 0 59.5 12.5t21.5 35.5q0 18 -26.5 31.5t-64 25.5t-75 29.5t-64 55.5t-26.5 92q0 87 57.5 139.5t171.5 52.5q65 0 115.5 -15.5t68.5 -31.5l19 -15l-53 -123q0 1 -17 10
t-49.5 19t-63.5 10q-33 0 -54.5 -12t-21.5 -33t27 -34t66 -23.5t77.5 -26t65.5 -50t27 -85.5zM470 697h-98l-33 58l-31 -58h-100l59 134h144z" />
    <glyph glyph-name="scircumflex" unicode="&#x15d;" horiz-adv-x="517" 
d="M468 170q0 -85 -63 -132.5t-148 -47.5q-58 0 -110 13t-75 26l-23 13l61 138q60 -44 117 -44q22 0 37 9.5t15 26.5q0 12 -14 21t-35 14.5t-45 17t-45 26t-35 43.5t-14 69q0 77 50.5 126t147.5 49q56 0 99.5 -14.5t59.5 -29.5l15 -14l-47 -110q0 1 -10 7.5t-33 13.5t-50 7
q-52 0 -52 -28q0 -18 20.5 -30.5t49.5 -23t57.5 -25.5t49 -46t20.5 -75zM430 612h-98l-33 58l-31 -58h-100l59 134h144z" />
    <glyph glyph-name="Scedilla" unicode="&#x15e;" horiz-adv-x="623" 
d="M544 214q0 -78 -47.5 -133t-120.5 -77l-35 -131l-141 12l57 110q-56 4 -104.5 19.5t-68.5 28.5l-21 13l65 149q109 -55 155 -55q38 0 59.5 12.5t21.5 35.5q0 18 -26.5 31.5t-64 25.5t-75 29.5t-64 55.5t-26.5 92q0 87 57.5 139.5t171.5 52.5q65 0 115.5 -15.5t69.5 -30.5
l18 -16l-53 -123q0 1 -17 10t-49.5 19t-63.5 10q-33 0 -54.5 -12t-21.5 -33t27 -34t65.5 -23.5t77.5 -26t66 -50t27 -85.5z" />
    <glyph glyph-name="Scedilla" unicode="&#xf6c1;" horiz-adv-x="623" 
d="M544 214q0 -78 -47.5 -133t-120.5 -77l-35 -131l-141 12l57 110q-56 4 -104.5 19.5t-68.5 28.5l-21 13l65 149q109 -55 155 -55q38 0 59.5 12.5t21.5 35.5q0 18 -26.5 31.5t-64 25.5t-75 29.5t-64 55.5t-26.5 92q0 87 57.5 139.5t171.5 52.5q65 0 115.5 -15.5t69.5 -30.5
l18 -16l-53 -123q0 1 -17 10t-49.5 19t-63.5 10q-33 0 -54.5 -12t-21.5 -33t27 -34t65.5 -23.5t77.5 -26t66 -50t27 -85.5z" />
    <glyph glyph-name="scedilla" unicode="&#x15f;" horiz-adv-x="517" 
d="M468 171q0 -63 -36 -106t-94 -62l-36 -132l-141 12l57 110q-48 4 -90 16.5t-60 22.5l-19 11l61 138q60 -44 117 -44q22 0 37 9.5t15 26.5q0 12 -14 21t-35 14.5t-45 17t-45 26t-35 43.5t-14 69q0 77 50.5 126t147.5 49q56 0 99.5 -14.5t59.5 -28.5l15 -15l-47 -110
q0 1 -10 7.5t-33 13.5t-50 7q-52 0 -52 -28q0 -18 20.5 -30.5t49.5 -23t57.5 -25.5t49 -46t20.5 -75z" />
    <glyph glyph-name="scedilla" unicode="&#xf6c2;" horiz-adv-x="517" 
d="M468 171q0 -63 -36 -106t-94 -62l-36 -132l-141 12l57 110q-48 4 -90 16.5t-60 22.5l-19 11l61 138q60 -44 117 -44q22 0 37 9.5t15 26.5q0 12 -14 21t-35 14.5t-45 17t-45 26t-35 43.5t-14 69q0 77 50.5 126t147.5 49q56 0 99.5 -14.5t59.5 -28.5l15 -15l-47 -110
q0 1 -10 7.5t-33 13.5t-50 7q-52 0 -52 -28q0 -18 20.5 -30.5t49.5 -23t57.5 -25.5t49 -46t20.5 -75z" />
    <glyph glyph-name="Scaron" unicode="&#x160;" horiz-adv-x="623" 
d="M559 211q0 -99 -74 -160t-170 -61q-68 0 -127 15.5t-84 31.5l-26 16l65 149q109 -55 155 -55q38 0 59.5 12.5t21.5 35.5q0 18 -26.5 31.5t-64 25.5t-75 29.5t-64 55.5t-26.5 92q0 87 57.5 139.5t171.5 52.5q65 0 115.5 -15.5t68.5 -31.5l19 -15l-53 -123q0 1 -17 10
t-49.5 19t-63.5 10q-33 0 -54.5 -12t-21.5 -33t27 -34t66 -23.5t77.5 -26t65.5 -50t27 -85.5zM217 830h88l43 -65l43 65h88l-59 -134h-144z" />
    <glyph glyph-name="scaron" unicode="&#x161;" horiz-adv-x="517" 
d="M468 170q0 -85 -63 -132.5t-148 -47.5q-58 0 -110 13t-75 26l-23 13l61 138q60 -44 117 -44q22 0 37 9.5t15 26.5q0 12 -14 21t-35 14.5t-45 17t-45 26t-35 43.5t-14 69q0 77 50.5 126t147.5 49q56 0 99.5 -14.5t59.5 -29.5l15 -14l-47 -110q0 1 -10 7.5t-33 13.5t-50 7
q-52 0 -52 -28q0 -18 20.5 -30.5t49.5 -23t57.5 -25.5t49 -46t20.5 -75zM158 745h88l43 -65l43 65h88l-59 -134h-144z" />
    <glyph glyph-name="Tcommaaccent" unicode="&#x162;" horiz-adv-x="655" 
d="M244 457h-174v155h515v-155h-174v-457h-167v457zM235 -138q0 36 29 60t63 24q40 0 66 -31t26 -81q0 -58 -35.5 -103.5t-62.5 -58.5l-43 61q33 23 39 43q-37 0 -59.5 23.5t-22.5 62.5z" />
    <glyph glyph-name="Tcommaaccent" unicode="&#x21a;" horiz-adv-x="655" 
d="M244 457h-174v155h515v-155h-174v-457h-167v457zM235 -138q0 36 29 60t63 24q40 0 66 -31t26 -81q0 -58 -35.5 -103.5t-62.5 -58.5l-43 61q33 23 39 43q-37 0 -59.5 23.5t-22.5 62.5z" />
    <glyph glyph-name="tcommaaccent" unicode="&#x163;" horiz-adv-x="532" 
d="M153 169v221h-81v137h81v128h154v-128h146v-137h-146v-164q0 -55 6 -72.5t30 -17.5q7 0 17 4.5t16 9.5l6 4l52 -119q-33 -23 -60.5 -34t-66.5 -11q-154 0 -154 179zM174 -138q0 36 29 60t63 24q40 0 66 -31t26 -81q0 -58 -35.5 -103.5t-62.5 -58.5l-43 61q33 23 39 43
q-37 0 -59.5 23.5t-22.5 62.5z" />
    <glyph glyph-name="tcommaaccent" unicode="&#x21b;" horiz-adv-x="532" 
d="M153 169v221h-81v137h81v128h154v-128h146v-137h-146v-164q0 -55 6 -72.5t30 -17.5q7 0 17 4.5t16 9.5l6 4l52 -119q-33 -23 -60.5 -34t-66.5 -11q-154 0 -154 179zM174 -138q0 36 29 60t63 24q40 0 66 -31t26 -81q0 -58 -35.5 -103.5t-62.5 -58.5l-43 61q33 23 39 43
q-37 0 -59.5 23.5t-22.5 62.5z" />
    <glyph glyph-name="Tcaron" unicode="&#x164;" horiz-adv-x="655" 
d="M244 457h-174v155h515v-155h-174v-457h-167v457zM196 830h88l43 -65l43 65h88l-59 -134h-144z" />
    <glyph glyph-name="tcaron" unicode="&#x165;" horiz-adv-x="724" 
d="M601 742l-74 -126h-127l47 126h154zM453 390h-146v-164q0 -55 6 -72.5t30 -17.5q7 0 17 4.5t16 9.5l6 4l52 -119q-33 -23 -60.5 -34t-66.5 -11q-154 0 -154 179v221h-81v137h81v128h154v-128h146v-137z" />
    <glyph glyph-name="Tbar" unicode="&#x166;" horiz-adv-x="655" 
d="M585 457h-174v-54h128v-98h-128v-305h-167v305h-128v98h128v54h-174v155h515v-155z" />
    <glyph glyph-name="tbar" unicode="&#x167;" horiz-adv-x="532" 
d="M428 390h-146v-70h137v-98h-137q0 -53 6 -69.5t30 -16.5q7 0 17 4.5t16 9.5l6 4l52 -119q-33 -23 -60.5 -34t-66.5 -11q-154 0 -154 179v53h-81v98h81v70h-81v137h81v128h154v-128h146v-137z" />
    <glyph glyph-name="Utilde" unicode="&#x168;" horiz-adv-x="643" 
d="M322 -10q-129 0 -190 72.5t-61 189.5v360h163v-360q0 -50 24 -77t64 -27t63.5 27t23.5 77v360h163v-360q0 -116 -62.5 -189t-187.5 -73zM231 703l-97 64q13 36 49 62t83 26q20 0 57 -13t57 -13q38 0 51 27l106 -54q-13 -37 -41.5 -65.5t-65.5 -28.5q-34 0 -75 15.5
t-57 15.5q-45 0 -67 -36z" />
    <glyph glyph-name="utilde" unicode="&#x169;" horiz-adv-x="560" 
d="M221 -11q-83 0 -120.5 59.5t-37.5 156.5v322h159v-292q0 -73 59 -73q63 0 63 73v292h158v-527h-158v68q-12 -34 -49.5 -56.5t-73.5 -22.5zM199 618l-97 64q13 36 49 62t83 26q20 0 57 -13t57 -13q38 0 51 27l106 -54q-13 -37 -41.5 -65.5t-65.5 -28.5q-34 0 -75 15.5
t-57 15.5q-45 0 -67 -36z" />
    <glyph glyph-name="Umacron" unicode="&#x16a;" horiz-adv-x="643" 
d="M322 -10q-129 0 -190 72.5t-61 189.5v360h163v-360q0 -50 24 -77t64 -27t63.5 27t23.5 77v360h163v-360q0 -116 -62.5 -189t-187.5 -73zM533 732h-423v98h423v-98z" />
    <glyph glyph-name="umacron" unicode="&#x16b;" horiz-adv-x="557" 
d="M221 -11q-83 0 -120.5 59.5t-37.5 156.5v322h159v-292q0 -73 59 -73q63 0 63 73v292h158v-527h-158v68q-12 -34 -49.5 -56.5t-73.5 -22.5zM501 647h-423v98h423v-98z" />
    <glyph glyph-name="Ubreve" unicode="&#x16c;" horiz-adv-x="643" 
d="M322 -10q-129 0 -190 72.5t-61 189.5v360h163v-360q0 -50 24 -77t64 -27t63.5 27t23.5 77v360h163v-360q0 -116 -62.5 -189t-187.5 -73zM322 776q43 0 43 55h87q0 -68 -39.5 -98.5t-90.5 -30.5q-52 0 -92 30.5t-40 98.5h88q0 -55 44 -55z" />
    <glyph glyph-name="ubreve" unicode="&#x16d;" horiz-adv-x="557" 
d="M221 -11q-83 0 -120.5 59.5t-37.5 156.5v322h159v-292q0 -73 59 -73q63 0 63 73v292h158v-527h-158v68q-12 -34 -49.5 -56.5t-73.5 -22.5zM290 691q43 0 43 55h87q0 -68 -39.5 -98.5t-90.5 -30.5q-52 0 -92 30.5t-40 98.5h88q0 -55 44 -55z" />
    <glyph glyph-name="Uring" unicode="&#x16e;" horiz-adv-x="643" 
d="M322 -10q-129 0 -190 72.5t-61 189.5v360h163v-360q0 -50 24 -77t64 -27t63.5 27t23.5 77v360h163v-360q0 -116 -62.5 -189t-187.5 -73zM322 859q36 0 61.5 -25t25.5 -61q0 -37 -25.5 -62.5t-61.5 -25.5q-37 0 -62.5 25.5t-25.5 62.5q0 36 25.5 61t62.5 25zM321 808
q-14 0 -24 -10.5t-10 -24.5q0 -15 10 -25t24 -10q15 0 25.5 10t10.5 25q0 14 -11 24.5t-25 10.5z" />
    <glyph glyph-name="uring" unicode="&#x16f;" horiz-adv-x="557" 
d="M221 -11q-83 0 -120.5 59.5t-37.5 156.5v322h159v-292q0 -73 59 -73q63 0 63 73v292h158v-527h-158v68q-12 -34 -49.5 -56.5t-73.5 -22.5zM290 753q36 0 61.5 -25t25.5 -61q0 -37 -25.5 -62.5t-61.5 -25.5q-37 0 -62.5 25.5t-25.5 62.5q0 36 25.5 61t62.5 25zM289 702
q-14 0 -24 -10.5t-10 -24.5q0 -15 10 -25t24 -10q15 0 25.5 10t10.5 25q0 14 -11 24.5t-25 10.5z" />
    <glyph glyph-name="Uhungarumlaut" unicode="&#x170;" horiz-adv-x="643" 
d="M322 -10q-129 0 -190 72.5t-61 189.5v360h163v-360q0 -50 24 -77t64 -27t63.5 27t23.5 77v360h163v-360q0 -116 -62.5 -189t-187.5 -73zM543 795l-74 -126h-127l47 126h154zM351 795l-74 -126h-127l47 126h154z" />
    <glyph glyph-name="uhungarumlaut" unicode="&#x171;" horiz-adv-x="562" 
d="M221 -11q-83 0 -120.5 59.5t-37.5 156.5v322h159v-292q0 -73 59 -73q63 0 63 73v292h158v-527h-158v68q-12 -34 -49.5 -56.5t-73.5 -22.5zM507 747l-74 -126h-127l47 126h154zM315 747l-74 -126h-127l47 126h154z" />
    <glyph glyph-name="Uogonek" unicode="&#x172;" horiz-adv-x="643" 
d="M409 612h163v-360q0 -85 -34 -149t-103 -93q-14 -19 -14 -44t21 -25q20 0 28 8l27 -56q-23 -23 -68 -23q-42 0 -71 21.5t-29 55.5q0 21 12 43h-19q-129 0 -190 72.5t-61 189.5v360h163v-360q0 -50 24 -77t64 -27t63.5 27t23.5 77v360z" />
    <glyph glyph-name="uogonek" unicode="&#x173;" horiz-adv-x="574" 
d="M519 -60l27 -56q-23 -23 -68 -23q-42 0 -71 21.5t-29 55.5q0 31 23 62h-55v68q-12 -34 -49.5 -56.5t-73.5 -22.5q-83 0 -120.5 59.5t-37.5 156.5v322h159v-292q0 -73 59 -73q63 0 63 73v292h158v-527h-21q-13 -20 -13 -43q0 -25 21 -25q20 0 28 8z" />
    <glyph glyph-name="Wcircumflex" unicode="&#x174;" horiz-adv-x="1111" 
d="M876 612h184l-196 -612h-195l-114 324l-112 -324h-195l-197 612h184l111 -352l120 345h179l122 -345zM686 697h-98l-33 58l-31 -58h-100l59 134h144z" />
    <glyph glyph-name="wcircumflex" unicode="&#x175;" horiz-adv-x="908" 
d="M677 527h170l-159 -527h-158l-78 304l-80 -304h-158l-153 527h164l68 -299l72 299h171l73 -299zM585 612h-98l-33 58l-31 -58h-100l59 134h144z" />
    <glyph glyph-name="Ycircumflex" unicode="&#x176;" horiz-adv-x="690" 
d="M472 612h167l-211 -363v-249h-167v249l-210 363h167l127 -216zM476 697h-98l-33 58l-31 -58h-100l59 134h144z" />
    <glyph glyph-name="ycircumflex" unicode="&#x177;" 
d="M170 -191q-26 0 -55 8.5t-45 16.5l-17 9l53 124q23 -13 53 -13q37 0 53 90l-163 483h170l74 -279l72 279h165q-114 -359 -151 -477q-76 -241 -209 -241zM415 612h-98l-33 58l-31 -58h-100l59 134h144z" />
    <glyph glyph-name="Ydieresis" unicode="&#x178;" horiz-adv-x="690" 
d="M472 612h167l-211 -363v-249h-167v249l-210 363h167l127 -216zM438 690q-29 0 -49.5 20.5t-20.5 50.5q0 29 20.5 49.5t49.5 20.5t50 -20.5t21 -49.5q0 -30 -21 -50.5t-50 -20.5zM250 690q-29 0 -49.5 20.5t-20.5 50.5q0 29 20.5 49.5t49.5 20.5t50 -20.5t21 -49.5
q0 -30 -21 -50.5t-50 -20.5z" />
    <glyph glyph-name="Zacute" unicode="&#x179;" horiz-adv-x="637" 
d="M570 612v-155l-277 -303h277v-154h-503v154l284 303h-269v155h488zM419 830l-74 -126h-127l47 126h154z" />
    <glyph glyph-name="zacute" unicode="&#x17a;" horiz-adv-x="512" 
d="M452 526v-132l-209 -257h214v-137h-402v137l211 256h-193v133h379zM396 745l-74 -126h-127l47 126h154z" />
    <glyph glyph-name="Zdotaccent" unicode="&#x17b;" horiz-adv-x="637" 
d="M570 612v-155l-277 -303h277v-154h-503v154l284 303h-269v155h488zM318 700q-29 0 -49.5 20.5t-20.5 50.5q0 29 20.5 49.5t49.5 20.5t50 -20.5t21 -49.5q0 -30 -21 -50.5t-50 -20.5z" />
    <glyph glyph-name="zdotaccent" unicode="&#x17c;" horiz-adv-x="512" 
d="M452 526v-132l-209 -257h214v-137h-402v137l211 256h-193v133h379zM274 611q-29 0 -49.5 20.5t-20.5 50.5q0 29 20.5 49.5t49.5 20.5t50 -20.5t21 -49.5q0 -30 -21 -50.5t-50 -20.5z" />
    <glyph glyph-name="Zcaron" unicode="&#x17d;" horiz-adv-x="637" 
d="M570 612v-155l-277 -303h277v-154h-503v154l284 303h-269v155h488zM187 830h88l43 -65l43 65h88l-59 -134h-144z" />
    <glyph glyph-name="zcaron" unicode="&#x17e;" horiz-adv-x="512" 
d="M452 526v-132l-209 -257h214v-137h-402v137l211 256h-193v133h379zM142 745h88l43 -65l43 65h88l-59 -134h-144z" />
    <glyph glyph-name="AEacute" unicode="&#x1fc;" horiz-adv-x="885" 
d="M541 826l-74 -126h-127l47 126h154zM805 452h-294v-68h230v-141h-230v-83h294v-160h-461v124h-87l-39 -124h-167l193 612h561v-160zM295 275h49v186z" />
    <glyph glyph-name="aeacute" unicode="&#x1fd;" horiz-adv-x="861" 
d="M587 537q92 0 155 -63t63 -166l-1 -4v-78h-303q0 -48 30.5 -72t70.5 -24q26 0 50 6.5t40 16t28.5 19.5t17.5 16l6 7l58 -119q-2 -3 -7 -9t-23.5 -21t-40 -26t-59 -20.5t-79.5 -9.5q-53 0 -98.5 19.5t-67.5 49.5q-24 -27 -81 -48t-114 -21q-84 0 -133.5 48.5t-49.5 132.5
q0 79 57 127t125 48q45 0 92 -20q2 -1 6.5 -3t6.5 -3q-6 37 -27.5 56t-67.5 19q-56 0 -119 -47l-51 111q79 79 198 79q90 0 152 -63q67 62 166 62zM338 145v63q-20 23 -73 23q-20 0 -41.5 -17.5t-21.5 -43.5q0 -25 18.5 -38.5t44.5 -13.5q51 0 73 27zM508 342h151
q0 31 -23.5 50t-53.5 19q-25 0 -49.5 -18.5t-24.5 -50.5zM450 745l-74 -126h-127l47 126h154z" />
    <glyph glyph-name="Scommaaccent" unicode="&#x218;" horiz-adv-x="623" 
d="M343 -55q40 0 66 -31t26 -81q0 -58 -35.5 -103.5t-62.5 -58.5l-43 61q33 23 39 43q-37 0 -59.5 23.5t-22.5 62.5q0 36 29 60t63 24zM296 430q0 -21 27 -34t66 -23.5t77.5 -26t65.5 -50t27 -85.5q0 -99 -74 -160t-170 -61q-68 0 -127 15.5t-84 31.5l-26 16l65 149
q109 -55 155 -55q38 0 59.5 12.5t21.5 35.5q0 18 -26.5 31.5t-64 25.5t-75 29.5t-64 55.5t-26.5 92q0 87 57.5 139.5t171.5 52.5q65 0 115.5 -15.5t68.5 -31.5l19 -15l-53 -123q0 1 -17 10t-49.5 19t-63.5 10q-33 0 -54.5 -12t-21.5 -33z" />
    <glyph glyph-name="scommaaccent" unicode="&#x219;" horiz-adv-x="517" 
d="M468 170q0 -85 -63 -132.5t-148 -47.5q-58 0 -110 13t-75 26l-23 13l61 138q60 -44 117 -44q22 0 37 9.5t15 26.5q0 12 -14 21t-35 14.5t-45 17t-45 26t-35 43.5t-14 69q0 77 50.5 126t147.5 49q56 0 99.5 -14.5t59.5 -29.5l15 -14l-47 -110q0 1 -10 7.5t-33 13.5t-50 7
q-52 0 -52 -28q0 -18 20.5 -30.5t49.5 -23t57.5 -25.5t49 -46t20.5 -75zM165 -138q0 36 29 60t63 24q40 0 66 -31t26 -81q0 -58 -35.5 -103.5t-62.5 -58.5l-43 61q33 23 39 43q-37 0 -59.5 23.5t-22.5 62.5z" />
    <glyph glyph-name="circumflex" unicode="&#x2c6;" horiz-adv-x="539" 
d="M402 612h-98l-33 58l-31 -58h-100l59 134h144z" />
    <glyph glyph-name="caron" unicode="&#x2c7;" horiz-adv-x="444" 
d="M100 745h88l43 -65l43 65h88l-59 -134h-144z" />
    <glyph glyph-name="breve" unicode="&#x2d8;" horiz-adv-x="359" 
d="M189 691q43 0 43 55h87q0 -68 -39.5 -98.5t-90.5 -30.5q-52 0 -92 30.5t-40 98.5h88q0 -55 44 -55z" />
    <glyph glyph-name="dotaccent" unicode="&#x2d9;" horiz-adv-x="321" 
d="M156 697q-29 0 -49.5 20.5t-20.5 50.5q0 29 20.5 49.5t49.5 20.5t50 -20.5t21 -49.5q0 -30 -21 -50.5t-50 -20.5z" />
    <glyph glyph-name="ring" unicode="&#x2da;" horiz-adv-x="833" 
d="M333 671q36 0 61.5 -25t25.5 -61q0 -37 -25.5 -62.5t-61.5 -25.5q-37 0 -62.5 25.5t-25.5 62.5q0 36 25.5 61t62.5 25zM332 620q-14 0 -24 -10.5t-10 -24.5q0 -15 10 -25t24 -10q15 0 25.5 10t10.5 25q0 14 -11 24.5t-25 10.5z" />
    <glyph glyph-name="ogonek" unicode="&#x2db;" horiz-adv-x="833" 
d="M433 -107q-23 -23 -68 -23q-42 0 -71 21.5t-29 55.5q0 22 12.5 44.5t24.5 34.5l13 12l56 -27q-14 -28 -14 -45q0 -25 21 -25q20 0 28 8z" />
    <glyph glyph-name="tilde" unicode="&#x2dc;" horiz-adv-x="472" 
d="M137 618l-97 64q13 36 49 62t83 26q20 0 57 -13t57 -13q38 0 51 27l106 -54q-13 -37 -41.5 -65.5t-65.5 -28.5q-34 0 -75 15.5t-57 15.5q-45 0 -67 -36z" />
    <glyph glyph-name="hungarumlaut" unicode="&#x2dd;" horiz-adv-x="607" 
d="M564 829l-74 -126h-127l47 126h154zM372 829l-74 -126h-127l47 126h154z" />
    <glyph glyph-name="Wgrave" unicode="&#x1e80;" horiz-adv-x="1111" 
d="M876 612h184l-196 -612h-195l-114 324l-112 -324h-195l-197 612h184l111 -352l120 345h179l122 -345zM529 705l-74 126h154l47 -126h-127z" />
    <glyph glyph-name="wgrave" unicode="&#x1e81;" horiz-adv-x="908" 
d="M677 527h170l-159 -527h-158l-78 304l-80 -304h-158l-153 527h164l68 -299l72 299h171l73 -299zM427 620l-74 126h154l47 -126h-127z" />
    <glyph glyph-name="Wacute" unicode="&#x1e82;" horiz-adv-x="1111" 
d="M876 612h184l-196 -612h-195l-114 324l-112 -324h-195l-197 612h184l111 -352l120 345h179l122 -345zM656 830l-74 -126h-127l47 126h154z" />
    <glyph glyph-name="wacute" unicode="&#x1e83;" horiz-adv-x="908" 
d="M677 527h170l-159 -527h-158l-78 304l-80 -304h-158l-153 527h164l68 -299l72 299h171l73 -299zM584 745l-74 -126h-127l47 126h154z" />
    <glyph glyph-name="Wdieresis" unicode="&#x1e84;" horiz-adv-x="1111" 
d="M655 831q29 0 50 -20.5t21 -49.5q0 -30 -21 -50.5t-50 -20.5t-49.5 20.5t-20.5 50.5q0 29 20.5 49.5t49.5 20.5zM431 831q29 0 50 -20.5t21 -49.5q0 -30 -21 -50.5t-50 -20.5t-49.5 20.5t-20.5 50.5q0 29 20.5 49.5t49.5 20.5zM876 612h184l-196 -612h-195l-114 324
l-112 -324h-195l-197 612h184l111 -352l120 345h179l122 -345z" />
    <glyph glyph-name="wdieresis" unicode="&#x1e85;" horiz-adv-x="908" 
d="M677 527h170l-159 -527h-158l-78 304l-80 -304h-158l-153 527h164l68 -299l72 299h171l73 -299zM547 605q-29 0 -49.5 20.5t-20.5 50.5q0 29 20.5 49.5t49.5 20.5t50 -20.5t21 -49.5q0 -30 -21 -50.5t-50 -20.5zM359 605q-29 0 -49.5 20.5t-20.5 50.5q0 29 20.5 49.5
t49.5 20.5t50 -20.5t21 -49.5q0 -30 -21 -50.5t-50 -20.5z" />
    <glyph glyph-name="Ygrave" unicode="&#x1ef2;" horiz-adv-x="690" 
d="M472 612h167l-211 -363v-249h-167v249l-210 363h167l127 -216zM284 705l-74 126h154l47 -126h-127z" />
    <glyph glyph-name="ygrave" unicode="&#x1ef3;" 
d="M170 -191q-26 0 -55 8.5t-45 16.5l-17 9l53 124q23 -13 53 -13q37 0 53 90l-163 483h170l74 -279l72 279h165q-114 -359 -151 -477q-76 -241 -209 -241zM257 620l-74 126h154l47 -126h-127z" />
    <glyph glyph-name="endash" unicode="&#x2013;" horiz-adv-x="555" 
d="M532 200h-509v149h509v-149z" />
    <glyph glyph-name="emdash" unicode="&#x2014;" horiz-adv-x="687" 
d="M664 200h-641v149h641v-149z" />
    <glyph glyph-name="quoteleft" unicode="&#x2018;" horiz-adv-x="230" 
d="M115 412q-40 0 -66 31t-26 81q0 58 35.5 103.5t62.5 58.5l43 -61q-33 -23 -39 -43q37 0 59.5 -23.5t22.5 -62.5q0 -36 -29 -60t-63 -24z" />
    <glyph glyph-name="quoteright" unicode="&#x2019;" horiz-adv-x="230" 
d="M115 657q40 0 66 -31t26 -81q0 -58 -35.5 -103.5t-62.5 -58.5l-43 61q33 23 39 43q-37 0 -59.5 23.5t-22.5 62.5q0 36 29 60t63 24z" />
    <glyph glyph-name="quotesinglbase" unicode="&#x201a;" horiz-adv-x="278" 
d="M139 248q51 0 83.5 -38.5t32.5 -102.5q0 -72 -45 -129.5t-78 -73.5l-55 76q43 30 49 54q-46 0 -74.5 29.5t-28.5 78.5q0 46 36.5 76t79.5 30z" />
    <glyph glyph-name="quotedblleft" unicode="&#x201c;" horiz-adv-x="580" 
d="M291 552q0 64 32.5 102.5t83.5 38.5q43 0 79.5 -30t36.5 -76q0 -49 -28.5 -78.5t-74.5 -29.5q6 -24 49 -54l-55 -76q-33 16 -78 73.5t-45 129.5zM23 552q0 64 32.5 102.5t83.5 38.5q43 0 79.5 -30t36.5 -76q0 -49 -28.5 -78.5t-74.5 -29.5q6 -24 49 -54l-55 -76
q-33 16 -78 73.5t-45 129.5z" />
    <glyph glyph-name="quotedblright" unicode="&#x201d;" horiz-adv-x="546" 
d="M139 691q51 0 83.5 -38.5t32.5 -102.5q0 -72 -45 -129.5t-78 -73.5l-55 76q43 30 49 54q-46 0 -74.5 29.5t-28.5 78.5q0 46 36.5 76t79.5 30zM407 691q51 0 83.5 -38.5t32.5 -102.5q0 -72 -45 -129.5t-78 -73.5l-55 76q43 30 49 54q-46 0 -74.5 29.5t-28.5 78.5
q0 46 36.5 76t79.5 30z" />
    <glyph glyph-name="quotedblbase" unicode="&#x201e;" horiz-adv-x="546" 
d="M139 248q51 0 83.5 -38.5t32.5 -102.5q0 -72 -45 -129.5t-78 -73.5l-55 76q43 30 49 54q-46 0 -74.5 29.5t-28.5 78.5q0 46 36.5 76t79.5 30zM407 248q51 0 83.5 -38.5t32.5 -102.5q0 -72 -45 -129.5t-78 -73.5l-55 76q43 30 49 54q-46 0 -74.5 29.5t-28.5 78.5
q0 46 36.5 76t79.5 30z" />
    <glyph glyph-name="dagger" unicode="&#x2020;" horiz-adv-x="530" 
d="M480 343h-128v-512h-167v512h-128v149h128v347h167v-347h128v-149z" />
    <glyph glyph-name="daggerdbl" unicode="&#x2021;" horiz-adv-x="538" 
d="M483 414h-128v-174h128v-148h-128v-261h-167v261h-128v148h128v174h-128v148h128v277h167v-277h128v-148z" />
    <glyph glyph-name="bullet" unicode="&#x2022;" horiz-adv-x="262" 
d="M239 310q0 -44 -31.5 -76t-76.5 -32t-76.5 32t-31.5 76q0 45 31.5 77t76.5 32t76.5 -32t31.5 -77z" />
    <glyph glyph-name="ellipsis" unicode="&#x2026;" horiz-adv-x="914" 
d="M239 98q0 -44 -31.5 -76t-76.5 -32t-76.5 32t-31.5 76q0 45 31.5 77t76.5 32t76.5 -32t31.5 -77zM565 98q0 -44 -31.5 -76t-76.5 -32t-76.5 32t-31.5 76q0 45 31.5 77t76.5 32t76.5 -32t31.5 -77zM891 98q0 -44 -31.5 -76t-76.5 -32t-76.5 32t-31.5 76q0 45 31.5 77
t76.5 32t76.5 -32t31.5 -77z" />
    <glyph glyph-name="perthousand" unicode="&#x2030;" horiz-adv-x="1122" 
d="M223 624q66 0 99 -49t33 -115t-33 -114.5t-99 -48.5q-67 0 -100.5 49t-33.5 114t34 114.5t100 49.5zM223 401q28 0 28 59q0 60 -28 60q-29 0 -29 -60q0 -59 29 -59zM684 612l-300 -612h-141l300 612h141zM697 315q66 0 99 -49t33 -115t-33 -114.5t-99 -48.5
q-67 0 -100.5 49t-33.5 114t34 114.5t100 49.5zM697 92q28 0 28 59q0 60 -28 60q-29 0 -29 -60q0 -59 29 -59zM1009 315q66 0 99 -49t33 -115t-33 -114.5t-99 -48.5q-67 0 -100.5 49t-33.5 114t34 114.5t100 49.5zM1009 92q28 0 28 59q0 60 -28 60q-29 0 -29 -60
q0 -59 29 -59z" />
    <glyph glyph-name="guilsinglleft" unicode="&#x2039;" horiz-adv-x="321" 
d="M298 435l-106 -209l106 -209h-166l-109 209l109 209h166z" />
    <glyph glyph-name="guilsinglright" unicode="&#x203a;" horiz-adv-x="321" 
d="M129 226l-106 209h166l109 -209l-109 -209h-166z" />
    <glyph glyph-name="fraction" unicode="&#x2044;" horiz-adv-x="408" 
d="M406 700l-266 -766h-138l266 766h138z" />
    <glyph glyph-name="zerosuperior" unicode="&#x2070;" horiz-adv-x="309" 
d="M155 297q-41 0 -69.5 18t-41.5 46.5t-18 52t-5 44.5t5 44.5t18 52.5t41.5 47.5t69.5 18.5t69.5 -18.5t41 -47.5t17.5 -52.5t5 -44.5t-5 -44t-17.5 -51.5t-41 -47t-69.5 -18.5zM155 534q-35 0 -35 -76q0 -75 35 -75q34 0 34 75q-1 21 -2 33t-9 27.5t-23 15.5z" />
    <glyph glyph-name="foursuperior" unicode="&#x2074;" horiz-adv-x="304" 
d="M289 449v-86h-44v-68h-102v68h-122v68l105 181h119v-163h44zM143 502l-27 -53h27v53z" />
    <glyph glyph-name="fivesuperior" unicode="&#x2075;" horiz-adv-x="281" 
d="M134 525l-1 -11q127 0 127 -111q0 -48 -38 -80.5t-88 -32.5q-57 0 -110 31l-3 2l32 86q43 -26 73 -26t30 23q0 24 -66 24h-44l6 182h185v-87h-103z" />
    <glyph glyph-name="sixsuperior" unicode="&#x2076;" horiz-adv-x="283" 
d="M157 399q0 31 -23 31t-23 -31q0 -30 23 -30t23 30zM252 399q0 -50 -32.5 -80.5t-85.5 -30.5t-85 30.5t-32 80.5q0 21 7 44t14 37t22.5 40.5t20.5 36.5l32 55h104l-54 -109h1q39 0 63.5 -31.5t24.5 -72.5z" />
    <glyph glyph-name="sevensuperior" unicode="&#x2077;" horiz-adv-x="261" 
d="M240 612v-75l-105 -242h-115l103 228h-99v89h216z" />
    <glyph glyph-name="eightsuperior" unicode="&#x2078;" horiz-adv-x="275" 
d="M137 293q-49 0 -82.5 28t-33.5 75q0 50 40 79q-23 25 -23 58q0 40 28.5 64t70.5 24t71.5 -24t29.5 -64q0 -33 -23 -58q39 -27 39 -79q0 -47 -34 -75t-83 -28zM137 510q18 0 18 19q0 17 -18 17q-6 0 -11 -5t-5 -12q0 -8 5 -13.5t11 -5.5zM138 428q-11 0 -18.5 -8.5
t-7.5 -19.5q0 -27 26 -27q12 0 19.5 7.5t7.5 19.5t-7.5 20t-19.5 8z" />
    <glyph glyph-name="ninesuperior" unicode="&#x2079;" horiz-adv-x="277" 
d="M112 508q0 -31 23 -31t23 31q0 30 -23 30t-23 -30zM17 508q0 50 32.5 80.5t85.5 30.5t85 -30.5t32 -80.5q0 -21 -7 -44t-14 -37t-22.5 -40.5t-20.5 -36.5l-32 -55h-104l54 109h-1q-39 0 -63.5 31.5t-24.5 72.5z" />
    <glyph glyph-name="parenleftsuperior" unicode="&#x207d;" horiz-adv-x="181" 
d="M119 640l40 -56q-61 -47 -61 -126q0 -78 62 -123l-41 -58q-98 72 -98 181q0 110 98 182z" />
    <glyph glyph-name="parenrightsuperior" unicode="&#x207e;" horiz-adv-x="181" 
d="M22 582l40 56q98 -72 98 -182q0 -109 -98 -181l-41 58q62 45 62 123q0 79 -61 126z" />
    <glyph glyph-name="parenleftinferior" unicode="&#x208d;" horiz-adv-x="181" 
d="M119 338l40 -56q-61 -47 -61 -126q0 -78 62 -123l-41 -58q-98 72 -98 181q0 110 98 182z" />
    <glyph glyph-name="parenrightinferior" unicode="&#x208e;" horiz-adv-x="181" 
d="M22 281l40 56q98 -72 98 -182q0 -109 -98 -181l-41 58q62 45 62 123q0 79 -61 126z" />
    <glyph glyph-name="franc" unicode="&#x20a3;" horiz-adv-x="664" 
d="M528 475h-252v-67h173v-139h-173v-77h71v-110h-71v-82h-143v82h-57v110h57v420h395v-137z" />
    <glyph glyph-name="lira" unicode="&#x20a4;" horiz-adv-x="595" 
d="M355 501q-22 0 -38 -9.5t-23.5 -21.5t-11.5 -34t-4.5 -35t-0.5 -37h92v-92h-92q0 -37 -16.5 -82.5t-32.5 -58.5h196v-127h-373v127h14q33 0 54.5 44t21.5 97h-73v92h74q-6 109 40.5 184t151.5 75q29 0 55 -6t43 -14.5t30 -17.5t19 -15l6 -6l-43 -91q-43 28 -89 28z" />
    <glyph glyph-name="Euro" unicode="&#x20ac;" horiz-adv-x="685" 
d="M432 150q31 0 62 10.5t46 21.5l15 11l64 -141q-9 -7 -25.5 -18t-69.5 -29t-109 -17q-41 0 -82.5 12t-83 37t-73.5 70.5t-46 105.5h-85v74h76v20v8h-76v74h84q14 63 47 110.5t75.5 72.5t85.5 36.5t85 11.5q56 -1 106.5 -18t73.5 -34l23 -17l-68 -140q-6 5 -16.5 12.5
t-42 21t-62.5 13.5q-89 0 -125 -69h113v-74h-131v-10v-18h131v-74h-110q35 -63 118 -63z" />
    <glyph glyph-name="afii61352" unicode="&#x2116;" horiz-adv-x="962" 
d="M751 586q54 0 92 -37t38 -91q0 -56 -38 -93.5t-92 -37.5q-55 0 -93 37.5t-38 93.5q0 54 38 91t93 37zM750 413q19 0 32.5 13t13.5 32t-13.5 32t-32.5 13q-17 0 -30 -13t-13 -32t12.5 -32t30.5 -13zM869 191h-236v104h236v-104zM390 612h167v-612h-167l-185 321v-321h-167
v612h167l185 -322v322z" />
    <glyph glyph-name="minus" unicode="&#x2212;" horiz-adv-x="648" 
d="M521 200h-423v149h423v-149z" />
    <glyph glyph-name="uni2215" unicode="&#x2215;" horiz-adv-x="424" 
d="M414 700l-266 -766h-138l266 766h138z" />
    <glyph glyph-name="uni2219" unicode="&#x2219;" horiz-adv-x="306" 
d="M261 310q0 -44 -31.5 -76t-76.5 -32t-76.5 32t-31.5 76q0 45 31.5 77t76.5 32t76.5 -32t31.5 -77z" />
    <glyph glyph-name="radical" unicode="&#x221a;" horiz-adv-x="725" 
d="M723 710l-401 -818l-153 285h-146v129h229l60 -124l251 528h160z" />
    <glyph glyph-name="approxequal" unicode="&#x2248;" horiz-adv-x="488" 
d="M142 335l-97 54q52 103 132 103q23 0 56 -13.5t46 -13.5q16 0 31 8.5t21 21.5l106 -58q-23 -41 -58 -69t-73 -28q-22 0 -57 15t-50 15q-17 0 -33.5 -10.5t-23.5 -24.5zM148 136l-97 54q52 103 132 103q23 0 56 -13.5t46 -13.5q16 0 31 8.5t21 21.5l106 -58
q-23 -41 -58 -69t-73 -28q-22 0 -57 15t-50 15q-17 0 -33.5 -10.5t-23.5 -24.5z" />
    <glyph glyph-name="notequal" unicode="&#x2260;" horiz-adv-x="642" 
d="M541 359h-147l-22 -64h169v-148h-221l-74 -213h-93l74 213h-109v148h160l22 64h-182v148h234l62 180h94l-63 -180h96v-148z" />
    <glyph glyph-name="lessequal" unicode="&#x2264;" horiz-adv-x="513" 
d="M468 556v-137l-273 -49l273 -48v-138l-422 100v172zM45 0v149h423v-149h-423z" />
    <glyph glyph-name="greaterequal" unicode="&#x2265;" horiz-adv-x="513" 
d="M45 419v137l422 -100v-172l-422 -100v138l273 48zM45 0v149h423v-149h-423z" />
    <glyph glyph-name="triangle" unicode="&#x25b3;" horiz-adv-x="274" 
d="M259 291l-244 -153v307z" />
    <glyph glyph-name="circle" unicode="&#x25cb;" horiz-adv-x="250" 
d="M8 291q0 47 33 80t80 33t80.5 -33t33.5 -80t-33.5 -80t-80.5 -33t-80 33t-33 80z" />
    <glyph glyph-name="commaaccent" unicode="&#xf6c3;" horiz-adv-x="303" 
d="M67 -138q0 36 29 60t63 24q40 0 66 -31t26 -81q0 -58 -35.5 -103.5t-62.5 -58.5l-43 61q33 23 39 43q-37 0 -59.5 23.5t-22.5 62.5z" />
    <glyph glyph-name="longs_t" unicode="&#xfb05;" horiz-adv-x="633" 
 />
    <glyph glyph-name="percent" horiz-adv-x="828" 
d="M197 624q66 0 99 -49t33 -115t-33 -114.5t-99 -48.5q-67 0 -100.5 49t-33.5 114t34 114.5t100 49.5zM197 401q28 0 28 59q0 60 -28 60q-29 0 -29 -60q0 -59 29 -59zM638 612l-300 -612h-141l300 612h141zM638 315q66 0 99 -49t33 -115t-33 -114.5t-99 -48.5
q-67 0 -100.5 49t-33.5 114t34 114.5t100 49.5zM638 92q28 0 28 59q0 60 -28 60q-29 0 -29 -60q0 -59 29 -59z" />
    <glyph glyph-name="OE.001" horiz-adv-x="854" 
d="M302 538q57 0 110 -23v12h397v-138h-253v-58h198v-122h-198v-71h253v-138h-397v15q-50 -22 -110 -22q-44 0 -86 13.5t-82 43t-64.5 85t-24.5 130.5q0 60 17 108.5t44 78.5t62 50t68 28t66 8zM302 410q-53 0 -76 -42.5t-23 -102.5q0 -69 25 -108t74 -39q97 0 97 147
q0 38 -7.5 68.5t-30.5 53.5t-59 23z" />
    <glyph glyph-name="AE.001" horiz-adv-x="785" 
d="M705 389h-253v-58h198v-122h-198v-71h253v-138h-397v106h-70l-34 -106h-153l167 527h487v-138zM308 240v137l-36 -137h36z" />
    <glyph glyph-name="DEL" horiz-adv-x="606" 
d="M519 200h-423v149h423v-149z" />
    <glyph glyph-name="Acircumflex.001" horiz-adv-x="604" 
d="M335 611l-33 58l-31 -58h-100l59 134h144l59 -134h-98zM266 240h72l-36 137zM392 527l167 -527h-153l-34 106h-140l-34 -106h-153l167 527h180z" />
    <glyph glyph-name="Aacute.001" horiz-adv-x="604" 
d="M372 619h-127l47 126h154zM266 240h72l-36 137zM392 527l167 -527h-153l-34 106h-140l-34 -106h-153l167 527h180z" />
    <glyph glyph-name="Adieresis.001" horiz-adv-x="604" 
d="M396 611q-29 0 -49.5 20.5t-20.5 50.5q0 29 20.5 49.5t49.5 20.5t50 -20.5t21 -49.5q0 -30 -21 -50.5t-50 -20.5zM207 611q-29 0 -49.5 20.5t-20.5 50.5q0 29 20.5 49.5t49.5 20.5t50 -20.5t21 -49.5q0 -30 -21 -50.5t-50 -20.5zM266 240h72l-36 137zM392 527l167 -527
h-153l-34 106h-140l-34 -106h-153l167 527h180z" />
    <glyph glyph-name="Aring.001" horiz-adv-x="604" 
d="M303 753q36 0 61.5 -25t25.5 -61q0 -37 -25.5 -62.5t-61.5 -25.5q-37 0 -62.5 25.5t-25.5 62.5q0 36 25.5 61t62.5 25zM302 631q15 0 26 10.5t11 25.5t-11 25.5t-26 10.5q-14 0 -24.5 -10.5t-10.5 -25.5t10.5 -25.5t24.5 -10.5zM266 240h72l-36 137zM392 527l167 -527
h-153l-34 106h-140l-34 -106h-153l167 527h180z" />
    <glyph glyph-name="Ccedilla.001" horiz-adv-x="521" 
d="M158 -118l64 123q-35 10 -65 29.5t-56 50t-41 77t-15 103.5q0 74 25 130t65.5 85t82.5 43t84 14q48 0 91.5 -14.5t62.5 -28.5l20 -14l-56 -121q-45 39 -105 39q-57 0 -89.5 -36t-32.5 -97q0 -62 32 -97t90 -35q27 0 53 9.5t39 19.5l13 9l56 -121q-6 -5 -17.5 -13t-49 -23
t-76.5 -19l-34 -125z" />
    <glyph glyph-name="Eacute.001" horiz-adv-x="487" 
d="M45 527h397v-138h-253v-58h198v-122h-198v-71h253v-138h-397v527zM352 746l-74 -126h-127l47 126h154z" />
    <glyph glyph-name="Ntilde.001" horiz-adv-x="537" 
d="M348 527h144v-527h-144l-159 259v-259h-144v527h144l159 -264v264zM181 624l-97 64q13 36 49 62t83 26q20 0 57 -13t57 -13q38 0 51 27l106 -54q-13 -37 -41.5 -65.5t-65.5 -28.5q-34 0 -75 15.5t-57 15.5q-45 0 -67 -36z" />
    <glyph glyph-name="Odieresis.001" horiz-adv-x="602" 
d="M302 536q42 0 83.5 -13.5t81.5 -43t65 -85.5t25 -131t-24 -130.5t-64 -85t-81.5 -43t-85.5 -13.5t-86 13.5t-82 43t-64.5 85t-24.5 130.5q0 60 17 108.5t44 78.5t62 50t68 28t66 8zM302 408q-53 0 -76 -42.5t-23 -102.5q0 -69 25 -108t74 -39q97 0 97 147q0 38 -7.5 68.5
t-30.5 53.5t-59 23zM397 611q-29 0 -49.5 20.5t-20.5 50.5q0 29 20.5 49.5t49.5 20.5t50 -20.5t21 -49.5q0 -30 -21 -50.5t-50 -20.5zM209 611q-29 0 -49.5 20.5t-20.5 50.5q0 29 20.5 49.5t49.5 20.5t50 -20.5t21 -49.5q0 -30 -21 -50.5t-50 -20.5z" />
    <glyph glyph-name="Udieresis.001" horiz-adv-x="522" 
d="M337 527h140v-310q0 -100 -53.5 -163t-161.5 -63q-112 0 -164.5 62.5t-52.5 163.5v310h141v-310q0 -83 76 -83q75 0 75 83v310zM355 611q-29 0 -49.5 20.5t-20.5 50.5q0 29 20.5 49.5t49.5 20.5t50 -20.5t21 -49.5q0 -30 -21 -50.5t-50 -20.5zM167 611q-29 0 -49.5 20.5
t-20.5 50.5q0 29 20.5 49.5t49.5 20.5t50 -20.5t21 -49.5q0 -30 -21 -50.5t-50 -20.5z" />
    <glyph glyph-name="Agrave.001" horiz-adv-x="604" 
d="M162 738h154l47 -126h-127zM266 240h72l-36 137zM392 527l167 -527h-153l-34 106h-140l-34 -106h-153l167 527h180z" />
    <glyph glyph-name="Atilde.001" horiz-adv-x="604" 
d="M197 629l-97 64q13 36 49 62t83 26q20 0 57 -13t57 -13q38 0 51 27l106 -54q-13 -37 -41.5 -65.5t-65.5 -28.5q-34 0 -75 15.5t-57 15.5q-45 0 -67 -36zM266 240h72l-36 137zM392 527l167 -527h-153l-34 106h-140l-34 -106h-153l167 527h180z" />
    <glyph glyph-name="Otilde.001" horiz-adv-x="602" 
d="M197 624l-97 64q13 36 49 62t83 26q20 0 57 -13t57 -13q38 0 51 27l106 -54q-13 -37 -41.5 -65.5t-65.5 -28.5q-34 0 -75 15.5t-57 15.5q-45 0 -67 -36zM302 533q42 0 83.5 -13.5t81.5 -43t65 -85.5t25 -131t-24 -130.5t-64 -85t-81.5 -43t-85.5 -13.5t-86 13.5t-82 43
t-64.5 85t-24.5 130.5q0 60 17 108.5t44 78.5t62 50t68 28t66 8zM302 113q97 0 97 147q0 38 -7.5 68.5t-30.5 53.5t-59 23q-53 0 -76 -42.5t-23 -102.5q0 -69 25 -108t74 -39z" />
    <glyph glyph-name="Ydieresis.001" horiz-adv-x="577" 
d="M398 527h144l-182 -313v-214h-144v214l-181 313h144l109 -177zM381 612q-29 0 -49.5 20.5t-20.5 50.5q0 29 20.5 49.5t49.5 20.5t50 -20.5t21 -49.5q0 -30 -21 -50.5t-50 -20.5zM193 612q-29 0 -49.5 20.5t-20.5 50.5q0 29 20.5 49.5t49.5 20.5t50 -20.5t21 -49.5
q0 -30 -21 -50.5t-50 -20.5z" />
    <glyph glyph-name="Ecircumflex.001" horiz-adv-x="487" 
d="M442 389h-253v-58h198v-122h-198v-71h253v-138h-397v527h397v-138zM386 611h-98l-33 58l-31 -58h-100l59 134h144z" />
    <glyph glyph-name="Edieresis.001" horiz-adv-x="487" 
d="M442 389h-253v-58h198v-122h-198v-71h253v-138h-397v527h397v-138zM348 611q-29 0 -49.5 20.5t-20.5 50.5q0 29 20.5 49.5t49.5 20.5t50 -20.5t21 -49.5q0 -30 -21 -50.5t-50 -20.5zM160 611q-29 0 -49.5 20.5t-20.5 50.5q0 29 20.5 49.5t49.5 20.5t50 -20.5t21 -49.5
q0 -30 -21 -50.5t-50 -20.5z" />
    <glyph glyph-name="Egrave.001" horiz-adv-x="487" 
d="M45 527h397v-138h-253v-58h198v-122h-198v-71h253v-138h-397v527zM269 750l47 -126h-127l-74 126h154z" />
    <glyph glyph-name="Iacute.001" horiz-adv-x="287" 
d="M189 527v-527h-144v527h144zM261 745l-74 -126h-127l47 126h154z" />
    <glyph glyph-name="Icircumflex.001" horiz-adv-x="352" 
d="M248 527v-527h-144v527h144zM307 611h-98l-33 58l-31 -58h-100l59 134h144z" />
    <glyph glyph-name="Idieresis.001" horiz-adv-x="309" 
d="M227 527v-527h-144v527h144zM248 611q-29 0 -49.5 20.5t-20.5 50.5q0 29 20.5 49.5t49.5 20.5t50 -20.5t21 -49.5q0 -30 -21 -50.5t-50 -20.5zM60 611q-29 0 -49.5 20.5t-20.5 50.5q0 29 20.5 49.5t49.5 20.5t50 -20.5t21 -49.5q0 -30 -21 -50.5t-50 -20.5z" />
    <glyph glyph-name="Igrave.001" horiz-adv-x="275" 
d="M230 527v-527h-144v527h144zM180 745l47 -126h-127l-74 126h154z" />
    <glyph glyph-name="Oacute.001" horiz-adv-x="602" 
d="M302 536q42 0 83.5 -13.5t81.5 -43t65 -85.5t25 -131t-24 -130.5t-64 -85t-81.5 -43t-85.5 -13.5t-86 13.5t-82 43t-64.5 85t-24.5 130.5q0 60 17 108.5t44 78.5t62 50t68 28t66 8zM302 408q-53 0 -76 -42.5t-23 -102.5q0 -69 25 -108t74 -39q97 0 97 147q0 38 -7.5 68.5
t-30.5 53.5t-59 23zM427 745l-74 -126h-127l47 126h154z" />
    <glyph glyph-name="Ocircumflex.001" horiz-adv-x="602" 
d="M302 536q42 0 83.5 -13.5t81.5 -43t65 -85.5t25 -131t-24 -130.5t-64 -85t-81.5 -43t-85.5 -13.5t-86 13.5t-82 43t-64.5 85t-24.5 130.5q0 60 17 108.5t44 78.5t62 50t68 28t66 8zM302 408q-53 0 -76 -42.5t-23 -102.5q0 -69 25 -108t74 -39q97 0 97 147q0 38 -7.5 68.5
t-30.5 53.5t-59 23zM436 588h-98l-33 58l-31 -58h-100l59 134h144z" />
    <glyph glyph-name="Ograve.001" horiz-adv-x="602" 
d="M302 536q42 0 83.5 -13.5t81.5 -43t65 -85.5t25 -131t-24 -130.5t-64 -85t-81.5 -43t-85.5 -13.5t-86 13.5t-82 43t-64.5 85t-24.5 130.5q0 60 17 108.5t44 78.5t62 50t68 28t66 8zM302 408q-53 0 -76 -42.5t-23 -102.5q0 -69 25 -108t74 -39q97 0 97 147q0 38 -7.5 68.5
t-30.5 53.5t-59 23zM248 619l-74 126h154l47 -126h-127z" />
    <glyph glyph-name="Ucircumflex.001" horiz-adv-x="522" 
d="M337 527h140v-310q0 -100 -53.5 -163t-161.5 -63q-112 0 -164.5 62.5t-52.5 163.5v310h141v-310q0 -83 76 -83q75 0 75 83v310zM392 611h-98l-33 58l-31 -58h-100l59 134h144z" />
    <glyph glyph-name="Uacute.001" horiz-adv-x="522" 
d="M337 527h140v-310q0 -100 -53.5 -163t-161.5 -63q-112 0 -164.5 62.5t-52.5 163.5v310h141v-310q0 -83 76 -83q75 0 75 83v310zM399 745l-74 -126h-127l47 126h154z" />
    <glyph glyph-name="Ugrave.001" horiz-adv-x="522" 
d="M337 527h140v-310q0 -100 -53.5 -163t-161.5 -63q-112 0 -164.5 62.5t-52.5 163.5v310h141v-310q0 -83 76 -83q75 0 75 83v310zM300 745l47 -126h-127l-74 126h154z" />
    <glyph glyph-name="Scaron.001" horiz-adv-x="504" 
d="M233 370q0 -18 23.5 -29t56.5 -20t66 -22.5t56.5 -43t23.5 -73.5q0 -86 -63.5 -138.5t-146.5 -52.5q-58 0 -109 13.5t-73 27.5l-22 14l56 128q94 -47 133 -47q70 0 70 41q0 16 -22.5 27t-55 21.5t-65 25.5t-55 47.5t-22.5 79.5q0 76 49.5 121t147.5 45q56 0 99.5 -13.5
t59.5 -27.5l16 -13l-46 -106q0 1 -14.5 9t-42.5 16.5t-55 8.5q-28 0 -46.5 -10.5t-18.5 -28.5zM137 745h88l43 -65l43 65h88l-59 -134h-144z" />
    <glyph glyph-name="Zcaron.001" horiz-adv-x="523" 
d="M478 527v-124l-238 -279h238v-124h-433v124l244 279h-231v124h420zM147 745h88l43 -65l43 65h88l-59 -134h-144z" />
    <glyph glyph-name="AEacute.001" horiz-adv-x="785" 
d="M705 389h-253v-58h198v-122h-198v-71h253v-138h-397v106h-70l-34 -106h-153l167 527h487v-138zM308 240v137l-36 -137h36zM537 745l-74 -126h-127l47 126h154z" />
    <glyph glyph-name="Cacute.001" horiz-adv-x="521" 
d="M315 133q27 0 53 9.5t39 19.5l13 9l56 -121q-8 -6 -22 -15.5t-59 -25.5t-93 -16q-42 0 -84 14t-82.5 43t-65.5 85t-25 130t25 130t65.5 85t82.5 43t84 14q48 0 91.5 -14.5t62.5 -28.5l20 -14l-56 -121q-45 39 -105 39q-57 0 -89.5 -36t-32.5 -97q0 -62 32 -97t90 -35z
M419 745l-74 -126h-127l47 126h154z" />
    <glyph glyph-name="Ccaron.001" horiz-adv-x="521" 
d="M315 133q27 0 53 9.5t39 19.5l13 9l56 -121q-8 -6 -22 -15.5t-59 -25.5t-93 -16q-42 0 -84 14t-82.5 43t-65.5 85t-25 130t25 130t65.5 85t82.5 43t84 14q48 0 91.5 -14.5t62.5 -28.5l20 -14l-56 -121q-45 39 -105 39q-57 0 -89.5 -36t-32.5 -97q0 -62 32 -97t90 -35z
M171 745h88l43 -65l43 65h88l-59 -134h-144z" />
    <glyph glyph-name="Ccircumflex.001" horiz-adv-x="521" 
d="M315 133q27 0 53 9.5t39 19.5l13 9l56 -121q-8 -6 -22 -15.5t-59 -25.5t-93 -16q-42 0 -84 14t-82.5 43t-65.5 85t-25 130t25 130t65.5 85t82.5 43t84 14q48 0 91.5 -14.5t62.5 -28.5l20 -14l-56 -121q-45 39 -105 39q-57 0 -89.5 -36t-32.5 -97q0 -62 32 -97t90 -35z
M438 611h-98l-33 58l-31 -58h-100l59 134h144z" />
    <glyph glyph-name="Cdotaccent.001" horiz-adv-x="521" 
d="M315 133q27 0 53 9.5t39 19.5l13 9l56 -121q-8 -6 -22 -15.5t-59 -25.5t-93 -16q-42 0 -84 14t-82.5 43t-65.5 85t-25 130t25 130t65.5 85t82.5 43t84 14q48 0 91.5 -14.5t62.5 -28.5l20 -14l-56 -121q-45 39 -105 39q-57 0 -89.5 -36t-32.5 -97q0 -62 32 -97t90 -35z
M281 611q-29 0 -49.5 20.5t-20.5 50.5q0 29 20.5 49.5t49.5 20.5t50 -20.5t21 -49.5q0 -30 -21 -50.5t-50 -20.5z" />
    <glyph glyph-name="Dcaron.001" horiz-adv-x="562" 
d="M227 527q130 0 201.5 -64.5t71.5 -199.5q0 -54 -15.5 -99t-41.5 -75t-61.5 -50.5t-74 -29.5t-80.5 -9h-182v527h182zM227 138q58 0 87.5 37t29.5 94q0 120 -117 120h-38v-251h38zM123 745h88l43 -65l43 65h88l-59 -134h-144z" />
    <glyph glyph-name="Ebreve.001" horiz-adv-x="487" 
d="M442 389h-253v-58h198v-122h-198v-71h253v-138h-397v527h397v-138zM256 690q43 0 43 55h87q0 -68 -39.5 -98.5t-90.5 -30.5q-52 0 -92 30.5t-40 98.5h88q0 -55 44 -55z" />
    <glyph glyph-name="Ecaron.001" horiz-adv-x="487" 
d="M442 389h-253v-58h198v-122h-198v-71h253v-138h-397v527h397v-138zM124 746h88l43 -65l43 65h88l-59 -134h-144z" />
    <glyph glyph-name="Edotaccent.001" horiz-adv-x="487" 
d="M442 389h-253v-58h198v-122h-198v-71h253v-138h-397v527h397v-138zM252 611q-29 0 -49.5 20.5t-20.5 50.5q0 29 20.5 49.5t49.5 20.5t50 -20.5t21 -49.5q0 -30 -21 -50.5t-50 -20.5z" />
    <glyph glyph-name="Abreve.001" horiz-adv-x="604" 
d="M303 691q43 0 43 55h87q0 -68 -39.5 -98.5t-90.5 -30.5q-52 0 -92 30.5t-40 98.5h88q0 -55 44 -55zM266 240h72l-36 137zM392 527l167 -527h-153l-34 106h-140l-34 -106h-153l167 527h180z" />
    <glyph glyph-name="Eogonek.001" horiz-adv-x="485" 
d="M481 -107q-23 -23 -68 -23q-27 0 -49.5 9.5t-36.5 27t-14 40.5q0 32 22 53h-290v527h397v-138h-253v-58h198v-122h-198v-71h253v-138q-6 -1 -13.5 -3.5t-15.5 -10.5t-8 -20q0 -25 21 -25q6 0 13 2t11 3.5t4 2.5z" />
    <glyph glyph-name="Gbreve.001" horiz-adv-x="554" 
d="M300 690q43 0 43 55h87q0 -68 -39.5 -98.5t-90.5 -30.5q-52 0 -92 30.5t-40 98.5h88q0 -55 44 -55zM366 130v154h143v-237q-9 -6 -26 -15.5t-67.5 -25.5t-98.5 -16q-70 0 -129.5 26.5t-101 90t-41.5 155.5q0 127 80.5 199.5t191.5 72.5q60 0 108 -14.5t66 -28.5l18 -14
l-56 -121q-46 39 -105 39q-60 0 -103 -37t-43 -96q0 -136 154 -133z" />
    <glyph glyph-name="Gcircumflex.001" horiz-adv-x="554" 
d="M366 284h143v-237q-9 -6 -26 -15.5t-67.5 -25.5t-98.5 -16q-70 0 -129.5 26.5t-101 90t-41.5 155.5q0 127 80.5 199.5t191.5 72.5q60 0 108 -14.5t66 -28.5l18 -14l-56 -121q-46 39 -105 39q-60 0 -103 -37t-43 -96q0 -71 37 -101.5t111 -30.5h16v154zM423 611h-98
l-33 58l-31 -58h-100l59 134h144z" />
    <glyph glyph-name="Aogonek.001" horiz-adv-x="569" 
d="M572 -57l27 -56q-23 -23 -68 -23q-42 0 -71 21.5t-29 55.5q0 28 21 59h-46l-34 106h-140l-34 -106h-153l167 527h180l167 -527h-25q-11 -22 -11 -40q0 -25 21 -25q20 0 28 8zM266 240h72l-36 137z" />
    <glyph glyph-name="Gdotaccent.001" horiz-adv-x="554" 
d="M366 284h143v-237q-9 -6 -26 -15.5t-67.5 -25.5t-98.5 -16q-70 0 -129.5 26.5t-101 90t-41.5 155.5q0 127 80.5 199.5t191.5 72.5q60 0 108 -14.5t66 -28.5l18 -14l-56 -121q-46 39 -105 39q-60 0 -103 -37t-43 -96q0 -71 37 -101.5t111 -30.5h16v154zM306 612
q-29 0 -49.5 20.5t-20.5 50.5q0 29 20.5 49.5t49.5 20.5t50 -20.5t21 -49.5q0 -30 -21 -50.5t-50 -20.5z" />
    <glyph glyph-name="Hcircumflex.001" horiz-adv-x="537" 
d="M492 527v-527h-144v212h-159v-212h-144v527h144v-177h159v177h144zM399 611h-98l-33 58l-31 -58h-100l59 134h144z" />
    <glyph glyph-name="Ibreve.001" horiz-adv-x="312" 
d="M228 527v-527h-144v527h144zM157 690q43 0 43 55h87q0 -68 -39.5 -98.5t-90.5 -30.5q-52 0 -92 30.5t-40 98.5h88q0 -55 44 -55z" />
    <glyph glyph-name="Idotaccent.001" horiz-adv-x="234" 
d="M189 527v-527h-144v527h144zM115 612q-29 0 -49.5 20.5t-20.5 50.5q0 29 20.5 49.5t49.5 20.5t50 -20.5t21 -49.5q0 -30 -21 -50.5t-50 -20.5z" />
    <glyph glyph-name="Iogonek.001" horiz-adv-x="271" 
d="M199 -62l27 -56q-23 -23 -68 -23q-42 0 -71 21.5t-29 55.5q0 29 25 64h-38v527h144v-527h-25q-14 -28 -14 -45q0 -25 21 -25q20 0 28 8z" />
    <glyph glyph-name="Jcircumflex.001" horiz-adv-x="448" 
d="M225 527h143v-264q0 -51 -4 -89t-14.5 -74t-29 -58.5t-49 -36.5t-72.5 -14q-48 0 -88.5 14.5t-56.5 28.5l-17 15l59 121q39 -32 79 -32q50 0 50 79v310zM432 611h-98l-33 58l-31 -58h-100l59 134h144z" />
    <glyph glyph-name="Lacute.001" horiz-adv-x="384" 
d="M339 138v-138h-294v527h144v-389h150zM265 745l-74 -126h-127l47 126h154z" />
    <glyph glyph-name="Nacute.001" horiz-adv-x="537" 
d="M348 527h144v-527h-144l-159 259v-259h-144v527h144l159 -264v264zM388 745l-74 -126h-127l47 126h154z" />
    <glyph glyph-name="Ncaron.001" horiz-adv-x="537" 
d="M348 527h144v-527h-144l-159 259v-259h-144v527h144l159 -264v264zM142 745h88l43 -65l43 65h88l-59 -134h-144z" />
    <glyph glyph-name="Obreve.001" horiz-adv-x="602" 
d="M302 536q42 0 83.5 -13.5t81.5 -43t65 -85.5t25 -131t-24 -130.5t-64 -85t-81.5 -43t-85.5 -13.5t-86 13.5t-82 43t-64.5 85t-24.5 130.5q0 60 17 108.5t44 78.5t62 50t68 28t66 8zM302 408q-53 0 -76 -42.5t-23 -102.5q0 -69 25 -108t74 -39q97 0 97 147q0 38 -7.5 68.5
t-30.5 53.5t-59 23zM306 690q43 0 43 55h87q0 -68 -39.5 -98.5t-90.5 -30.5q-52 0 -92 30.5t-40 98.5h88q0 -55 44 -55z" />
    <glyph glyph-name="Ohungarumlaut.001" horiz-adv-x="602" 
d="M302 536q42 0 83.5 -13.5t81.5 -43t65 -85.5t25 -131t-24 -130.5t-64 -85t-81.5 -43t-85.5 -13.5t-86 13.5t-82 43t-64.5 85t-24.5 130.5q0 60 17 108.5t44 78.5t62 50t68 28t66 8zM302 408q-53 0 -76 -42.5t-23 -102.5q0 -69 25 -108t74 -39q97 0 97 147q0 38 -7.5 68.5
t-30.5 53.5t-59 23zM534 745l-74 -126h-127l47 126h154zM342 745l-74 -126h-127l47 126h154z" />
    <glyph glyph-name="Racute.001" horiz-adv-x="544" 
d="M499 0h-167l-91 186h-53v-186h-143v527h242q76 0 124.5 -47.5t48.5 -123.5q0 -98 -78 -144zM188 406v-102h80q24 0 38 14t14 38q0 22 -15.5 36t-36.5 14h-80zM375 745l-74 -126h-127l47 126h154z" />
    <glyph glyph-name="Rcaron.001" horiz-adv-x="544" 
d="M499 0h-167l-91 186h-53v-186h-143v527h242q76 0 124.5 -47.5t48.5 -123.5q0 -98 -78 -144zM188 406v-102h80q24 0 38 14t14 38q0 22 -15.5 36t-36.5 14h-80zM104 745h88l43 -65l43 65h88l-59 -134h-144z" />
    <glyph glyph-name="Sacute.001" horiz-adv-x="504" 
d="M233 370q0 -18 23.5 -29t56.5 -20t66 -22.5t56.5 -43t23.5 -73.5q0 -86 -63.5 -138.5t-146.5 -52.5q-58 0 -109 13.5t-73 27.5l-22 14l56 128q94 -47 133 -47q70 0 70 41q0 16 -22.5 27t-55 21.5t-65 25.5t-55 47.5t-22.5 79.5q0 76 49.5 121t147.5 45q56 0 99.5 -13.5
t59.5 -27.5l16 -13l-46 -106q0 1 -14.5 9t-42.5 16.5t-55 8.5q-28 0 -46.5 -10.5t-18.5 -28.5zM397 722l-74 -126h-127l47 126h154z" />
    <glyph glyph-name="Scircumflex.001" horiz-adv-x="504" 
d="M233 370q0 -18 23.5 -29t56.5 -20t66 -22.5t56.5 -43t23.5 -73.5q0 -86 -63.5 -138.5t-146.5 -52.5q-58 0 -109 13.5t-73 27.5l-22 14l56 128q94 -47 133 -47q70 0 70 41q0 16 -22.5 27t-55 21.5t-65 25.5t-55 47.5t-22.5 79.5q0 76 49.5 121t147.5 45q56 0 99.5 -13.5
t59.5 -27.5l16 -13l-46 -106q0 1 -14.5 9t-42.5 16.5t-55 8.5q-28 0 -46.5 -10.5t-18.5 -28.5zM401 611h-98l-33 58l-31 -58h-100l59 134h144z" />
    <glyph glyph-name="Ycircumflex.001" horiz-adv-x="577" 
d="M398 527h144l-182 -313v-214h-144v214l-181 313h144l109 -177zM419 611h-98l-33 58l-31 -58h-100l59 134h144z" />
    <glyph glyph-name="Ygrave.001" horiz-adv-x="577" 
d="M398 527h144l-182 -313v-214h-144v214l-181 313h144l109 -177zM187 745h154l47 -126h-127z" />
    <glyph glyph-name="Zacute.001" horiz-adv-x="503" 
d="M468 527v-124l-238 -279h238v-124h-433v124l244 279h-231v124h420zM391 745l-74 -126h-127l47 126h154z" />
    <glyph glyph-name="Zdotaccent.001" horiz-adv-x="523" 
d="M478 527v-124l-238 -279h238v-124h-433v124l244 279h-231v124h420zM288 611q-29 0 -49.5 20.5t-20.5 50.5q0 29 20.5 49.5t49.5 20.5t50 -20.5t21 -49.5q0 -30 -21 -50.5t-50 -20.5z" />
    <glyph glyph-name="Wacute.001" horiz-adv-x="939" 
d="M752 527h152l-169 -527h-168l-98 331l-96 -331h-168l-170 527h153l101 -325l100 318h161l102 -318zM621 747l-74 -126h-127l47 126h154z" />
    <glyph glyph-name="Wcircumflex.001" horiz-adv-x="939" 
d="M752 527h152l-169 -527h-168l-98 331l-96 -331h-168l-170 527h153l101 -325l100 315h161l102 -315zM612 611h-98l-33 58l-31 -58h-100l59 134h144z" />
    <glyph glyph-name="Wdieresis.001" horiz-adv-x="939" 
d="M752 527h152l-169 -527h-168l-98 331l-96 -331h-168l-170 527h153l101 -325l100 315h161l102 -315zM575 752q29 0 50 -20.5t21 -49.5q0 -30 -21 -50.5t-50 -20.5t-49.5 20.5t-20.5 50.5q0 29 20.5 49.5t49.5 20.5zM387 752q29 0 50 -20.5t21 -49.5q0 -30 -21 -50.5
t-50 -20.5t-49.5 20.5t-20.5 50.5q0 29 20.5 49.5t49.5 20.5z" />
    <glyph glyph-name="Wgrave.001" horiz-adv-x="939" 
d="M752 527h152l-169 -527h-168l-98 331l-96 -331h-168l-170 527h153l101 -325l100 315h161l102 -315zM487 745l47 -126h-127l-74 126h154z" />
    <glyph glyph-name="Utilde.001" horiz-adv-x="522" 
d="M337 527h140v-310q0 -100 -53.5 -163t-161.5 -63q-112 0 -164.5 62.5t-52.5 163.5v310h141v-310q0 -83 76 -83q75 0 75 83v310zM171 624l-97 64q13 36 49 62t83 26q20 0 57 -13t57 -13q38 0 51 27l106 -54q-13 -37 -41.5 -65.5t-65.5 -28.5q-34 0 -75 15.5t-57 15.5
q-45 0 -67 -36z" />
    <glyph glyph-name="Uring.001" horiz-adv-x="522" 
d="M337 527h140v-310q0 -100 -53.5 -163t-161.5 -63q-112 0 -164.5 62.5t-52.5 163.5v310h141v-310q0 -83 76 -83q75 0 75 83v310zM262 752q36 0 61.5 -25t25.5 -61q0 -37 -25.5 -62.5t-61.5 -25.5q-37 0 -62.5 25.5t-25.5 62.5q0 36 25.5 61t62.5 25zM261 630q15 0 26 10.5
t11 25.5t-11 25.5t-26 10.5q-14 0 -24.5 -10.5t-10.5 -25.5q0 -16 10 -26t25 -10z" />
    <glyph glyph-name="Uogonek.001" horiz-adv-x="522" 
d="M337 527h140v-310q0 -75 -30.5 -130.5t-91.5 -79.5q-18 -36 -18 -51q0 -28 21 -28q20 0 28 8l27 -56q-23 -23 -68 -23q-42 0 -71 21.5t-29 55.5q0 28 20 57h-3q-112 0 -164.5 62.5t-52.5 163.5v310h141v-310q0 -83 76 -83q75 0 75 83v310z" />
    <glyph glyph-name="Uhungarumlaut.001" horiz-adv-x="534" 
d="M337 527h140v-310q0 -100 -53.5 -163t-161.5 -63q-112 0 -164.5 62.5t-52.5 163.5v310h141v-310q0 -83 76 -83q75 0 75 83v310zM489 744l-74 -126h-127l47 126h154zM297 744l-74 -126h-127l47 126h154z" />
    <glyph glyph-name="Ubreve.001" horiz-adv-x="522" 
d="M337 527h140v-310q0 -100 -53.5 -163t-161.5 -63q-112 0 -164.5 62.5t-52.5 163.5v310h141v-310q0 -83 76 -83q75 0 75 83v310zM262 690q43 0 43 55h87q0 -68 -39.5 -98.5t-90.5 -30.5q-52 0 -92 30.5t-40 98.5h88q0 -55 44 -55z" />
    <glyph glyph-name="Tcaron.001" horiz-adv-x="533" 
d="M339 527h149v-134h-149v-393h-144v393h-150v134h294zM135 745h88l43 -65l43 65h88l-59 -134h-144z" />
    <glyph glyph-name="Emacron.001" horiz-adv-x="513" 
d="M443 389h-253v-58h198v-122h-198v-71h253v-138h-397v527h397v-138zM468 647h-423v98h423v-98z" />
    <glyph glyph-name="Amacron.001" horiz-adv-x="604" 
d="M91 645v98h423v-98h-423zM266 240h72l-36 137zM392 527l167 -527h-153l-34 106h-140l-34 -106h-153l167 527h180z" />
    <glyph glyph-name="Hbar.001" horiz-adv-x="698" 
d="M653 494v-98h-71v-396h-144v212h-159v-212h-144v396h-90v98h90v33h144v-33h159v33h144v-33h71zM438 350v46h-159v-46h159z" />
    <glyph glyph-name="Imacron.001" horiz-adv-x="343" 
d="M243 527v-527h-144v527h144zM383 619h-423v98h423v-98z" />
    <glyph glyph-name="Tbar.001" horiz-adv-x="533" 
d="M488 393h-149v-70h139v-98h-139v-225h-144v225h-140v98h140v70h-150v134h443v-134z" />
    <glyph glyph-name="Omacron.001" horiz-adv-x="602" 
d="M302 536q42 0 83.5 -13.5t81.5 -43t65 -85.5t25 -131t-24 -130.5t-64 -85t-81.5 -43t-85.5 -13.5t-86 13.5t-82 43t-64.5 85t-24.5 130.5q0 60 17 108.5t44 78.5t62 50t68 28t66 8zM302 408q-53 0 -76 -42.5t-23 -102.5q0 -69 25 -108t74 -39q97 0 97 147q0 38 -7.5 68.5
t-30.5 53.5t-59 23zM512 647h-423v98h423v-98z" />
    <glyph glyph-name="Umacron.001" horiz-adv-x="522" 
d="M337 527h140v-310q0 -100 -53.5 -163t-161.5 -63q-112 0 -164.5 62.5t-52.5 163.5v310h141v-310q0 -83 76 -83q75 0 75 83v310zM468 745v-97h-418v97h418z" />
    <glyph glyph-name="Gcommaaccent.001" horiz-adv-x="554" 
d="M366 284h143v-237q-9 -6 -26 -15.5t-67.5 -25.5t-98.5 -16q-70 0 -129.5 26.5t-101 90t-41.5 155.5q0 127 80.5 199.5t191.5 72.5q60 0 108 -14.5t66 -28.5l18 -14l-56 -121q-46 39 -105 39q-60 0 -103 -37t-43 -96q0 -71 37 -101.5t111 -30.5h16v154zM308 -54
q40 0 66 -31t26 -81q0 -58 -35.5 -103.5t-62.5 -58.5l-43 61q33 23 39 43q-37 0 -59.5 23.5t-22.5 62.5q0 36 29 60t63 24z" />
    <glyph glyph-name="Ncommaaccent.001" horiz-adv-x="537" 
d="M348 527h144v-527h-144l-159 259v-259h-144v527h144l159 -264v264zM257 -54q40 0 66 -31t26 -81q0 -58 -35.5 -103.5t-62.5 -58.5l-43 61q33 23 39 43q-37 0 -59.5 23.5t-22.5 62.5q0 36 29 60t63 24z" />
    <glyph glyph-name="Lcommaaccent.001" horiz-adv-x="384" 
d="M339 138v-138h-294v527h144v-389h150zM202 -54q40 0 66 -31t26 -81q0 -58 -35.5 -103.5t-62.5 -58.5l-43 61q33 23 39 43q-37 0 -59.5 23.5t-22.5 62.5q0 36 29 60t63 24z" />
    <glyph glyph-name="Kcommaaccent.001" horiz-adv-x="556" 
d="M511 0h-172l-150 239v-239h-144v527h144v-171l136 171h165l-170 -219zM247 -54q40 0 66 -31t26 -81q0 -58 -35.5 -103.5t-62.5 -58.5l-43 61q33 23 39 43q-37 0 -59.5 23.5t-22.5 62.5q0 36 29 60t63 24z" />
    <glyph glyph-name="Rcommaaccent.001" horiz-adv-x="544" 
d="M499 0h-167l-91 186h-53v-186h-143v527h242q76 0 124.5 -47.5t48.5 -123.5q0 -98 -78 -144zM188 406v-102h80q24 0 38 14t14 38q0 22 -15.5 36t-36.5 14h-80zM263 -54q40 0 66 -31t26 -81q0 -58 -35.5 -103.5t-62.5 -58.5l-43 61q33 23 39 43q-37 0 -59.5 23.5
t-22.5 62.5q0 36 29 60t63 24z" />
    <glyph glyph-name="Scommaaccent.001" horiz-adv-x="504" 
d="M233 370q0 -18 23.5 -29t56.5 -20t66 -22.5t56.5 -43t23.5 -73.5q0 -86 -63.5 -138.5t-146.5 -52.5q-58 0 -109 13.5t-73 27.5l-22 14l56 128q94 -47 133 -47q70 0 70 41q0 16 -22.5 27t-55 21.5t-65 25.5t-55 47.5t-22.5 79.5q0 76 49.5 121t147.5 45q56 0 99.5 -13.5
t59.5 -27.5l16 -13l-46 -106q0 1 -14.5 9t-42.5 16.5t-55 8.5q-28 0 -46.5 -10.5t-18.5 -28.5zM253 -54q40 0 66 -31t26 -81q0 -58 -35.5 -103.5t-62.5 -58.5l-43 61q33 23 39 43q-37 0 -59.5 23.5t-22.5 62.5q0 36 29 60t63 24z" />
    <glyph glyph-name="Tcommaaccent.001" horiz-adv-x="533" 
d="M339 527h149v-134h-149v-393h-144v393h-150v134h294zM266 -54q40 0 66 -31t26 -81q0 -58 -35.5 -103.5t-62.5 -58.5l-43 61q33 23 39 43q-37 0 -59.5 23.5t-22.5 62.5q0 36 29 60t63 24z" />
    <glyph glyph-name="Ldot.001" horiz-adv-x="492" 
d="M376 230q-29 0 -49.5 20.5t-20.5 50.5q0 29 20.5 49.5t49.5 20.5t50 -20.5t21 -49.5q0 -30 -21 -50.5t-50 -20.5zM339 138v-138h-294v527h144v-389h150z" />
    <glyph glyph-name="Lcaron.001" horiz-adv-x="413" 
d="M147 680l43 65h88l-59 -134h-144l-59 134h88zM368 138v-138h-294v527h144v-389h150z" />
    <glyph glyph-name="Scedilla.001" horiz-adv-x="504" 
d="M121 -118l60 114q-14 2 -28 5.5t-25 6.5t-21.5 7t-18.5 7.5t-15 7t-12 6.5t-9 5.5t-5 3.5l-2 1l56 128q94 -47 133 -47q33 0 51.5 11t18.5 30q0 13 -16.5 23.5t-40.5 17.5t-53 19t-53 27.5t-40.5 45t-16.5 68.5q0 76 49.5 121t147.5 45q35 0 66 -5.5t50 -13.5t33 -16
t20 -13l6 -6l-46 -106q0 1 -14.5 9t-42.5 16.5t-55 8.5q-18 0 -32.5 -4.5t-23.5 -13.5t-9 -21q0 -15 16.5 -26t42 -17t54.5 -16.5t54.5 -23.5t42 -40.5t16.5 -64.5q0 -73 -47 -122.5t-116 -63.5l-34 -126z" />
    <glyph glyph-name="zeroinferior" horiz-adv-x="308" 
d="M155 -10q-67 0 -100.5 49t-33.5 114t34 114.5t100 49.5t99 -49t33 -115t-33 -114.5t-99 -48.5zM155 226q-36 0 -36 -73t36 -73q34 0 34 73t-34 73z" />
    <glyph glyph-name="oneinferior" horiz-adv-x="205" 
d="M184 317v-317h-102v215l-47 -16l-17 85l83 33h83z" />
    <glyph glyph-name="twoinferior" horiz-adv-x="280" 
d="M259 92v-92h-238v43q0 24 20 48.5t44 40.5t44 35t20 34q0 33 -38 33q-12 0 -26 -6t-22 -12l-8 -5l-32 65q5 5 14 12.5t39 20.5t61 13q46 0 79 -27t33 -72q0 -69 -91 -131h101z" />
    <glyph glyph-name="threeinferior" horiz-adv-x="280" 
d="M128 -10q-58 0 -104 32l-3 2l28 74q42 -17 63 -17q44 0 44 18q0 11 -14 14t-54 3h-26v72l46 37h-72v87h202v-82l-39 -34q28 -12 44 -39t16 -58q0 -52 -38.5 -80.5t-92.5 -28.5z" />
    <glyph glyph-name="fourinferior" horiz-adv-x="304" 
d="M289 154v-86h-44v-68h-102v68h-122v68l105 181h119v-163h44zM143 207l-27 -53h27v53z" />
    <glyph glyph-name="fiveinferior" horiz-adv-x="281" 
d="M134 225l-1 -11q127 0 127 -111q0 -48 -38 -80.5t-88 -32.5q-57 0 -110 31l-3 2l32 86q43 -26 73 -26t30 23q0 24 -66 24h-44l6 182h185v-87h-103z" />
    <glyph glyph-name="sixinferior" horiz-adv-x="282" 
d="M167 102q0 33 -25 33q-24 0 -24 -33q0 -13 7 -21.5t17 -8.5q11 0 18 8.5t7 21.5zM261 106q0 -53 -32.5 -84.5t-86.5 -31.5q-55 0 -88 29t-33 80q0 37 20 82q5 11 39 74l34 62h106l-52 -110h2q42 0 66.5 -28.5t24.5 -72.5z" />
    <glyph glyph-name="seveninferior" horiz-adv-x="257" 
d="M236 317v-75l-106 -239l-1 -3h-111l105 228h-103v89h216z" />
    <glyph glyph-name="eightinferior" horiz-adv-x="275" 
d="M137 -5q-49 0 -82.5 28t-33.5 75q0 50 40 79q-23 25 -23 58q0 40 28.5 64t70.5 24t71.5 -24t29.5 -64q0 -33 -23 -58q39 -27 39 -79q0 -47 -34 -75t-83 -28zM138 212q16 0 16 16q0 7 -4.5 12t-11.5 5q-6 0 -10.5 -5.5t-4.5 -11.5q0 -16 15 -16zM138 130q-11 0 -18.5 -8.5
t-7.5 -19.5q0 -27 26 -27q12 0 19.5 7.5t7.5 19.5t-7.5 20t-19.5 8z" />
    <glyph glyph-name="nineinferior" horiz-adv-x="277" 
d="M116 211q0 -31 23 -31q22 0 22 31q0 30 -22 30q-23 0 -23 -30zM21 211q0 50 32.5 80.5t85.5 30.5t85 -30.5t32 -80.5q0 -21 -7 -44t-14 -37t-22.5 -40.5t-20.5 -36.5l-32 -53h-104l54 107h-1q-39 0 -63.5 31.5t-24.5 72.5z" />
    <glyph glyph-name="check" horiz-adv-x="699" 
d="M472 611h162l-350 -621l-219 409h149l72 -150z" />
    <glyph glyph-name="doublecheck" horiz-adv-x="917" 
d="M699 612h153l-364 -621l-99 186l-105 -186l-219 409h149l72 -150l186 362h162l-172 -305l28 -57z" />
    <glyph glyph-name="A.sc" horiz-adv-x="604" 
d="M266 240h72l-36 141zM392 527l167 -527h-153l-34 106h-140l-34 -106h-153l167 527h180z" />
    <glyph glyph-name="B.sc" horiz-adv-x="517" 
d="M472 166q0 -78 -45 -122t-129 -44h-253v527h211q77 0 125 -40t48 -115q0 -47 -36 -89q79 -29 79 -117zM301 372q0 45 -52 45h-61v-85h61q52 0 52 40zM323 167q0 22 -15 34.5t-38 12.5h-82v-101h82q25 0 39 15.5t14 38.5z" />
    <glyph glyph-name="C.sc" horiz-adv-x="521" 
d="M45 265q0 74 25 130t65.5 85t82.5 43t84 14q48 0 91.5 -14.5t62.5 -28.5l20 -14l-56 -121q-45 39 -105 39q-57 0 -89.5 -36t-32.5 -97q0 -62 32 -97t90 -35q27 0 53 9.5t39 19.5l13 9l56 -121q-8 -6 -22 -15.5t-59 -25.5t-93 -16q-42 0 -84 14t-82.5 43t-65.5 85t-25 130
z" />
    <glyph glyph-name="D.sc" horiz-adv-x="545" 
d="M500 263q0 -54 -15.5 -99t-41.5 -75t-61.5 -50.5t-74 -29.5t-80.5 -9h-182v527h182q130 0 201.5 -64.5t71.5 -199.5zM344 269q0 120 -117 120h-38v-251h38q58 0 87.5 37t29.5 94z" />
    <glyph glyph-name="E.sc" horiz-adv-x="487" 
d="M442 389h-253v-58h198v-122h-198v-71h253v-138h-397v527h397v-138z" />
    <glyph glyph-name="F.sc" horiz-adv-x="487" 
d="M442 389h-253v-53h174v-138h-174v-198h-144v527h397v-138z" />
    <glyph glyph-name="G.sc" horiz-adv-x="554" 
d="M366 130v154h143v-237q-9 -6 -26 -15.5t-67.5 -25.5t-98.5 -16q-70 0 -129.5 26.5t-101 90t-41.5 155.5q0 127 80.5 199.5t191.5 72.5q60 0 108 -14.5t66 -28.5l18 -14l-56 -121q-46 39 -105 39q-60 0 -103 -37t-43 -96q0 -136 154 -133z" />
    <glyph glyph-name="H.sc" horiz-adv-x="537" 
d="M492 527v-527h-144v212h-159v-212h-144v527h144v-177h159v177h144z" />
    <glyph glyph-name="I.sc" horiz-adv-x="234" 
d="M189 527v-527h-144v527h144z" />
    <glyph glyph-name="J.sc" horiz-adv-x="421" 
d="M233 527h143v-264q0 -51 -4 -89t-14.5 -74t-29 -58.5t-49 -36.5t-72.5 -14q-48 0 -88.5 14.5t-56.5 28.5l-17 15l59 121q39 -32 79 -32q50 0 50 79v310z" />
    <glyph glyph-name="K.sc" horiz-adv-x="546" 
d="M511 0h-172l-150 239v-239h-144v527h144v-171l136 171h165l-170 -219z" />
    <glyph glyph-name="L.sc" horiz-adv-x="384" 
d="M339 138v-138h-294v527h144v-389h150z" />
    <glyph glyph-name="M.sc" horiz-adv-x="645" 
d="M473 527h127v-527h-141v324l-136 -168l-137 164v-320h-141v527h128l150 -174z" />
    <glyph glyph-name="N.sc" horiz-adv-x="537" 
d="M348 527h144v-527h-144l-159 261v-261h-144v527h144l159 -266v266z" />
    <glyph glyph-name="O.sc" horiz-adv-x="602" 
d="M302 536q42 0 83.5 -13.5t81.5 -43t65 -85.5t25 -131t-24 -130.5t-64 -85t-81.5 -43t-85.5 -13.5t-86 13.5t-82 43t-64.5 85t-24.5 130.5q0 60 17 108.5t44 78.5t62 50t68 28t66 8zM302 408q-53 0 -76 -42.5t-23 -102.5q0 -69 25 -108t74 -39q97 0 97 147q0 38 -7.5 68.5
t-30.5 53.5t-59 23z" />
    <glyph glyph-name="P.sc" horiz-adv-x="505" 
d="M460 338q0 -77 -52 -133t-121 -56h-99v-149h-143v527h242q74 0 123.5 -55.5t49.5 -133.5zM323 338q0 23 -15.5 37t-37.5 14h-82v-102h82q25 0 39 13.5t14 37.5z" />
    <glyph glyph-name="Q.sc" horiz-adv-x="608" 
d="M563 -121h-196l-100 111q-40 6 -77 23.5t-71 49t-54 84t-20 118.5q0 60 17 108.5t44 78.5t62 50t68 28t66 8q42 0 83.5 -13.5t81.5 -43t65 -85.5t25 -131q0 -173 -126 -241zM302 400q-49 0 -70.5 -39.5t-21.5 -95.5q0 -64 23.5 -100.5t68.5 -36.5q90 0 90 137
q0 57 -20.5 96t-69.5 39z" />
    <glyph glyph-name="R.sc" horiz-adv-x="544" 
d="M460 356q0 -98 -78 -144l117 -212h-167l-91 186h-53v-186h-143v527h242q76 0 124.5 -47.5t48.5 -123.5zM320 356q0 22 -15.5 36t-36.5 14h-80v-102h80q24 0 38 14t14 38z" />
    <glyph glyph-name="S.sc" horiz-adv-x="504" 
d="M233 370q0 -18 23.5 -29t56.5 -20t66 -22.5t56.5 -43t23.5 -73.5q0 -86 -63.5 -138.5t-146.5 -52.5q-58 0 -109 13.5t-73 27.5l-22 14l56 128q94 -47 133 -47q70 0 70 41q0 16 -22.5 27t-55 21.5t-65 25.5t-55 47.5t-22.5 79.5q0 76 49.5 121t147.5 45q56 0 99.5 -13.5
t59.5 -27.5l16 -13l-46 -106q0 1 -14.5 9t-42.5 16.5t-55 8.5q-28 0 -46.5 -10.5t-18.5 -28.5z" />
    <glyph glyph-name="T.sc" horiz-adv-x="533" 
d="M339 527h149v-134h-149v-393h-144v393h-150v134h294z" />
    <glyph glyph-name="U.sc" horiz-adv-x="522" 
d="M337 527h140v-310q0 -100 -53.5 -163t-161.5 -63q-112 0 -164.5 62.5t-52.5 163.5v310h141v-310q0 -83 76 -83q75 0 75 83v310z" />
    <glyph glyph-name="V.sc" horiz-adv-x="576" 
d="M377 527h164l-169 -527h-168l-169 527h165l89 -277z" />
    <glyph glyph-name="W.sc" horiz-adv-x="939" 
d="M738 527h166l-169 -527h-168l-98 283l-96 -283h-168l-170 527h165l89 -298l100 282h161l102 -282z" />
    <glyph glyph-name="X.sc" horiz-adv-x="576" 
d="M388 272l153 -272h-144l-109 165l-109 -165h-144l152 272l-140 255h144l97 -165l97 165h144z" />
    <glyph glyph-name="Y.sc" horiz-adv-x="577" 
d="M398 527h144l-182 -313v-214h-144v214l-181 313h144l109 -177z" />
    <glyph glyph-name="Z.sc" horiz-adv-x="523" 
d="M478 527v-124l-238 -279h238v-124h-433v124l244 279h-231v124h420z" />
    <glyph glyph-name="Lslash.001" horiz-adv-x="513" 
d="M468 339l-163 -74v-127h150v-138h-294v199l-116 -53v106l116 53v222h144v-156l163 74v-106z" />
    <glyph glyph-name="Lcaron.2" horiz-adv-x="531" 
d="M359 138v-138h-294v527h144v-389h150zM516 576l-74 -126h-127l47 126h154z" />
    <glyph glyph-name="idotaccent" horiz-adv-x="0" 
d="M76 527v-527h-158v527h158zM-3 612q-29 0 -49.5 20.5t-20.5 50.5q0 29 20.5 49.5t49.5 20.5t50 -20.5t21 -49.5q0 -30 -21 -50.5t-50 -20.5z" />
    <glyph glyph-name="zero.tx" horiz-adv-x="546" 
d="M279 540q36 0 71 -13.5t69 -43t55 -86t21 -132.5q0 -75 -20.5 -131.5t-54 -86t-69 -43.5t-72.5 -14t-73 14t-69.5 43.5t-54.5 86t-21 131.5q0 61 14.5 109.5t37 78.5t52 50.5t58 28.5t56.5 8zM279 136q68 0 68 129q0 126 -68 126q-69 0 -69 -126q0 -129 69 -129z" />
    <glyph glyph-name="one.tx" horiz-adv-x="531" 
d="M390 149h111v-149h-403v149h125v217l-117 -40l-26 136l156 65h154v-378z" />
    <glyph glyph-name="two.tx" horiz-adv-x="527" 
d="M309 151h177v-151h-443v54q0 46 25 82.5t61 60t72 44t61 44.5t25 52q0 22 -16.5 39.5t-51.5 17.5t-72 -12.5t-50 -21.5l-49 115q8 7 24.5 17.5t75 28t126.5 17.5q81 0 133 -44t52 -118q0 -41 -18.5 -79.5t-37 -58.5t-53 -50t-41.5 -37z" />
    <glyph glyph-name="three.tx" horiz-adv-x="546" 
d="M332 301q6 -1 15.5 -4t34 -16.5t43.5 -32.5t34.5 -56t15.5 -83q0 -92 -68 -148t-179 -56q-47 0 -95.5 14t-72.5 29l-25 14l45 120q69 -29 117 -29q50 0 79 14.5t29 41.5q0 26 -30.5 40t-77.5 14h-82v120l130 104h-183v140h370v-140z" />
    <glyph glyph-name="four.tx" horiz-adv-x="602" 
d="M470 193h89v-139h-89v-139h-167v139h-248v116l204 357h211v-334zM303 193v169l-83 -169h83z" />
    <glyph glyph-name="five.tx" horiz-adv-x="525" 
d="M214 387l-1 -62q12 1 34 1q223 0 223 -208q0 -88 -69 -150.5t-167 -62.5q-47 0 -98 14t-78 29l-28 14l51 138q75 -43 138 -43q32 0 56.5 16.5t24.5 50.5q0 22 -13 36.5t-38.5 20.5t-46.5 7.5t-52 1.5h-74l12 337h336v-140h-210z" />
    <glyph glyph-name="six.tx" horiz-adv-x="523" 
d="M254 382h2q83 0 136 -47t53 -144q0 -55 -20 -96t-52 -63t-66.5 -32t-70.5 -10q-37 0 -71.5 10t-67.5 31.5t-53 62.5t-20 97q0 48 17.5 102.5t37 92.5t61.5 111l63 115h163zM236 114q27 0 45 21t18 56q0 33 -15.5 57t-47.5 24t-48.5 -24.5t-16.5 -56.5q0 -35 18.5 -56
t46.5 -21z" />
    <glyph glyph-name="seven.tx" horiz-adv-x="498" 
d="M55 527h398v-135l-209 -477h-173l213 469h-229v143z" />
    <glyph glyph-name="eight.tx" horiz-adv-x="503" 
d="M362 342q91 -52 91 -161q0 -49 -20 -87.5t-53 -60.5t-69.5 -33t-74.5 -11t-74.5 11t-69 33t-52.5 60.5t-20 87.5q0 107 94 161q-60 47 -60 121q0 80 55.5 121t126.5 41q72 0 127.5 -41t55.5 -121q0 -76 -57 -121zM237 503q-21 0 -36 -16.5t-15 -37.5q0 -23 14 -38t37 -15
t38 15t15 38q0 20 -14.5 37t-38.5 17zM237 115q33 0 54 21.5t21 53.5q0 30 -20 54t-55 24q-31 0 -52 -24t-21 -54q0 -32 20 -53.5t53 -21.5z" />
    <glyph glyph-name="nine.tx" horiz-adv-x="555" 
d="M239 145h-5q-70 0 -124.5 48.5t-54.5 142.5q0 55 20 96t52.5 63t67 32t70.5 10t70.5 -10t68 -31.5t53.5 -62.5t20 -97q0 -48 -18 -103t-37 -91.5t-62 -111.5l-63 -115h-170zM265 413q-28 0 -46 -21t-18 -56q0 -32 16 -56.5t48 -24.5t48 24.5t16 56.5q0 35 -18 56t-46 21z
" />
    <glyph glyph-name="f_f_i" horiz-adv-x="997" 
d="M978 527v-527h-158v527h158zM420 582q-37 20 -83 4.5t-46 -59.5h145v-137h-146v-390h-154v390h-81v137h81q0 84 56.5 140t138.5 56q41 0 75 -10t48 -20l14 -10zM802 582q-37 20 -83 4.5t-46 -59.5h145v-137h-146v-390h-154v390h-81v137h81q0 84 56.5 140t138.5 56
q41 0 75 -10t48 -20l14 -10z" />
    <glyph glyph-name="t.001" horiz-adv-x="308" 
d="M290 520h-87v-94q0 -45 18 -45q4 0 10 2.5t10 5.5l4 3l34 -77q-42 -31 -86 -31q-50 0 -76 31.5t-26 79.5v125h-48v92h48v76h112v-76h87v-92z" />
    <glyph glyph-name="d.001" horiz-adv-x="426" 
d="M250 397v101q0 4 -9.5 10t-18.5 6q-22 0 -34 -20.5t-12 -43.5q0 -28 11.5 -48t34.5 -20q6 0 17 6t11 9zM250 714h111v-424h-111v9q-25 -15 -59 -15q-63 0 -102.5 51.5t-39.5 113.5q0 60 24 103q38 67 127 67q29 0 50 -13v108z" />
    <glyph glyph-name="h.001" horiz-adv-x="384" 
d="M327 498v-207h-114v170q0 37 -25 37q-27 0 -27 -37v-170h-115v424h115v-120q26 24 62 24q51 0 77.5 -35t26.5 -86z" />
    <glyph glyph-name="s.001" horiz-adv-x="356" 
d="M305 385q0 -37 -35.5 -68.5t-84.5 -31.5q-33 0 -67.5 9.5t-53.5 19.5l-18 9l33 73q47 -27 81 -27q40 0 40 18q0 9 -21 22t-46 25.5t-46 35t-21 48.5q0 15 6 31t19 33t39 27.5t61 10.5q38 0 67.5 -7.5t40.5 -15.5l10 -8l-29 -65q-36 16 -66 16q-44 0 -44 -22q0 -14 21 -28
t46.5 -25t46.5 -32.5t21 -47.5z" />
    <glyph glyph-name="n.001" horiz-adv-x="362" 
d="M314 497v-207h-114v170q0 38 -26 38q-14 0 -20.5 -12t-6.5 -26v-170h-114v322h114v-18q29 25 63 25q52 0 78 -35t26 -87z" />
    <glyph glyph-name="r.001" horiz-adv-x="327" 
d="M283 601l-52 -115q-20 15 -38 15q-36 0 -36 -51v-161h-114v323h114v-18q26 24 63 24q50 0 63 -17z" />
    <glyph glyph-name="Yacute.001" horiz-adv-x="577" 
d="M398 527h144l-182 -313v-214h-144v214l-181 313h144l109 -177zM426 746l-74 -126h-127l47 126h154z" />
    <glyph glyph-name="Itilde.001" horiz-adv-x="343" 
d="M230 527v-527h-144v527h144zM67 607l-97 64q13 36 49 62t83 26q20 0 57 -13t57 -13q38 0 51 27l106 -54q-13 -37 -41.5 -65.5t-65.5 -28.5q-34 0 -75 15.5t-57 15.5q-45 0 -67 -36z" />
    <glyph glyph-name="Oslash.001" horiz-adv-x="602" 
d="M453 487q104 -74 104 -227q0 -75 -24 -130.5t-64 -85t-81.5 -43t-85.5 -13.5q-29 0 -59 6l-27 -63h-93l40 94q-118 69 -118 235q0 60 17 108.5t44 78.5t62 50t68 28t66 8q36 0 72 -10l25 58h94zM203 260q0 -60 19 -97l101 240q-12 2 -21 2q-53 0 -76 -42.5t-23 -102.5z
M302 113q97 0 97 147q0 42 -10 76l-95 -223h8z" />
    <glyph glyph-name="cent.001" horiz-adv-x="364" 
d="M41 454q0 63 34 108t96 55v48h63v-49q58 -12 86 -49l-34 -68q-10 13 -32.5 21t-42.5 8q-28 0 -48 -23t-20 -51t20 -48.5t48 -20.5q47 0 75 28l34 -69q-34 -39 -86 -53v-47h-63v45q-62 12 -96 57t-34 108z" />
    <glyph glyph-name="sterling.001" horiz-adv-x="336" 
d="M157 370h121v-82h-238v82h21q12 0 18.5 16.5t6.5 33.5h-46v61h47q-5 55 24 96.5t84 41.5q31 0 63 -12t47 -35l-28 -59q-27 27 -67 27q-35 0 -35 -59h58v-61h-58q0 -32 -18 -50z" />
    <glyph glyph-name="currency.001" horiz-adv-x="356" 
d="M221 462q0 23 -14 39t-37 16q-24 0 -39.5 -16t-15.5 -39q0 -24 15.5 -40t39.5 -16q23 0 37 16t14 40zM286 416l52 -51l-70 -69l-46 45q-25 -11 -52 -11q-24 0 -52 10l-44 -44l-70 69l48 47q-7 19 -7 50q0 27 7 49l-48 47l70 71l46 -47q27 10 50 10q26 0 50 -11l48 48
l70 -71l-52 -50q7 -21 7 -46q0 -28 -7 -46z" />
    <glyph glyph-name="franc.001" horiz-adv-x="383" 
d="M334 527h-150v-30h102v-84h-102v-27h42v-68h-42v-27h-88v27h-34v68h34v225h238v-84z" />
    <glyph glyph-name="lira.001" horiz-adv-x="377" 
d="M159 371h121v-82h-238v82h20q12 0 19 15t7 35h-46v61h47q-5 55 23.5 96.5t83.5 41.5q31 0 63.5 -12t47.5 -35l-29 -59q-25 27 -66 27q-35 0 -35 -59h58v-61h-59q-4 -35 -17 -50z" />
    <glyph glyph-name="dollar.001" horiz-adv-x="355" 
d="M198 295v-44h-82v34q-59 4 -98 32l34 82q1 -1 16 -8.5t22 -10.5t20.5 -7t25.5 -4q42 3 42 23q0 11 -21 20.5t-46.5 17t-46.5 30t-21 56.5q0 77 73 98v42h82v-40q50 -7 73 -30l-26 -71q-7 7 -29.5 16t-41.5 9q-39 0 -39 -24q0 -12 22 -20t48.5 -14t48.5 -26.5t22 -54.5
q0 -35 -22 -64.5t-56 -41.5z" />
    <glyph glyph-name="yen.001" horiz-adv-x="390" 
d="M340 613l-98 -169h57v-47h-69v-18h69v-46h-69v-40h-87v40h-68v46h68v18h-68v47h56l-98 169h87l66 -108l67 108h87z" />
    <glyph glyph-name="Euro.001" horiz-adv-x="361" 
d="M238 372q16 0 32.5 6t24.5 12l8 6l36 -77q-42 -35 -109 -35q-48 0 -92.5 26.5t-61.5 83.5h-53v49h46v18h-46v48h53q15 59 60 87t94 28q30 0 57 -9t39 -18l13 -9l-36 -76q-28 24 -65 24q-40 0 -61 -27h78v-48h-93v-7v-11h93v-49h-75q22 -22 58 -22z" />
    <glyph glyph-name="copyright.001" horiz-adv-x="562" 
d="M96 462q0 -64 48 -119.5t128 -55.5t127.5 55t47.5 120t-47.5 120t-127.5 55t-128 -55t-48 -120zM71 462q0 73 54.5 136t146.5 63t146 -63t54 -136q0 -74 -54 -136.5t-146 -62.5t-146.5 63t-54.5 136zM364 545v-1l-25 -52l-3 4q-15 17 -43 17q-25 0 -40 -15t-15 -35
q0 -19 14 -34t37 -15q28 0 47 19l3 3l25 -52l-1 -1q-34 -41 -87 -41q-23 0 -49 11q-66 31 -66 110q0 47 30 83t89 36q55 0 84 -37z" />
    <glyph glyph-name="registered.001" horiz-adv-x="562" 
d="M106 464q0 -66 48 -121.5t129 -55.5q80 0 128.5 56t48.5 121t-48.5 121t-128.5 56q-81 0 -129 -55.5t-48 -121.5zM82 464q0 73 54.5 136t146.5 63t146 -62.5t54 -136.5q0 -73 -54 -136t-146 -63t-146.5 63t-54.5 136zM304 500q0 13 -14 13h-22v-27h22q14 0 14 14z
M338 448l43 -79h-71l-33 66h-9v-66h-62v196h91q33 0 50 -19.5t17 -45.5q0 -34 -26 -52z" />
    <glyph glyph-name="quadrate" horiz-adv-x="323" 
d="M59 181v210h210v-210h-210z" />
    <glyph glyph-name="circle.001" horiz-adv-x="250" 
d="M132 380q-31 0 -52.5 -21.5t-21.5 -52.5q0 -30 21.5 -51.5t52.5 -21.5q30 0 51.5 21.5t21.5 51.5q0 31 -21.5 52.5t-51.5 21.5zM18 306q0 47 33.5 80.5t80.5 33.5t80 -33.5t33 -80.5q0 -46 -33.5 -79.5t-79.5 -33.5q-47 0 -80.5 33t-33.5 80z" />
    <glyph glyph-name="quadrate.001" horiz-adv-x="323" 
d="M230 350h-130v-131h130v131zM270 390v-211h-210v211h210z" />
    <glyph glyph-name="triangle.001" horiz-adv-x="274" 
d="M68 348v-114l91 57zM15 445l244 -154l-244 -153v307z" />
    <glyph glyph-name="ampersand.001" horiz-adv-x="689" 
d="M245 117q31 0 58 9q-57 63 -94 118q-43 -16 -43 -61q0 -25 23.5 -45.5t55.5 -20.5zM151 344q-17 40 -17 67q0 67 49.5 104t135.5 37q71 0 110 -26v-1l-45 -96l-2 2q-11 12 -49 12q-23 0 -33.5 -14.5t-10.5 -33.5q0 -41 111 -171q15 40 15 99v2h121v-2q0 -119 -51 -197
q51 -56 117 -124l2 -2h-185q-18 16 -33 33q-62 -33 -141 -33q-92 0 -150 48.5t-58 120.5q0 55 28 102.5t86 72.5z" />
    <glyph glyph-name="a.salt" horiz-adv-x="607" 
d="M580 110l-41 -119q-45 0 -74.5 10.5t-43 24.5t-31.5 42q-2 -3 -6.5 -8t-19.5 -18.5t-31.5 -23.5t-42.5 -18.5t-54 -8.5q-61 0 -107.5 39.5t-69.5 101t-23 133.5q0 77 21 138t66.5 99.5t109.5 38.5q17 0 33.5 -3.5t29.5 -9.5t24 -12.5t18.5 -13.5t13.5 -12.5t8 -9.5l3 -3
v50h154v-225q0 -84 5.5 -124.5t18 -54t39.5 -13.5zM363 201v119q0 10 -7 25.5t-24.5 30t-40.5 14.5q-26 0 -46 -18.5t-30 -46t-10 -58.5q0 -54 21.5 -85.5t65.5 -31.5q33 0 52 17.5t19 33.5z" />
    <glyph glyph-name="aacute.salt" 
d="M580 110l-41 -119q-45 0 -74.5 10.5t-43 24.5t-31.5 42q-2 -3 -6.5 -8t-19.5 -18.5t-31.5 -23.5t-42.5 -18.5t-54 -8.5q-61 0 -107.5 39.5t-69.5 101t-23 133.5q0 77 21 138t66.5 99.5t109.5 38.5q17 0 33.5 -3.5t29.5 -9.5t24 -12.5t18.5 -13.5t13.5 -12.5t8 -9.5l3 -3
v50h154v-225q0 -84 5.5 -124.5t18 -54t39.5 -13.5zM363 201v119q0 10 -7 25.5t-24.5 30t-40.5 14.5q-26 0 -46 -18.5t-30 -46t-10 -58.5q0 -54 21.5 -85.5t65.5 -31.5q33 0 52 17.5t19 33.5zM438 745l-74 -126h-127l47 126h154z" />
    <glyph glyph-name="abreve.salt" 
d="M580 110l-41 -119q-45 0 -74.5 10.5t-43 24.5t-31.5 42q-2 -3 -6.5 -8t-19.5 -18.5t-31.5 -23.5t-42.5 -18.5t-54 -8.5q-61 0 -107.5 39.5t-69.5 101t-23 133.5q0 77 21 138t66.5 99.5t109.5 38.5q17 0 33.5 -3.5t29.5 -9.5t24 -12.5t18.5 -13.5t13.5 -12.5t8 -9.5l3 -3
v50h154v-225q0 -84 5.5 -124.5t18 -54t39.5 -13.5zM363 201v119q0 10 -7 25.5t-24.5 30t-40.5 14.5q-26 0 -46 -18.5t-30 -46t-10 -58.5q0 -54 21.5 -85.5t65.5 -31.5q33 0 52 17.5t19 33.5zM313 684q43 0 43 55h87q0 -29 -8 -52t-21 -37t-30.5 -23.5t-35 -13t-35.5 -3.5
q-23 0 -44.5 6.5t-42 20.5t-33 40t-12.5 62h88q0 -55 44 -55z" />
    <glyph glyph-name="acircumflex.salt" 
d="M580 110l-41 -119q-45 0 -74.5 10.5t-43 24.5t-31.5 42q-2 -3 -6.5 -8t-19.5 -18.5t-31.5 -23.5t-42.5 -18.5t-54 -8.5q-61 0 -107.5 39.5t-69.5 101t-23 133.5q0 77 21 138t66.5 99.5t109.5 38.5q17 0 33.5 -3.5t29.5 -9.5t24 -12.5t18.5 -13.5t13.5 -12.5t8 -9.5l3 -3
v50h154v-225q0 -84 5.5 -124.5t18 -54t39.5 -13.5zM363 201v119q0 10 -7 25.5t-24.5 30t-40.5 14.5q-26 0 -46 -18.5t-30 -46t-10 -58.5q0 -54 21.5 -85.5t65.5 -31.5q33 0 52 17.5t19 33.5zM443 612h-98l-33 58l-31 -58h-100l59 134h144z" />
    <glyph glyph-name="adieresis.salt" 
d="M580 110l-41 -119q-45 0 -74.5 10.5t-43 24.5t-31.5 42q-2 -3 -6.5 -8t-19.5 -18.5t-31.5 -23.5t-42.5 -18.5t-54 -8.5q-61 0 -107.5 39.5t-69.5 101t-23 133.5q0 77 21 138t66.5 99.5t109.5 38.5q17 0 33.5 -3.5t29.5 -9.5t24 -12.5t18.5 -13.5t13.5 -12.5t8 -9.5l3 -3
v50h154v-225q0 -84 5.5 -124.5t18 -54t39.5 -13.5zM363 201v119q0 10 -7 25.5t-24.5 30t-40.5 14.5q-26 0 -46 -18.5t-30 -46t-10 -58.5q0 -54 21.5 -85.5t65.5 -31.5q33 0 52 17.5t19 33.5zM406 605q-19 0 -35.5 9.5t-25.5 25.5t-9 36q0 29 20.5 49.5t49.5 20.5t50 -20.5
t21 -49.5q0 -30 -21 -50.5t-50 -20.5zM218 605q-29 0 -49.5 20.5t-20.5 50.5q0 29 20.5 49.5t49.5 20.5t50 -20.5t21 -49.5q0 -30 -21 -50.5t-50 -20.5z" />
    <glyph glyph-name="agrave.salt" 
d="M580 110l-41 -119q-45 0 -74.5 10.5t-43 24.5t-31.5 42q-2 -3 -6.5 -8t-19.5 -18.5t-31.5 -23.5t-42.5 -18.5t-54 -8.5q-61 0 -107.5 39.5t-69.5 101t-23 133.5q0 77 21 138t66.5 99.5t109.5 38.5q17 0 33.5 -3.5t29.5 -9.5t24 -12.5t18.5 -13.5t13.5 -12.5t8 -9.5l3 -3
v50h154v-225q0 -84 5.5 -124.5t18 -54t39.5 -13.5zM363 201v119q0 10 -7 25.5t-24.5 30t-40.5 14.5q-26 0 -46 -18.5t-30 -46t-10 -58.5q0 -54 21.5 -85.5t65.5 -31.5q33 0 52 17.5t19 33.5zM236 612l-74 126h154l47 -126h-127z" />
    <glyph glyph-name="amacron.salt" 
d="M580 110l-41 -119q-45 0 -74.5 10.5t-43 24.5t-31.5 42q-2 -3 -6.5 -8t-19.5 -18.5t-31.5 -23.5t-42.5 -18.5t-54 -8.5q-61 0 -107.5 39.5t-69.5 101t-23 133.5q0 77 21 138t66.5 99.5t109.5 38.5q17 0 33.5 -3.5t29.5 -9.5t24 -12.5t18.5 -13.5t13.5 -12.5t8 -9.5l3 -3
v50h154v-225q0 -84 5.5 -124.5t18 -54t39.5 -13.5zM363 201v119q0 10 -7 25.5t-24.5 30t-40.5 14.5q-26 0 -46 -18.5t-30 -46t-10 -58.5q0 -54 21.5 -85.5t65.5 -31.5q33 0 52 17.5t19 33.5zM524 640h-423v98h423v-98z" />
    <glyph glyph-name="aogonek.salt" 
d="M363 201v119q0 10 -7 25.5t-24.5 30t-40.5 14.5q-39 0 -62.5 -37t-23.5 -86q0 -54 21.5 -85.5t65.5 -31.5q33 0 52 17.5t19 33.5zM601 -112q-23 -23 -68 -23q-21 0 -39 5.5t-31.5 15.5t-21.5 24.5t-8 31.5q0 30 23 62q-22 9 -36 24t-30 40q-2 -3 -6.5 -8t-19.5 -18.5
t-31.5 -23.5t-42.5 -18.5t-54 -8.5q-61 0 -107.5 39.5t-69.5 101t-23 133.5q0 77 21 138t66.5 99.5t109.5 38.5q17 0 33.5 -3.5t29.5 -9.5t24 -12.5t18.5 -13.5t13.5 -12.5t8 -9.5l3 -3v50h154v-225q0 -84 5.5 -124.5t18 -54t39.5 -13.5l-41 -119h-8q-6 -16 -6 -30
q0 -25 21 -25q5 0 12 2t11 3.5t5 2.5z" />
    <glyph glyph-name="aring.salt" 
d="M580 110l-41 -119q-45 0 -74.5 10.5t-43 24.5t-31.5 42q-2 -3 -6.5 -8t-19.5 -18.5t-31.5 -23.5t-42.5 -18.5t-54 -8.5q-61 0 -107.5 39.5t-69.5 101t-23 133.5q0 77 21 138t66.5 99.5t109.5 38.5q17 0 33.5 -3.5t29.5 -9.5t24 -12.5t18.5 -13.5t13.5 -12.5t8 -9.5l3 -3
v50h154v-225q0 -84 5.5 -124.5t18 -54t39.5 -13.5zM363 201v119q0 10 -7 25.5t-24.5 30t-40.5 14.5q-26 0 -46 -18.5t-30 -46t-10 -58.5q0 -54 21.5 -85.5t65.5 -31.5q33 0 52 17.5t19 33.5zM313 771q36 0 61.5 -25t25.5 -61q0 -37 -25.5 -62.5t-61.5 -25.5
q-37 0 -62.5 25.5t-25.5 62.5q0 24 11.5 43.5t32 31t44.5 11.5zM312 720q-14 0 -24 -10.5t-10 -24.5q0 -15 10 -25t24 -10t25 10t11 25q0 14 -11 24.5t-25 10.5z" />
    <glyph glyph-name="atilde.salt" 
d="M580 110l-41 -119q-45 0 -74.5 10.5t-43 24.5t-31.5 42q-2 -3 -6.5 -8t-19.5 -18.5t-31.5 -23.5t-42.5 -18.5t-54 -8.5q-61 0 -107.5 39.5t-69.5 101t-23 133.5q0 77 21 138t66.5 99.5t109.5 38.5q17 0 33.5 -3.5t29.5 -9.5t24 -12.5t18.5 -13.5t13.5 -12.5t8 -9.5l3 -3
v50h154v-225q0 -84 5.5 -124.5t18 -54t39.5 -13.5zM363 201v119q0 10 -7 25.5t-24.5 30t-40.5 14.5q-26 0 -46 -18.5t-30 -46t-10 -58.5q0 -54 21.5 -85.5t65.5 -31.5q33 0 52 17.5t19 33.5zM208 621l-97 64q13 36 49 62t83 26q19 0 56.5 -13t57.5 -13q23 0 33.5 6.5
t17.5 20.5l106 -54q-13 -37 -41.5 -65.5t-65.5 -28.5q-34 0 -75 15.5t-57 15.5q-46 0 -67 -36z" />
    </font>
</defs>
</svg>
